<svg width="90" height="36" viewBox="0 0 90 36" fill="none" xmlns="http://www.w3.org/2000/svg">
<rect x="0.5" y="0.5" width="89" height="35" rx="7.5" stroke="#38AEE0"/>
<path d="M21.5833 26.3307C20.3056 26.3307 19.2222 25.8863 18.3333 24.9974C17.4444 24.1085 17 23.0252 17 21.7474V12.9974C17 12.0807 17.3264 11.296 17.9792 10.6432C18.6319 9.99045 19.4167 9.66406 20.3333 9.66406C21.25 9.66406 22.0347 9.99045 22.6875 10.6432C23.3403 11.296 23.6667 12.0807 23.6667 12.9974V20.9141C23.6667 21.4974 23.4653 21.9905 23.0625 22.3932C22.6597 22.796 22.1667 22.9974 21.5833 22.9974C21 22.9974 20.5069 22.796 20.1042 22.3932C19.7014 21.9905 19.5 21.4974 19.5 20.9141V12.9974H20.75V20.9141C20.75 21.1502 20.8299 21.3481 20.9896 21.5078C21.1493 21.6675 21.3472 21.7474 21.5833 21.7474C21.8194 21.7474 22.0174 21.6675 22.1771 21.5078C22.3368 21.3481 22.4167 21.1502 22.4167 20.9141V12.9974C22.4167 12.4141 22.2153 11.921 21.8125 11.5182C21.4097 11.1155 20.9167 10.9141 20.3333 10.9141C19.75 10.9141 19.2569 11.1155 18.8542 11.5182C18.4514 11.921 18.25 12.4141 18.25 12.9974V21.7474C18.25 22.6641 18.5764 23.4488 19.2292 24.1016C19.8819 24.7543 20.6667 25.0807 21.5833 25.0807C22.5 25.0807 23.2847 24.7543 23.9375 24.1016C24.5903 23.4488 24.9167 22.6641 24.9167 21.7474V12.9974H26.1667V21.7474C26.1667 23.0252 25.7222 24.1085 24.8333 24.9974C23.9444 25.8863 22.8611 26.3307 21.5833 26.3307Z" fill="#38AEE0"/>
<path d="M40.0166 23L43.6146 13.662H44.3006L47.9686 23H46.7506L45.6446 20.116H42.2566L41.1926 23H40.0166ZM42.6206 19.122H45.2806L43.9226 15.552L42.6206 19.122ZM50.2466 17.204V21.474C50.2466 21.8007 50.3072 22.02 50.4286 22.132C50.5592 22.2347 50.7226 22.286 50.9186 22.286C51.0959 22.286 51.2639 22.2487 51.4226 22.174C51.5812 22.0993 51.7259 22.0107 51.8566 21.908L52.2766 22.636C52.0619 22.7947 51.8472 22.9207 51.6326 23.014C51.4272 23.1073 51.1332 23.154 50.7506 23.154C50.2466 23.154 49.8592 23.028 49.5886 22.776C49.3179 22.5147 49.1826 22.118 49.1826 21.586V17.204H48.0346V16.322H49.1826V14.6L50.2606 14.404V16.322H52.0806L51.9266 17.204H50.2466ZM54.8403 17.204V21.474C54.8403 21.8007 54.901 22.02 55.0223 22.132C55.153 22.2347 55.3163 22.286 55.5123 22.286C55.6896 22.286 55.8576 22.2487 56.0163 22.174C56.175 22.0993 56.3196 22.0107 56.4503 21.908L56.8703 22.636C56.6556 22.7947 56.441 22.9207 56.2263 23.014C56.021 23.1073 55.727 23.154 55.3443 23.154C54.8403 23.154 54.453 23.028 54.1823 22.776C53.9116 22.5147 53.7763 22.118 53.7763 21.586V17.204H52.6283V16.322H53.7763V14.6L54.8543 14.404V16.322H56.6743L56.5203 17.204H54.8403ZM61.9055 23L61.8495 22.426C61.6162 22.6593 61.3455 22.8413 61.0375 22.972C60.7388 23.0933 60.4075 23.154 60.0435 23.154C59.7542 23.154 59.4695 23.1073 59.1895 23.014C58.9188 22.93 58.6762 22.804 58.4615 22.636C58.2562 22.4587 58.0882 22.2393 57.9575 21.978C57.8268 21.7167 57.7615 21.4133 57.7615 21.068C57.7615 20.592 57.8875 20.2 58.1395 19.892C58.4008 19.5747 58.7275 19.3273 59.1195 19.15C59.5115 18.9727 59.9455 18.8467 60.4215 18.772C60.8975 18.6973 61.3595 18.66 61.8075 18.66V18.576C61.8075 18.016 61.6862 17.6147 61.4435 17.372C61.2102 17.1293 60.8695 17.008 60.4215 17.008C60.1135 17.008 59.8288 17.078 59.5675 17.218C59.3155 17.3487 59.1008 17.526 58.9235 17.75L58.1675 17.218C58.4382 16.854 58.7555 16.588 59.1195 16.42C59.4928 16.2427 59.9595 16.154 60.5195 16.154C61.2662 16.154 61.8448 16.3453 62.2555 16.728C62.6755 17.1107 62.8855 17.75 62.8855 18.646V23H61.9055ZM61.8075 19.514C61.4995 19.5233 61.1728 19.5467 60.8275 19.584C60.4822 19.6213 60.1602 19.696 59.8615 19.808C59.5722 19.9107 59.3295 20.0647 59.1335 20.27C58.9468 20.4753 58.8535 20.746 58.8535 21.082C58.8535 21.2967 58.8955 21.4787 58.9795 21.628C59.0635 21.7773 59.1662 21.9033 59.2875 22.006C59.4182 22.0993 59.5582 22.1693 59.7075 22.216C59.8662 22.2533 60.0202 22.272 60.1695 22.272C60.4962 22.272 60.7948 22.2067 61.0655 22.076C61.3455 21.936 61.5928 21.7727 61.8075 21.586V19.514ZM70.0777 21.572C69.8163 22.1133 69.457 22.5147 68.9997 22.776C68.5517 23.028 68.0757 23.154 67.5717 23.154C67.1797 23.154 66.7923 23.084 66.4097 22.944C66.0363 22.804 65.705 22.5893 65.4157 22.3C65.1263 22.0107 64.893 21.6513 64.7157 21.222C64.5383 20.7833 64.4497 20.27 64.4497 19.682C64.4497 19.0567 64.5383 18.52 64.7157 18.072C64.893 17.624 65.1263 17.26 65.4157 16.98C65.705 16.6907 66.0317 16.4807 66.3957 16.35C66.7597 16.2193 67.1237 16.154 67.4877 16.154C67.861 16.154 68.1877 16.21 68.4677 16.322C68.757 16.434 68.9997 16.574 69.1957 16.742C69.401 16.91 69.5643 17.0873 69.6857 17.274C69.8163 17.4607 69.9097 17.6287 69.9657 17.778L69.1677 18.282C68.9717 17.834 68.7243 17.512 68.4257 17.316C68.127 17.12 67.8143 17.022 67.4877 17.022C67.2357 17.022 66.993 17.0827 66.7597 17.204C66.5263 17.316 66.3163 17.484 66.1297 17.708C65.943 17.932 65.7937 18.2073 65.6817 18.534C65.5697 18.8607 65.5137 19.234 65.5137 19.654C65.5137 20.074 65.5697 20.4473 65.6817 20.774C65.7937 21.1007 65.943 21.376 66.1297 21.6C66.3257 21.824 66.5497 21.9967 66.8017 22.118C67.063 22.23 67.3383 22.286 67.6277 22.286C67.9543 22.286 68.267 22.1927 68.5657 22.006C68.8737 21.8193 69.1257 21.516 69.3217 21.096L70.0777 21.572ZM72.4805 13.48V16.854C72.7512 16.658 73.0592 16.4947 73.4045 16.364C73.7499 16.224 74.1372 16.154 74.5665 16.154C75.4719 16.154 76.1112 16.3827 76.4845 16.84C76.8672 17.2973 77.0585 17.9647 77.0585 18.842V23H75.9665V18.828C75.9665 18.212 75.8405 17.7593 75.5885 17.47C75.3365 17.1713 74.9305 17.022 74.3705 17.022C74.0159 17.022 73.6705 17.106 73.3345 17.274C73.0079 17.4327 72.7232 17.6007 72.4805 17.778V23H71.4025V13.662L72.4805 13.48Z" fill="#38AEE0"/>
</svg>
