<svg width="1313" height="103" viewBox="0 0 1313 103" fill="none" xmlns="http://www.w3.org/2000/svg">
<rect x="0.75" y="10.75" width="804.5" height="62.5" rx="7.25" stroke="#C6C6C6" stroke-width="1.5" stroke-dasharray="4 4"/>
<rect x="392" y="13" width="411" height="56" rx="8" fill="white"/>
<line x1="402.5" y1="18" x2="402.5" y2="64" stroke="#ECEAEA"/>
<path d="M448 17L456 25V63C456 64.1046 455.105 65 454 65H418C416.895 65 416 64.1046 416 63V19C416 17.8954 416.895 17 418 17H448Z" fill="#E4E7EC"/>
<path d="M456 25H448V17L456 25Z" fill="#98A2B3"/>
<rect x="414" y="37" width="44" height="20" rx="2" fill="#CC400C"/>
<path d="M421.328 52.8161V41.1797H425.692C426.586 41.1797 427.336 41.3464 427.942 41.6797C428.552 42.013 429.012 42.4714 429.322 43.0547C429.637 43.6342 429.794 44.2933 429.794 45.032C429.794 45.7782 429.637 46.4411 429.322 47.0206C429.008 47.6001 428.544 48.0566 427.93 48.3899C427.317 48.7195 426.561 48.8842 425.663 48.8842H422.771V47.1513H425.379C425.902 47.1513 426.33 47.0604 426.663 46.8786C426.997 46.6967 427.243 46.4467 427.402 46.1286C427.565 45.8104 427.646 45.4448 427.646 45.032C427.646 44.6191 427.565 44.2554 427.402 43.9411C427.243 43.6267 426.995 43.3823 426.658 43.2081C426.324 43.0301 425.894 42.9411 425.368 42.9411H423.436V52.8161H421.328Z" fill="white"/>
<path d="M435.568 52.8161H431.625V41.1797H435.648C436.803 41.1797 437.795 41.4126 438.625 41.8786C439.458 42.3407 440.098 43.0054 440.545 43.8729C440.992 44.7403 441.216 45.7782 441.216 46.9865C441.216 48.1986 440.991 49.2403 440.54 50.1115C440.093 50.9827 439.447 51.6513 438.602 52.1172C437.761 52.5831 436.75 52.8161 435.568 52.8161ZM433.733 50.9922H435.466C436.277 50.9922 436.953 50.8445 437.494 50.549C438.036 50.2498 438.443 49.8047 438.716 49.2138C438.989 48.6191 439.125 47.8767 439.125 46.9865C439.125 46.0964 438.989 45.3577 438.716 44.7706C438.443 44.1797 438.04 43.7384 437.506 43.4467C436.975 43.1513 436.316 43.0036 435.528 43.0036H433.733V50.9922Z" fill="white"/>
<path d="M443.219 52.8161V41.1797H450.673V42.9467H445.327V46.1058H450.162V47.8729H445.327V52.8161H443.219Z" fill="white"/>
<path d="M478.25 36.016C477.093 35.9787 476.211 35.792 475.604 35.456C474.997 35.1293 474.582 34.6627 474.358 34.056C473.817 33.9253 473.341 33.706 472.93 33.398C472.529 33.0807 472.193 32.7073 471.922 32.278C471.661 31.8487 471.46 31.382 471.32 30.878C471.189 30.3647 471.124 29.8467 471.124 29.324C471.124 28.7267 471.213 28.1387 471.39 27.56C471.567 26.972 471.833 26.4493 472.188 25.992C472.543 25.5347 472.991 25.166 473.532 24.886C474.073 24.606 474.703 24.466 475.422 24.466C476.15 24.466 476.785 24.606 477.326 24.886C477.867 25.166 478.32 25.5347 478.684 25.992C479.048 26.4493 479.319 26.972 479.496 27.56C479.673 28.1387 479.762 28.7267 479.762 29.324C479.762 29.8187 479.697 30.3133 479.566 30.808C479.435 31.3027 479.239 31.7647 478.978 32.194C478.726 32.614 478.409 32.9873 478.026 33.314C477.643 33.6313 477.2 33.8647 476.696 34.014C476.799 34.21 476.999 34.3407 477.298 34.406C477.597 34.4807 477.989 34.518 478.474 34.518L478.25 36.016ZM473.028 29.324C473.028 29.6693 473.07 30.0333 473.154 30.416C473.247 30.7893 473.387 31.1347 473.574 31.452C473.761 31.76 474.003 32.0167 474.302 32.222C474.61 32.4273 474.983 32.53 475.422 32.53C475.814 32.53 476.159 32.4413 476.458 32.264C476.766 32.0867 477.023 31.8487 477.228 31.55C477.433 31.2513 477.587 30.9107 477.69 30.528C477.793 30.136 477.844 29.7347 477.844 29.324C477.844 28.9133 477.793 28.5167 477.69 28.134C477.587 27.742 477.433 27.3967 477.228 27.098C477.023 26.7993 476.766 26.5613 476.458 26.384C476.159 26.2067 475.814 26.118 475.422 26.118C475.03 26.118 474.685 26.2067 474.386 26.384C474.097 26.5613 473.849 26.7993 473.644 27.098C473.439 27.3967 473.285 27.742 473.182 28.134C473.079 28.5167 473.028 28.9133 473.028 29.324ZM485.909 34L485.839 33.468C485.512 33.7293 485.176 33.9067 484.831 34C484.485 34.0933 484.145 34.14 483.809 34.14C483.37 34.14 482.987 34.0747 482.661 33.944C482.343 33.804 482.077 33.608 481.863 33.356C481.657 33.104 481.503 32.8053 481.401 32.46C481.307 32.1053 481.261 31.7087 481.261 31.27V27.434L483.095 27.154V31.088C483.095 31.34 483.109 31.564 483.137 31.76C483.174 31.956 483.235 32.124 483.319 32.264C483.403 32.404 483.519 32.5113 483.669 32.586C483.827 32.6513 484.028 32.684 484.271 32.684C484.625 32.684 484.924 32.614 485.167 32.474C485.409 32.3247 485.605 32.1893 485.755 32.068V27.252H487.589V34H485.909ZM492.392 34.154C491.823 34.154 491.323 34.0513 490.894 33.846C490.474 33.6407 490.119 33.37 489.83 33.034C489.55 32.698 489.34 32.32 489.2 31.9C489.06 31.4707 488.99 31.0367 488.99 30.598C488.99 30.1593 489.06 29.73 489.2 29.31C489.34 28.89 489.55 28.5167 489.83 28.19C490.119 27.854 490.474 27.588 490.894 27.392C491.323 27.1867 491.823 27.084 492.392 27.084C492.961 27.084 493.456 27.1867 493.876 27.392C494.305 27.588 494.66 27.854 494.94 28.19C495.229 28.5167 495.444 28.89 495.584 29.31C495.724 29.73 495.794 30.1593 495.794 30.598C495.794 31.0367 495.724 31.4707 495.584 31.9C495.444 32.32 495.229 32.698 494.94 33.034C494.66 33.37 494.305 33.6407 493.876 33.846C493.456 34.0513 492.961 34.154 492.392 34.154ZM490.782 30.598C490.782 30.8873 490.815 31.158 490.88 31.41C490.955 31.6527 491.057 31.8673 491.188 32.054C491.328 32.2407 491.496 32.39 491.692 32.502C491.897 32.6047 492.131 32.656 492.392 32.656C492.653 32.656 492.882 32.6047 493.078 32.502C493.283 32.39 493.451 32.2407 493.582 32.054C493.722 31.8673 493.825 31.6527 493.89 31.41C493.965 31.158 494.002 30.8873 494.002 30.598C494.002 30.318 493.965 30.052 493.89 29.8C493.825 29.548 493.722 29.3333 493.582 29.156C493.451 28.9693 493.283 28.8247 493.078 28.722C492.882 28.61 492.653 28.554 492.392 28.554C492.131 28.554 491.897 28.61 491.692 28.722C491.496 28.8247 491.328 28.9693 491.188 29.156C491.057 29.3333 490.955 29.548 490.88 29.8C490.815 30.052 490.782 30.318 490.782 30.598ZM499.303 28.652V32.096C499.303 32.3107 499.35 32.46 499.443 32.544C499.546 32.6187 499.644 32.656 499.737 32.656C499.924 32.656 500.106 32.6093 500.283 32.516C500.461 32.4227 500.615 32.3247 500.745 32.222L501.403 33.468C501.095 33.6733 500.773 33.8413 500.437 33.972C500.101 34.0933 499.737 34.154 499.345 34.154C499.112 34.154 498.883 34.1213 498.659 34.056C498.435 33.9907 498.235 33.888 498.057 33.748C497.889 33.608 497.749 33.426 497.637 33.202C497.535 32.9687 497.483 32.6887 497.483 32.362V28.652H496.489V27.252H497.483V25.684L499.303 25.404V27.252H501.053L500.829 28.652H499.303ZM503.758 31.06C503.786 31.34 503.846 31.5827 503.94 31.788C504.033 31.9933 504.15 32.1613 504.29 32.292C504.43 32.4227 504.584 32.5207 504.752 32.586C504.929 32.642 505.111 32.67 505.298 32.67C505.624 32.67 505.918 32.614 506.18 32.502C506.441 32.3807 506.712 32.124 506.992 31.732L508.35 32.558C507.958 33.146 507.51 33.5613 507.006 33.804C506.511 34.0373 505.923 34.154 505.242 34.154C504.794 34.154 504.369 34.084 503.968 33.944C503.566 33.804 503.212 33.5893 502.904 33.3C502.605 33.0013 502.367 32.6327 502.19 32.194C502.012 31.7553 501.924 31.2327 501.924 30.626C501.924 30.0567 502.008 29.5527 502.176 29.114C502.353 28.6753 502.591 28.3067 502.89 28.008C503.188 27.7093 503.534 27.4807 503.926 27.322C504.327 27.1633 504.752 27.084 505.2 27.084C506.142 27.084 506.898 27.4153 507.468 28.078C508.046 28.7313 508.345 29.7253 508.364 31.06H503.758ZM506.502 29.814C506.483 29.59 506.432 29.394 506.348 29.226C506.273 29.058 506.175 28.918 506.054 28.806C505.932 28.694 505.797 28.61 505.648 28.554C505.498 28.498 505.349 28.47 505.2 28.47C504.882 28.47 504.584 28.5913 504.304 28.834C504.024 29.0673 503.856 29.394 503.8 29.814H506.502ZM516.814 34L516.73 33.482C516.562 33.6593 516.342 33.818 516.072 33.958C515.801 34.0887 515.479 34.154 515.106 34.154C514.611 34.154 514.177 34.0607 513.804 33.874C513.43 33.6873 513.113 33.4353 512.852 33.118C512.6 32.7913 512.408 32.4133 512.278 31.984C512.147 31.5547 512.082 31.0927 512.082 30.598C512.082 30.1593 512.152 29.73 512.292 29.31C512.432 28.89 512.642 28.5167 512.922 28.19C513.202 27.854 513.552 27.588 513.972 27.392C514.392 27.1867 514.886 27.084 515.456 27.084C515.82 27.084 516.221 27.1493 516.66 27.28V24.746L518.48 24.466V34H516.814ZM516.66 28.75C516.296 28.6193 515.969 28.554 515.68 28.554C515.372 28.554 515.101 28.61 514.868 28.722C514.644 28.834 514.457 28.988 514.308 29.184C514.158 29.3707 514.046 29.5853 513.972 29.828C513.897 30.0613 513.86 30.304 513.86 30.556C513.86 30.8453 513.888 31.1207 513.944 31.382C514.009 31.634 514.107 31.858 514.238 32.054C514.368 32.2407 514.532 32.39 514.728 32.502C514.933 32.614 515.18 32.67 515.47 32.67C515.694 32.67 515.922 32.614 516.156 32.502C516.389 32.3807 516.557 32.2407 516.66 32.082V28.75ZM521.709 31.06C521.737 31.34 521.797 31.5827 521.891 31.788C521.984 31.9933 522.101 32.1613 522.241 32.292C522.381 32.4227 522.535 32.5207 522.703 32.586C522.88 32.642 523.062 32.67 523.249 32.67C523.575 32.67 523.869 32.614 524.131 32.502C524.392 32.3807 524.663 32.124 524.943 31.732L526.301 32.558C525.909 33.146 525.461 33.5613 524.957 33.804C524.462 34.0373 523.874 34.154 523.193 34.154C522.745 34.154 522.32 34.084 521.919 33.944C521.517 33.804 521.163 33.5893 520.855 33.3C520.556 33.0013 520.318 32.6327 520.141 32.194C519.963 31.7553 519.875 31.2327 519.875 30.626C519.875 30.0567 519.959 29.5527 520.127 29.114C520.304 28.6753 520.542 28.3067 520.841 28.008C521.139 27.7093 521.485 27.4807 521.877 27.322C522.278 27.1633 522.703 27.084 523.151 27.084C524.093 27.084 524.849 27.4153 525.419 28.078C525.997 28.7313 526.296 29.7253 526.315 31.06H521.709ZM524.453 29.814C524.434 29.59 524.383 29.394 524.299 29.226C524.224 29.058 524.126 28.918 524.005 28.806C523.883 28.694 523.748 28.61 523.599 28.554C523.449 28.498 523.3 28.47 523.151 28.47C522.833 28.47 522.535 28.5913 522.255 28.834C521.975 29.0673 521.807 29.394 521.751 29.814H524.453ZM529.764 28.652V32.096C529.764 32.3107 529.811 32.46 529.904 32.544C530.007 32.6187 530.105 32.656 530.198 32.656C530.385 32.656 530.567 32.6093 530.744 32.516C530.922 32.4227 531.076 32.3247 531.206 32.222L531.864 33.468C531.556 33.6733 531.234 33.8413 530.898 33.972C530.562 34.0933 530.198 34.154 529.806 34.154C529.573 34.154 529.344 34.1213 529.12 34.056C528.896 33.9907 528.696 33.888 528.518 33.748C528.35 33.608 528.21 33.426 528.098 33.202C527.996 32.9687 527.944 32.6887 527.944 32.362V28.652H526.95V27.252H527.944V25.684L529.764 25.404V27.252H531.514L531.29 28.652H529.764ZM536.543 34L536.459 33.496C536.263 33.7013 536.011 33.8647 535.703 33.986C535.404 34.098 535.073 34.154 534.709 34.154C534.41 34.154 534.116 34.1027 533.827 34C533.547 33.9067 533.299 33.7713 533.085 33.594C532.87 33.4073 532.697 33.1833 532.567 32.922C532.436 32.6513 532.371 32.348 532.371 32.012C532.371 31.5173 532.501 31.1207 532.763 30.822C533.033 30.514 533.369 30.276 533.771 30.108C534.172 29.94 534.606 29.8233 535.073 29.758C535.539 29.6927 535.973 29.646 536.375 29.618V29.394C536.375 29.114 536.291 28.8947 536.123 28.736C535.964 28.568 535.721 28.484 535.395 28.484C535.133 28.484 534.895 28.54 534.681 28.652C534.475 28.7547 534.293 28.8993 534.135 29.086L532.889 28.218C533.066 27.994 533.267 27.8073 533.491 27.658C533.724 27.5087 533.957 27.392 534.191 27.308C534.433 27.224 534.671 27.168 534.905 27.14C535.138 27.1027 535.353 27.084 535.549 27.084C535.941 27.084 536.3 27.1353 536.627 27.238C536.953 27.3313 537.233 27.4853 537.467 27.7C537.709 27.9053 537.896 28.1713 538.027 28.498C538.157 28.8153 538.223 29.2027 538.223 29.66V34H536.543ZM536.389 30.85C536.127 30.8687 535.861 30.892 535.591 30.92C535.329 30.948 535.091 30.9993 534.877 31.074C534.662 31.1487 534.485 31.2607 534.345 31.41C534.214 31.55 534.149 31.7367 534.149 31.97C534.149 32.194 534.233 32.376 534.401 32.516C534.569 32.6467 534.816 32.712 535.143 32.712C535.376 32.712 535.6 32.6653 535.815 32.572C536.039 32.4787 536.23 32.362 536.389 32.222V30.85ZM540.906 26.482C540.542 26.482 540.267 26.3793 540.08 26.174C539.903 25.9687 539.814 25.74 539.814 25.488C539.814 25.2453 539.903 25.0213 540.08 24.816C540.267 24.6107 540.542 24.508 540.906 24.508C541.27 24.508 541.541 24.6107 541.718 24.816C541.905 25.0213 541.998 25.2453 541.998 25.488C541.998 25.74 541.905 25.9687 541.718 26.174C541.541 26.3793 541.27 26.482 540.906 26.482ZM539.996 34V27.434L541.816 27.154V34H539.996ZM543.633 34V24.746L545.467 24.466V34H543.633ZM548.137 31.732C548.296 32.0307 548.52 32.2827 548.809 32.488C549.098 32.684 549.481 32.782 549.957 32.782C550.694 32.782 551.063 32.5627 551.063 32.124C551.063 32.0307 551.04 31.942 550.993 31.858C550.956 31.774 550.876 31.6947 550.755 31.62C550.634 31.5453 550.47 31.4753 550.265 31.41C550.06 31.3447 549.798 31.2793 549.481 31.214C549.126 31.1393 548.8 31.0507 548.501 30.948C548.212 30.836 547.964 30.7007 547.759 30.542C547.554 30.374 547.395 30.178 547.283 29.954C547.171 29.7207 547.115 29.4407 547.115 29.114C547.115 28.8153 547.18 28.5447 547.311 28.302C547.442 28.05 547.624 27.8353 547.857 27.658C548.1 27.4713 548.394 27.3313 548.739 27.238C549.084 27.1353 549.467 27.084 549.887 27.084C550.652 27.084 551.259 27.21 551.707 27.462C552.155 27.7047 552.5 28.0033 552.743 28.358L551.455 29.24C551.287 29.016 551.072 28.8293 550.811 28.68C550.55 28.5307 550.242 28.456 549.887 28.456C549.504 28.456 549.234 28.5167 549.075 28.638C548.926 28.75 548.851 28.8993 548.851 29.086C548.851 29.3007 548.944 29.4547 549.131 29.548C549.318 29.6413 549.663 29.7393 550.167 29.842C550.578 29.926 550.942 30.0287 551.259 30.15C551.586 30.262 551.861 30.402 552.085 30.57C552.309 30.738 552.477 30.9433 552.589 31.186C552.71 31.4193 552.771 31.704 552.771 32.04C552.771 32.404 552.696 32.7213 552.547 32.992C552.398 33.2533 552.192 33.4727 551.931 33.65C551.67 33.818 551.362 33.944 551.007 34.028C550.652 34.112 550.274 34.154 549.873 34.154C549.07 34.154 548.417 34.0047 547.913 33.706C547.418 33.398 547.04 33.0153 546.779 32.558L548.137 31.732ZM554.736 34.154C554.381 34.154 554.12 34.0513 553.952 33.846C553.784 33.6313 553.7 33.398 553.7 33.146C553.7 32.8847 553.784 32.6513 553.952 32.446C554.12 32.2313 554.381 32.124 554.736 32.124C555.072 32.124 555.324 32.2313 555.492 32.446C555.66 32.6513 555.744 32.8847 555.744 33.146C555.744 33.398 555.66 33.6313 555.492 33.846C555.333 34.0513 555.081 34.154 554.736 34.154ZM557.181 36.646V27.42L558.833 27.168L558.931 27.756C559.099 27.5973 559.319 27.448 559.589 27.308C559.869 27.1587 560.205 27.084 560.597 27.084C561.092 27.084 561.521 27.1727 561.885 27.35C562.259 27.5273 562.567 27.77 562.809 28.078C563.052 28.386 563.234 28.7547 563.355 29.184C563.477 29.604 563.537 30.066 563.537 30.57C563.537 31.0087 563.467 31.4427 563.327 31.872C563.187 32.3013 562.968 32.684 562.669 33.02C562.38 33.356 562.011 33.6313 561.563 33.846C561.115 34.0513 560.579 34.154 559.953 34.154C559.795 34.154 559.631 34.1353 559.463 34.098C559.295 34.0607 559.146 34.014 559.015 33.958V36.646H557.181ZM559.001 32.446C559.309 32.5767 559.594 32.642 559.855 32.642C560.191 32.642 560.476 32.586 560.709 32.474C560.952 32.362 561.148 32.2127 561.297 32.026C561.456 31.83 561.573 31.6107 561.647 31.368C561.722 31.1253 561.759 30.878 561.759 30.626C561.759 30.346 561.731 30.08 561.675 29.828C561.619 29.5667 561.531 29.3427 561.409 29.156C561.288 28.9693 561.129 28.82 560.933 28.708C560.737 28.596 560.499 28.54 560.219 28.54C559.967 28.54 559.729 28.61 559.505 28.75C559.281 28.8807 559.113 29.0253 559.001 29.184V32.446ZM569.245 34L569.161 33.482C568.993 33.6593 568.774 33.818 568.503 33.958C568.233 34.0887 567.911 34.154 567.537 34.154C567.043 34.154 566.609 34.0607 566.235 33.874C565.862 33.6873 565.545 33.4353 565.283 33.118C565.031 32.7913 564.84 32.4133 564.709 31.984C564.579 31.5547 564.513 31.0927 564.513 30.598C564.513 30.1593 564.583 29.73 564.723 29.31C564.863 28.89 565.073 28.5167 565.353 28.19C565.633 27.854 565.983 27.588 566.403 27.392C566.823 27.1867 567.318 27.084 567.887 27.084C568.251 27.084 568.653 27.1493 569.091 27.28V24.746L570.911 24.466V34H569.245ZM569.091 28.75C568.727 28.6193 568.401 28.554 568.111 28.554C567.803 28.554 567.533 28.61 567.299 28.722C567.075 28.834 566.889 28.988 566.739 29.184C566.59 29.3707 566.478 29.5853 566.403 29.828C566.329 30.0613 566.291 30.304 566.291 30.556C566.291 30.8453 566.319 31.1207 566.375 31.382C566.441 31.634 566.539 31.858 566.669 32.054C566.8 32.2407 566.963 32.39 567.159 32.502C567.365 32.614 567.612 32.67 567.901 32.67C568.125 32.67 568.354 32.614 568.587 32.502C568.821 32.3807 568.989 32.2407 569.091 32.082V28.75ZM572.978 34V28.652H572.04V27.252H572.978V27.014C572.978 26.566 573.039 26.1833 573.16 25.866C573.282 25.5487 573.445 25.2873 573.65 25.082C573.865 24.8673 574.112 24.7133 574.392 24.62C574.682 24.5173 574.994 24.466 575.33 24.466C575.778 24.466 576.166 24.5033 576.492 24.578C576.828 24.6433 577.132 24.7413 577.402 24.872L576.87 26.272C576.478 26.0853 576.063 25.992 575.624 25.992C575.391 25.992 575.195 26.0667 575.036 26.216C574.878 26.3653 574.798 26.636 574.798 27.028V27.252H576.436L576.212 28.652H574.812V34H572.978Z" fill="black"/>
<path d="M473.878 58V50.09L471.778 51.434L471.232 50.664L474.032 48.816H475.012V58H473.878ZM481.439 58V50.09L479.339 51.434L478.793 50.664L481.593 48.816H482.573V58H481.439ZM489.352 55.998C489.622 56.39 489.977 56.684 490.416 56.88C490.854 57.076 491.302 57.174 491.76 57.174C492.002 57.174 492.231 57.146 492.446 57.09C492.67 57.0247 492.861 56.9313 493.02 56.81C493.188 56.6793 493.318 56.5113 493.412 56.306C493.514 56.1007 493.566 55.858 493.566 55.578C493.566 55.3167 493.505 55.088 493.384 54.892C493.262 54.6867 493.099 54.5047 492.894 54.346C492.688 54.1873 492.455 54.0473 492.194 53.926C491.932 53.7953 491.662 53.6693 491.382 53.548C491.064 53.408 490.747 53.268 490.43 53.128C490.122 52.9787 489.846 52.8013 489.604 52.596C489.361 52.3907 489.16 52.1527 489.002 51.882C488.852 51.6113 488.778 51.28 488.778 50.888C488.778 50.4867 488.857 50.1367 489.016 49.838C489.184 49.53 489.403 49.278 489.674 49.082C489.954 48.8767 490.266 48.7273 490.612 48.634C490.966 48.5313 491.335 48.48 491.718 48.48C492.306 48.48 492.87 48.5967 493.412 48.83C493.953 49.0633 494.392 49.432 494.728 49.936L493.874 50.608C493.631 50.272 493.318 50.0013 492.936 49.796C492.562 49.5813 492.152 49.474 491.704 49.474C491.144 49.474 490.714 49.5953 490.416 49.838C490.117 50.0807 489.968 50.412 489.968 50.832C489.968 51.0653 490.019 51.266 490.122 51.434C490.234 51.5927 490.383 51.7373 490.57 51.868C490.766 51.9987 490.999 52.1293 491.27 52.26C491.54 52.3813 491.844 52.5167 492.18 52.666C492.497 52.8153 492.81 52.9693 493.118 53.128C493.426 53.2867 493.701 53.4733 493.944 53.688C494.186 53.8933 494.382 54.1407 494.532 54.43C494.681 54.7193 494.756 55.0647 494.756 55.466C494.756 55.942 494.672 56.3527 494.504 56.698C494.345 57.0433 494.126 57.328 493.846 57.552C493.566 57.776 493.239 57.9393 492.866 58.042C492.502 58.1447 492.11 58.196 491.69 58.196C491.372 58.196 491.055 58.1587 490.738 58.084C490.43 58.0187 490.131 57.9207 489.842 57.79C489.562 57.6593 489.3 57.5007 489.058 57.314C488.824 57.118 488.628 56.8987 488.47 56.656L489.352 55.998ZM496.977 54.598C496.977 55.4473 497.168 56.11 497.551 56.586C497.933 57.0527 498.489 57.286 499.217 57.286C499.637 57.286 499.991 57.1833 500.281 56.978C500.57 56.7727 500.803 56.5207 500.981 56.222L501.695 56.698C501.452 57.118 501.135 57.468 500.743 57.748C500.36 58.0187 499.842 58.154 499.189 58.154C498.685 58.154 498.232 58.0793 497.831 57.93C497.429 57.7713 497.084 57.5473 496.795 57.258C496.515 56.9593 496.295 56.5907 496.137 56.152C495.987 55.7133 495.913 55.2047 495.913 54.626C495.913 54.094 495.983 53.618 496.123 53.198C496.272 52.7687 496.473 52.4047 496.725 52.106C496.986 51.798 497.299 51.5647 497.663 51.406C498.036 51.238 498.447 51.154 498.895 51.154C499.389 51.154 499.819 51.238 500.183 51.406C500.556 51.574 500.864 51.812 501.107 52.12C501.349 52.4187 501.531 52.7827 501.653 53.212C501.774 53.632 501.835 54.094 501.835 54.598H496.977ZM500.617 53.744C500.607 53.4547 500.551 53.2027 500.449 52.988C500.346 52.764 500.215 52.582 500.057 52.442C499.898 52.2927 499.716 52.1853 499.511 52.12C499.305 52.0453 499.1 52.008 498.895 52.008C498.447 52.008 498.059 52.1433 497.733 52.414C497.415 52.6753 497.196 53.1187 497.075 53.744H500.617ZM504.31 51.238L504.408 51.812C504.697 51.5787 505.001 51.4107 505.318 51.308C505.645 51.2053 505.985 51.154 506.34 51.154C506.835 51.154 507.255 51.2473 507.6 51.434C507.945 51.6207 508.225 51.8727 508.44 52.19C508.664 52.5073 508.823 52.876 508.916 53.296C509.019 53.7067 509.07 54.136 509.07 54.584C509.07 55.1253 508.986 55.6153 508.818 56.054C508.65 56.4927 508.417 56.8707 508.118 57.188C507.829 57.496 507.479 57.734 507.068 57.902C506.657 58.07 506.214 58.154 505.738 58.154C505.197 58.154 504.758 58.0793 504.422 57.93V60.646H503.344V51.406L504.31 51.238ZM504.422 56.992C504.525 57.0667 504.674 57.1367 504.87 57.202C505.066 57.258 505.285 57.286 505.528 57.286C505.883 57.286 506.209 57.2253 506.508 57.104C506.816 56.9827 507.077 56.81 507.292 56.586C507.516 56.362 507.689 56.0867 507.81 55.76C507.931 55.424 507.992 55.046 507.992 54.626C507.992 54.318 507.959 54.01 507.894 53.702C507.829 53.3847 507.721 53.1047 507.572 52.862C507.423 52.61 507.222 52.4093 506.97 52.26C506.727 52.1013 506.424 52.022 506.06 52.022C505.761 52.022 505.472 52.0873 505.192 52.218C504.912 52.3487 504.655 52.5213 504.422 52.736V56.992ZM509.628 58.924C509.796 58.8773 509.983 58.7793 510.188 58.63C510.403 58.49 510.548 58.336 510.622 58.168C510.51 58.1213 510.403 58.028 510.3 57.888C510.207 57.7387 510.16 57.538 510.16 57.286C510.16 57.0527 510.23 56.8473 510.37 56.67C510.51 56.4927 510.688 56.404 510.902 56.404C511.126 56.404 511.308 56.4973 511.448 56.684C511.598 56.8613 511.672 57.0993 511.672 57.398C511.672 57.6313 511.612 57.8507 511.49 58.056C511.378 58.2707 511.229 58.4667 511.042 58.644C510.856 58.8213 510.65 58.9707 510.426 59.092C510.202 59.2227 509.978 59.3207 509.754 59.386L509.628 58.924ZM516.156 58V57.342C516.67 56.754 517.16 56.1987 517.626 55.676C518.093 55.144 518.522 54.626 518.914 54.122C519.148 53.8327 519.348 53.5667 519.516 53.324C519.694 53.0813 519.843 52.848 519.964 52.624C520.086 52.4 520.174 52.1807 520.23 51.966C520.296 51.7513 520.328 51.5227 520.328 51.28C520.328 50.748 520.188 50.3467 519.908 50.076C519.638 49.8053 519.278 49.67 518.83 49.67C517.981 49.67 517.286 50.132 516.744 51.056L515.862 50.538C516.189 49.9407 516.6 49.4787 517.094 49.152C517.589 48.8253 518.191 48.662 518.9 48.662C519.302 48.662 519.661 48.7227 519.978 48.844C520.305 48.9653 520.58 49.138 520.804 49.362C521.038 49.5767 521.215 49.838 521.336 50.146C521.467 50.4447 521.532 50.776 521.532 51.14C521.532 51.7467 521.383 52.316 521.084 52.848C520.795 53.3707 520.44 53.8887 520.02 54.402C519.647 54.8687 519.264 55.3213 518.872 55.76C518.49 56.1893 518.102 56.6187 517.71 57.048H521.77V58H516.156ZM529.779 53.408C529.779 54.0053 529.709 54.5887 529.569 55.158C529.438 55.7273 529.238 56.236 528.967 56.684C528.696 57.1227 528.351 57.4773 527.931 57.748C527.511 58.0187 527.016 58.154 526.447 58.154C525.868 58.154 525.369 58.0187 524.949 57.748C524.538 57.4773 524.193 57.1227 523.913 56.684C523.642 56.236 523.442 55.7273 523.311 55.158C523.18 54.5887 523.115 54.0053 523.115 53.408C523.115 52.8107 523.18 52.2273 523.311 51.658C523.442 51.0887 523.642 50.5847 523.913 50.146C524.193 49.698 524.538 49.3387 524.949 49.068C525.369 48.7973 525.868 48.662 526.447 48.662C527.016 48.662 527.511 48.7973 527.931 49.068C528.351 49.3387 528.696 49.698 528.967 50.146C529.247 50.5847 529.452 51.0887 529.583 51.658C529.714 52.2273 529.779 52.8107 529.779 53.408ZM528.589 53.394C528.589 52.9273 528.547 52.4747 528.463 52.036C528.388 51.588 528.262 51.1913 528.085 50.846C527.908 50.4913 527.684 50.2067 527.413 49.992C527.142 49.7773 526.82 49.67 526.447 49.67C526.064 49.67 525.738 49.7773 525.467 49.992C525.196 50.2067 524.972 50.4913 524.795 50.846C524.618 51.1913 524.487 51.588 524.403 52.036C524.328 52.4747 524.291 52.9273 524.291 53.394C524.291 53.8607 524.333 54.318 524.417 54.766C524.501 55.214 524.627 55.6153 524.795 55.97C524.972 56.3247 525.196 56.6093 525.467 56.824C525.738 57.0387 526.064 57.146 526.447 57.146C526.82 57.146 527.142 57.0387 527.413 56.824C527.684 56.6093 527.903 56.3247 528.071 55.97C528.248 55.6153 528.379 55.214 528.463 54.766C528.547 54.318 528.589 53.8607 528.589 53.394ZM531.278 58V57.342C531.791 56.754 532.281 56.1987 532.748 55.676C533.214 55.144 533.644 54.626 534.036 54.122C534.269 53.8327 534.47 53.5667 534.638 53.324C534.815 53.0813 534.964 52.848 535.086 52.624C535.207 52.4 535.296 52.1807 535.352 51.966C535.417 51.7513 535.45 51.5227 535.45 51.28C535.45 50.748 535.31 50.3467 535.03 50.076C534.759 49.8053 534.4 49.67 533.952 49.67C533.102 49.67 532.407 50.132 531.866 51.056L530.984 50.538C531.31 49.9407 531.721 49.4787 532.216 49.152C532.71 48.8253 533.312 48.662 534.022 48.662C534.423 48.662 534.782 48.7227 535.1 48.844C535.426 48.9653 535.702 49.138 535.926 49.362C536.159 49.5767 536.336 49.838 536.458 50.146C536.588 50.4447 536.654 50.776 536.654 51.14C536.654 51.7467 536.504 52.316 536.206 52.848C535.916 53.3707 535.562 53.8887 535.142 54.402C534.768 54.8687 534.386 55.3213 533.994 55.76C533.611 56.1893 533.224 56.6187 532.832 57.048H536.892V58H531.278ZM539.202 55.942C539.445 56.3713 539.743 56.6793 540.098 56.866C540.462 57.0527 540.831 57.146 541.204 57.146C541.456 57.146 541.699 57.1133 541.932 57.048C542.175 56.9733 542.385 56.866 542.562 56.726C542.749 56.586 542.893 56.4087 542.996 56.194C543.108 55.9793 543.164 55.7227 543.164 55.424C543.164 55.1347 543.108 54.8827 542.996 54.668C542.884 54.444 542.735 54.262 542.548 54.122C542.371 53.9727 542.156 53.8607 541.904 53.786C541.661 53.7113 541.409 53.6647 541.148 53.646V52.806C541.381 52.7873 541.61 52.7407 541.834 52.666C542.058 52.5913 542.259 52.4887 542.436 52.358C542.613 52.218 542.753 52.05 542.856 51.854C542.968 51.658 543.024 51.4293 543.024 51.168C543.024 50.6827 542.875 50.314 542.576 50.062C542.287 49.8007 541.876 49.67 541.344 49.67C540.924 49.67 540.551 49.7773 540.224 49.992C539.907 50.2067 539.659 50.4913 539.482 50.846L538.6 50.3C538.871 49.768 539.263 49.362 539.776 49.082C540.289 48.802 540.84 48.662 541.428 48.662C541.82 48.662 542.184 48.718 542.52 48.83C542.865 48.942 543.159 49.1053 543.402 49.32C543.645 49.5253 543.836 49.7773 543.976 50.076C544.116 50.3747 544.186 50.7107 544.186 51.084C544.186 51.6253 544.055 52.064 543.794 52.4C543.542 52.7267 543.22 52.988 542.828 53.184C543.033 53.268 543.225 53.3707 543.402 53.492C543.589 53.6133 543.752 53.7627 543.892 53.94C544.032 54.108 544.139 54.3133 544.214 54.556C544.298 54.7987 544.34 55.0833 544.34 55.41C544.34 55.858 544.251 56.2547 544.074 56.6C543.897 56.936 543.663 57.2207 543.374 57.454C543.085 57.678 542.753 57.8507 542.38 57.972C542.007 58.0933 541.624 58.154 541.232 58.154C540.943 58.154 540.658 58.1213 540.378 58.056C540.098 57.9907 539.827 57.888 539.566 57.748C539.314 57.608 539.081 57.4353 538.866 57.23C538.651 57.0153 538.469 56.768 538.32 56.488L539.202 55.942ZM557.673 58V50.09L555.573 51.434L555.027 50.664L557.827 48.816H558.807V58H557.673ZM562.531 58V57.342C563.045 56.754 563.535 56.1987 564.001 55.676C564.468 55.144 564.897 54.626 565.289 54.122C565.523 53.8327 565.723 53.5667 565.891 53.324C566.069 53.0813 566.218 52.848 566.339 52.624C566.461 52.4 566.549 52.1807 566.605 51.966C566.671 51.7513 566.703 51.5227 566.703 51.28C566.703 50.748 566.563 50.3467 566.283 50.076C566.013 49.8053 565.653 49.67 565.205 49.67C564.356 49.67 563.661 50.132 563.119 51.056L562.237 50.538C562.564 49.9407 562.975 49.4787 563.469 49.152C563.964 48.8253 564.566 48.662 565.275 48.662C565.677 48.662 566.036 48.7227 566.353 48.844C566.68 48.9653 566.955 49.138 567.179 49.362C567.413 49.5767 567.59 49.838 567.711 50.146C567.842 50.4447 567.907 50.776 567.907 51.14C567.907 51.7467 567.758 52.316 567.459 52.848C567.17 53.3707 566.815 53.8887 566.395 54.402C566.022 54.8687 565.639 55.3213 565.247 55.76C564.865 56.1893 564.477 56.6187 564.085 57.048H568.145V58H562.531ZM570.428 58.154C570.213 58.154 570.031 58.0747 569.882 57.916C569.742 57.748 569.672 57.5473 569.672 57.314C569.672 57.0807 569.742 56.8847 569.882 56.726C570.031 56.558 570.213 56.474 570.428 56.474C570.643 56.474 570.82 56.558 570.96 56.726C571.109 56.8847 571.184 57.0807 571.184 57.314C571.184 57.5473 571.109 57.748 570.96 57.916C570.82 58.0747 570.643 58.154 570.428 58.154ZM570.428 53.016C570.213 53.016 570.031 52.9367 569.882 52.778C569.742 52.61 569.672 52.4093 569.672 52.176C569.672 51.9427 569.742 51.7467 569.882 51.588C570.031 51.42 570.213 51.336 570.428 51.336C570.643 51.336 570.82 51.42 570.96 51.588C571.109 51.7467 571.184 51.9427 571.184 52.176C571.184 52.4093 571.109 52.61 570.96 52.778C570.82 52.9367 570.643 53.016 570.428 53.016ZM572.867 58V57.342C573.381 56.754 573.871 56.1987 574.337 55.676C574.804 55.144 575.233 54.626 575.625 54.122C575.859 53.8327 576.059 53.5667 576.227 53.324C576.405 53.0813 576.554 52.848 576.675 52.624C576.797 52.4 576.885 52.1807 576.941 51.966C577.007 51.7513 577.039 51.5227 577.039 51.28C577.039 50.748 576.899 50.3467 576.619 50.076C576.349 49.8053 575.989 49.67 575.541 49.67C574.692 49.67 573.997 50.132 573.455 51.056L572.573 50.538C572.9 49.9407 573.311 49.4787 573.805 49.152C574.3 48.8253 574.902 48.662 575.611 48.662C576.013 48.662 576.372 48.7227 576.689 48.844C577.016 48.9653 577.291 49.138 577.515 49.362C577.749 49.5767 577.926 49.838 578.047 50.146C578.178 50.4447 578.243 50.776 578.243 51.14C578.243 51.7467 578.094 52.316 577.795 52.848C577.506 53.3707 577.151 53.8887 576.731 54.402C576.358 54.8687 575.975 55.3213 575.583 55.76C575.201 56.1893 574.813 56.6187 574.421 57.048H578.481V58H572.867ZM579.924 55.13V54.136L584.516 48.816H585.23V54.192H586.238V55.13H585.23V58H584.18V55.13H579.924ZM581.114 54.192H584.18V50.692L581.114 54.192ZM588.87 51.238L588.968 51.812C589.258 51.5787 589.561 51.4107 589.878 51.308C590.205 51.2053 590.546 51.154 590.9 51.154C591.395 51.154 591.815 51.2473 592.16 51.434C592.506 51.6207 592.786 51.8727 593 52.19C593.224 52.5073 593.383 52.876 593.476 53.296C593.579 53.7067 593.63 54.136 593.63 54.584C593.63 55.1253 593.546 55.6153 593.378 56.054C593.21 56.4927 592.977 56.8707 592.678 57.188C592.389 57.496 592.039 57.734 591.628 57.902C591.218 58.07 590.774 58.154 590.298 58.154C589.757 58.154 589.318 58.0793 588.982 57.93V60.646H587.904V51.406L588.87 51.238ZM588.982 56.992C589.085 57.0667 589.234 57.1367 589.43 57.202C589.626 57.258 589.846 57.286 590.088 57.286C590.443 57.286 590.77 57.2253 591.068 57.104C591.376 56.9827 591.638 56.81 591.852 56.586C592.076 56.362 592.249 56.0867 592.37 55.76C592.492 55.424 592.552 55.046 592.552 54.626C592.552 54.318 592.52 54.01 592.454 53.702C592.389 53.3847 592.282 53.1047 592.132 52.862C591.983 52.61 591.782 52.4093 591.53 52.26C591.288 52.1013 590.984 52.022 590.62 52.022C590.322 52.022 590.032 52.0873 589.752 52.218C589.472 52.3487 589.216 52.5213 588.982 52.736V56.992ZM603.856 58V53.828C603.856 53.268 603.749 52.834 603.534 52.526C603.32 52.2087 602.928 52.05 602.358 52.05C602.172 52.05 601.985 52.078 601.798 52.134C601.612 52.1807 601.434 52.2413 601.266 52.316C601.108 52.3907 600.958 52.47 600.818 52.554C600.688 52.638 600.576 52.7173 600.482 52.792C600.529 52.9507 600.562 53.1187 600.58 53.296C600.608 53.464 600.622 53.688 600.622 53.968V58H599.544V53.828C599.544 53.5853 599.521 53.3567 599.474 53.142C599.437 52.9273 599.362 52.7407 599.25 52.582C599.148 52.414 599.008 52.2833 598.83 52.19C598.653 52.0967 598.424 52.05 598.144 52.05C597.818 52.05 597.491 52.134 597.164 52.302C596.847 52.4607 596.567 52.624 596.324 52.792V58H595.246V51.406L596.226 51.238L596.31 51.854C596.534 51.6953 596.824 51.5413 597.178 51.392C597.533 51.2333 597.92 51.154 598.34 51.154C598.695 51.154 599.036 51.2147 599.362 51.336C599.698 51.4573 599.978 51.6813 600.202 52.008C600.482 51.7747 600.823 51.574 601.224 51.406C601.626 51.238 602.064 51.154 602.54 51.154C603.007 51.154 603.394 51.2193 603.702 51.35C604.02 51.4713 604.267 51.6533 604.444 51.896C604.631 52.1293 604.762 52.4233 604.836 52.778C604.911 53.1233 604.948 53.52 604.948 53.968V58H603.856Z" fill="#98A2B3"/>
<path d="M549.131 59.036V47.668H550.139V59.036H549.131Z" fill="#F0F2F5"/>
<circle cx="614" cy="53" r="2" fill="#98A2B3"/>
<path d="M626.106 58V50.09L624.006 51.434L623.46 50.664L626.26 48.816H627.24V58H626.106ZM631.329 55.942C631.572 56.3713 631.87 56.6793 632.225 56.866C632.589 57.0527 632.958 57.146 633.331 57.146C633.583 57.146 633.826 57.1133 634.059 57.048C634.302 56.9733 634.512 56.866 634.689 56.726C634.876 56.586 635.02 56.4087 635.123 56.194C635.235 55.9793 635.291 55.7227 635.291 55.424C635.291 55.1347 635.235 54.8827 635.123 54.668C635.011 54.444 634.862 54.262 634.675 54.122C634.498 53.9727 634.283 53.8607 634.031 53.786C633.788 53.7113 633.536 53.6647 633.275 53.646V52.806C633.508 52.7873 633.737 52.7407 633.961 52.666C634.185 52.5913 634.386 52.4887 634.563 52.358C634.74 52.218 634.88 52.05 634.983 51.854C635.095 51.658 635.151 51.4293 635.151 51.168C635.151 50.6827 635.002 50.314 634.703 50.062C634.414 49.8007 634.003 49.67 633.471 49.67C633.051 49.67 632.678 49.7773 632.351 49.992C632.034 50.2067 631.786 50.4913 631.609 50.846L630.727 50.3C630.998 49.768 631.39 49.362 631.903 49.082C632.416 48.802 632.967 48.662 633.555 48.662C633.947 48.662 634.311 48.718 634.647 48.83C634.992 48.942 635.286 49.1053 635.529 49.32C635.772 49.5253 635.963 49.7773 636.103 50.076C636.243 50.3747 636.313 50.7107 636.313 51.084C636.313 51.6253 636.182 52.064 635.921 52.4C635.669 52.7267 635.347 52.988 634.955 53.184C635.16 53.268 635.352 53.3707 635.529 53.492C635.716 53.6133 635.879 53.7627 636.019 53.94C636.159 54.108 636.266 54.3133 636.341 54.556C636.425 54.7987 636.467 55.0833 636.467 55.41C636.467 55.858 636.378 56.2547 636.201 56.6C636.024 56.936 635.79 57.2207 635.501 57.454C635.212 57.678 634.88 57.8507 634.507 57.972C634.134 58.0933 633.751 58.154 633.359 58.154C633.07 58.154 632.785 58.1213 632.505 58.056C632.225 57.9907 631.954 57.888 631.693 57.748C631.441 57.608 631.208 57.4353 630.993 57.23C630.778 57.0153 630.596 56.768 630.447 56.488L631.329 55.942ZM638.61 58V48.662H639.926L642.642 55.872L645.442 48.662H646.744V58H645.666V50.874L642.768 58.154H642.544L639.702 50.888V58H638.61ZM649.014 58V48.662H651.8C652.761 48.662 653.494 48.8767 653.998 49.306C654.502 49.7353 654.754 50.314 654.754 51.042C654.754 51.6393 654.577 52.1013 654.222 52.428C653.867 52.7453 653.41 52.9507 652.85 53.044C653.13 53.072 653.41 53.1327 653.69 53.226C653.97 53.31 654.222 53.4453 654.446 53.632C654.679 53.8187 654.866 54.0567 655.006 54.346C655.155 54.626 655.23 54.976 655.23 55.396C655.23 55.7973 655.155 56.1613 655.006 56.488C654.866 56.8053 654.67 57.076 654.418 57.3C654.166 57.524 653.867 57.6967 653.522 57.818C653.177 57.9393 652.799 58 652.388 58H649.014ZM650.134 52.624H651.702C652.29 52.624 652.747 52.4887 653.074 52.218C653.41 51.938 653.578 51.546 653.578 51.042C653.578 50.5847 653.429 50.2347 653.13 49.992C652.841 49.7493 652.411 49.628 651.842 49.628H650.134V52.624ZM650.134 57.034H652.29C652.822 57.034 653.247 56.9033 653.564 56.642C653.881 56.3713 654.04 55.956 654.04 55.396C654.04 54.7987 653.844 54.3507 653.452 54.052C653.069 53.744 652.5 53.59 651.744 53.59H650.134V57.034Z" fill="#98A2B3"/>
<path d="M783.49 42.9942L778.824 47.6609C778.368 48.1165 777.629 48.1165 777.174 47.6609L772.507 42.9942C772.051 42.5386 772.051 41.7999 772.507 41.3443C772.963 40.8887 773.701 40.8887 774.157 41.3443L776.832 44.0194V30.5026C776.832 29.8583 777.354 29.3359 777.999 29.3359C778.643 29.3359 779.165 29.8583 779.165 30.5026V44.0194L781.84 41.3443C782.296 40.8887 783.035 40.8887 783.49 41.3443C783.946 41.7999 783.946 42.5386 783.49 42.9942Z" fill="#D42620"/>
<path d="M768.665 47.4193C768.665 46.7749 768.143 46.2526 767.499 46.2526C766.854 46.2526 766.332 46.7749 766.332 47.4193V49.1693C766.332 51.7466 768.421 53.8359 770.999 53.8359H784.999C787.576 53.8359 789.665 51.7466 789.665 49.1693V47.4193C789.665 46.7749 789.143 46.2526 788.499 46.2526C787.854 46.2526 787.332 46.7749 787.332 47.4193V49.1693C787.332 50.4579 786.287 51.5026 784.999 51.5026H770.999C769.71 51.5026 768.665 50.4579 768.665 49.1693V47.4193Z" fill="#D42620"/>
<rect x="4" y="14" width="394" height="56" rx="8" fill="white"/>
<circle cx="32" cy="42" r="24" fill="#F0F2F5"/>
<path d="M26 39.5C26 36.4624 28.4624 34 31.5 34C34.1907 34 36.432 35.9332 36.907 38.4867C36.9736 38.8448 37.2297 39.1383 37.5754 39.2529C39.5661 39.9132 41 41.7905 41 44C41 46.7614 38.7614 49 36 49C35.4477 49 35 49.4477 35 50C35 50.5523 35.4477 51 36 51C39.866 51 43 47.866 43 44C43 41.1075 41.2462 38.627 38.7463 37.5596C37.8909 34.358 34.9717 32 31.5 32C27.3579 32 24 35.3579 24 39.5C24 39.6003 24.002 39.7001 24.0059 39.7996C22.2105 40.8354 21 42.7754 21 45C21 48.3137 23.6863 51 27 51C27.5523 51 28 50.5523 28 50C28 49.4477 27.5523 49 27 49C24.7909 49 23 47.2091 23 45C23 43.3427 24.0082 41.9185 25.4487 41.3117C25.8655 41.1361 26.1126 40.7026 26.0512 40.2544C26.0175 40.0083 26 39.7564 26 39.5Z" fill="#667185"/>
<path d="M31.3356 44.2526C31.7145 43.9158 32.2855 43.9158 32.6644 44.2526L34.1644 45.5859C34.5771 45.9528 34.6143 46.5849 34.2474 46.9977C33.9264 47.3588 33.4025 47.4325 33 47.1996V52C33 52.5523 32.5523 53 32 53C31.4477 53 31 52.5523 31 52V47.1996C30.5975 47.4325 30.0736 47.3588 29.7526 46.9977C29.3857 46.5849 29.4229 45.9528 29.8356 45.5859L31.3356 44.2526Z" fill="#667185"/>
<path d="M80.55 33.138C80.13 33.8847 79.654 34.4167 79.122 34.734C78.59 35.042 77.9414 35.196 77.176 35.196C76.56 35.196 75.9954 35.0887 75.482 34.874C74.9687 34.6593 74.5254 34.3467 74.152 33.936C73.788 33.516 73.5034 33.0073 73.298 32.41C73.102 31.8127 73.004 31.1313 73.004 30.366C73.004 29.526 73.116 28.8027 73.34 28.196C73.5734 27.58 73.8767 27.0713 74.25 26.67C74.6327 26.2593 75.0714 25.956 75.566 25.76C76.07 25.564 76.588 25.466 77.12 25.466C77.988 25.466 78.688 25.6573 79.22 26.04C79.752 26.4133 80.1767 26.95 80.494 27.65L78.968 28.49C78.8094 28.0793 78.59 27.748 78.31 27.496C78.03 27.244 77.6474 27.118 77.162 27.118C76.8727 27.118 76.5927 27.1833 76.322 27.314C76.0514 27.4447 75.8134 27.6453 75.608 27.916C75.4027 28.1867 75.2347 28.5273 75.104 28.938C74.9827 29.3393 74.922 29.8153 74.922 30.366C74.922 30.8513 74.978 31.29 75.09 31.682C75.2114 32.074 75.3747 32.4053 75.58 32.676C75.7947 32.9467 76.042 33.1567 76.322 33.306C76.6114 33.4553 76.9194 33.53 77.246 33.53C77.666 33.53 78.0207 33.4367 78.31 33.25C78.6087 33.054 78.8654 32.718 79.08 32.242L80.55 33.138ZM81.8016 35V25.746L83.6356 25.466V28.7C83.8596 28.532 84.1256 28.3873 84.4336 28.266C84.7416 28.1447 85.1196 28.084 85.5676 28.084C86.0156 28.084 86.3983 28.154 86.7156 28.294C87.0423 28.4247 87.3036 28.616 87.4996 28.868C87.7049 29.12 87.8543 29.428 87.9476 29.792C88.0503 30.1467 88.1016 30.548 88.1016 30.996V35H86.2676V31.122C86.2676 30.8793 86.2536 30.66 86.2256 30.464C86.1976 30.268 86.1416 30.1047 86.0576 29.974C85.9829 29.834 85.8709 29.7267 85.7216 29.652C85.5723 29.5773 85.3763 29.54 85.1336 29.54C84.8629 29.54 84.5923 29.6053 84.3216 29.736C84.0603 29.8667 83.8316 30.0207 83.6356 30.198V35H81.8016ZM92.8637 35.154C92.2943 35.154 91.795 35.0513 91.3657 34.846C90.9457 34.6407 90.591 34.37 90.3017 34.034C90.0217 33.698 89.8117 33.32 89.6717 32.9C89.5317 32.4707 89.4617 32.0367 89.4617 31.598C89.4617 31.1593 89.5317 30.73 89.6717 30.31C89.8117 29.89 90.0217 29.5167 90.3017 29.19C90.591 28.854 90.9457 28.588 91.3657 28.392C91.795 28.1867 92.2943 28.084 92.8637 28.084C93.433 28.084 93.9277 28.1867 94.3477 28.392C94.777 28.588 95.1317 28.854 95.4117 29.19C95.701 29.5167 95.9157 29.89 96.0557 30.31C96.1957 30.73 96.2657 31.1593 96.2657 31.598C96.2657 32.0367 96.1957 32.4707 96.0557 32.9C95.9157 33.32 95.701 33.698 95.4117 34.034C95.1317 34.37 94.777 34.6407 94.3477 34.846C93.9277 35.0513 93.433 35.154 92.8637 35.154ZM91.2537 31.598C91.2537 31.8873 91.2863 32.158 91.3517 32.41C91.4263 32.6527 91.529 32.8673 91.6597 33.054C91.7997 33.2407 91.9677 33.39 92.1637 33.502C92.369 33.6047 92.6023 33.656 92.8637 33.656C93.125 33.656 93.3537 33.6047 93.5497 33.502C93.755 33.39 93.923 33.2407 94.0537 33.054C94.1937 32.8673 94.2963 32.6527 94.3617 32.41C94.4363 32.158 94.4737 31.8873 94.4737 31.598C94.4737 31.318 94.4363 31.052 94.3617 30.8C94.2963 30.548 94.1937 30.3333 94.0537 30.156C93.923 29.9693 93.755 29.8247 93.5497 29.722C93.3537 29.61 93.125 29.554 92.8637 29.554C92.6023 29.554 92.369 29.61 92.1637 29.722C91.9677 29.8247 91.7997 29.9693 91.6597 30.156C91.529 30.3333 91.4263 30.548 91.3517 30.8C91.2863 31.052 91.2537 31.318 91.2537 31.598ZM100.643 35.154C100.074 35.154 99.5743 35.0513 99.145 34.846C98.725 34.6407 98.3703 34.37 98.081 34.034C97.801 33.698 97.591 33.32 97.451 32.9C97.311 32.4707 97.241 32.0367 97.241 31.598C97.241 31.1593 97.311 30.73 97.451 30.31C97.591 29.89 97.801 29.5167 98.081 29.19C98.3703 28.854 98.725 28.588 99.145 28.392C99.5743 28.1867 100.074 28.084 100.643 28.084C101.212 28.084 101.707 28.1867 102.127 28.392C102.556 28.588 102.911 28.854 103.191 29.19C103.48 29.5167 103.695 29.89 103.835 30.31C103.975 30.73 104.045 31.1593 104.045 31.598C104.045 32.0367 103.975 32.4707 103.835 32.9C103.695 33.32 103.48 33.698 103.191 34.034C102.911 34.37 102.556 34.6407 102.127 34.846C101.707 35.0513 101.212 35.154 100.643 35.154ZM99.033 31.598C99.033 31.8873 99.0656 32.158 99.131 32.41C99.2056 32.6527 99.3083 32.8673 99.439 33.054C99.579 33.2407 99.747 33.39 99.943 33.502C100.148 33.6047 100.382 33.656 100.643 33.656C100.904 33.656 101.133 33.6047 101.329 33.502C101.534 33.39 101.702 33.2407 101.833 33.054C101.973 32.8673 102.076 32.6527 102.141 32.41C102.216 32.158 102.253 31.8873 102.253 31.598C102.253 31.318 102.216 31.052 102.141 30.8C102.076 30.548 101.973 30.3333 101.833 30.156C101.702 29.9693 101.534 29.8247 101.329 29.722C101.133 29.61 100.904 29.554 100.643 29.554C100.382 29.554 100.148 29.61 99.943 29.722C99.747 29.8247 99.579 29.9693 99.439 30.156C99.3083 30.3333 99.2056 30.548 99.131 30.8C99.0656 31.052 99.033 31.318 99.033 31.598ZM106.294 32.732C106.453 33.0307 106.677 33.2827 106.966 33.488C107.256 33.684 107.638 33.782 108.114 33.782C108.852 33.782 109.22 33.5627 109.22 33.124C109.22 33.0307 109.197 32.942 109.15 32.858C109.113 32.774 109.034 32.6947 108.912 32.62C108.791 32.5453 108.628 32.4753 108.422 32.41C108.217 32.3447 107.956 32.2793 107.638 32.214C107.284 32.1393 106.957 32.0507 106.658 31.948C106.369 31.836 106.122 31.7007 105.916 31.542C105.711 31.374 105.552 31.178 105.44 30.954C105.328 30.7207 105.272 30.4407 105.272 30.114C105.272 29.8153 105.338 29.5447 105.468 29.302C105.599 29.05 105.781 28.8353 106.014 28.658C106.257 28.4713 106.551 28.3313 106.896 28.238C107.242 28.1353 107.624 28.084 108.044 28.084C108.81 28.084 109.416 28.21 109.864 28.462C110.312 28.7047 110.658 29.0033 110.9 29.358L109.612 30.24C109.444 30.016 109.23 29.8293 108.968 29.68C108.707 29.5307 108.399 29.456 108.044 29.456C107.662 29.456 107.391 29.5167 107.232 29.638C107.083 29.75 107.008 29.8993 107.008 30.086C107.008 30.3007 107.102 30.4547 107.288 30.548C107.475 30.6413 107.82 30.7393 108.324 30.842C108.735 30.926 109.099 31.0287 109.416 31.15C109.743 31.262 110.018 31.402 110.242 31.57C110.466 31.738 110.634 31.9433 110.746 32.186C110.868 32.4193 110.928 32.704 110.928 33.04C110.928 33.404 110.854 33.7213 110.704 33.992C110.555 34.2533 110.35 34.4727 110.088 34.65C109.827 34.818 109.519 34.944 109.164 35.028C108.81 35.112 108.432 35.154 108.03 35.154C107.228 35.154 106.574 35.0047 106.07 34.706C105.576 34.398 105.198 34.0153 104.936 33.558L106.294 32.732ZM113.649 32.06C113.677 32.34 113.738 32.5827 113.831 32.788C113.925 32.9933 114.041 33.1613 114.181 33.292C114.321 33.4227 114.475 33.5207 114.643 33.586C114.821 33.642 115.003 33.67 115.189 33.67C115.516 33.67 115.81 33.614 116.071 33.502C116.333 33.3807 116.603 33.124 116.883 32.732L118.241 33.558C117.849 34.146 117.401 34.5613 116.897 34.804C116.403 35.0373 115.815 35.154 115.133 35.154C114.685 35.154 114.261 35.084 113.859 34.944C113.458 34.804 113.103 34.5893 112.795 34.3C112.497 34.0013 112.259 33.6327 112.081 33.194C111.904 32.7553 111.815 32.2327 111.815 31.626C111.815 31.0567 111.899 30.5527 112.067 30.114C112.245 29.6753 112.483 29.3067 112.781 29.008C113.08 28.7093 113.425 28.4807 113.817 28.322C114.219 28.1633 114.643 28.084 115.091 28.084C116.034 28.084 116.79 28.4153 117.359 29.078C117.938 29.7313 118.237 30.7253 118.255 32.06H113.649ZM116.393 30.814C116.375 30.59 116.323 30.394 116.239 30.226C116.165 30.058 116.067 29.918 115.945 29.806C115.824 29.694 115.689 29.61 115.539 29.554C115.39 29.498 115.241 29.47 115.091 29.47C114.774 29.47 114.475 29.5913 114.195 29.834C113.915 30.0673 113.747 30.394 113.691 30.814H116.393ZM126.131 35L126.047 34.496C125.851 34.7013 125.599 34.8647 125.291 34.986C124.993 35.098 124.661 35.154 124.297 35.154C123.999 35.154 123.705 35.1027 123.415 35C123.135 34.9067 122.888 34.7713 122.673 34.594C122.459 34.4073 122.286 34.1833 122.155 33.922C122.025 33.6513 121.959 33.348 121.959 33.012C121.959 32.5173 122.09 32.1207 122.351 31.822C122.622 31.514 122.958 31.276 123.359 31.108C123.761 30.94 124.195 30.8233 124.661 30.758C125.128 30.6927 125.562 30.646 125.963 30.618V30.394C125.963 30.114 125.879 29.8947 125.711 29.736C125.553 29.568 125.31 29.484 124.983 29.484C124.722 29.484 124.484 29.54 124.269 29.652C124.064 29.7547 123.882 29.8993 123.723 30.086L122.477 29.218C122.655 28.994 122.855 28.8073 123.079 28.658C123.313 28.5087 123.546 28.392 123.779 28.308C124.022 28.224 124.26 28.168 124.493 28.14C124.727 28.1027 124.941 28.084 125.137 28.084C125.529 28.084 125.889 28.1353 126.215 28.238C126.542 28.3313 126.822 28.4853 127.055 28.7C127.298 28.9053 127.485 29.1713 127.615 29.498C127.746 29.8153 127.811 30.2027 127.811 30.66V35H126.131ZM125.977 31.85C125.716 31.8687 125.45 31.892 125.179 31.92C124.918 31.948 124.68 31.9993 124.465 32.074C124.251 32.1487 124.073 32.2607 123.933 32.41C123.803 32.55 123.737 32.7367 123.737 32.97C123.737 33.194 123.821 33.376 123.989 33.516C124.157 33.6467 124.405 33.712 124.731 33.712C124.965 33.712 125.189 33.6653 125.403 33.572C125.627 33.4787 125.819 33.362 125.977 33.222V31.85ZM132.556 35V25.662H138.912V27.356H134.446V29.568H138.002V31.234H134.446V35H132.556ZM140.803 27.482C140.439 27.482 140.164 27.3793 139.977 27.174C139.8 26.9687 139.711 26.74 139.711 26.488C139.711 26.2453 139.8 26.0213 139.977 25.816C140.164 25.6107 140.439 25.508 140.803 25.508C141.167 25.508 141.438 25.6107 141.615 25.816C141.802 26.0213 141.895 26.2453 141.895 26.488C141.895 26.74 141.802 26.9687 141.615 27.174C141.438 27.3793 141.167 27.482 140.803 27.482ZM139.893 35V28.434L141.713 28.154V35H139.893ZM143.53 35V25.746L145.364 25.466V35H143.53ZM148.595 32.06C148.623 32.34 148.683 32.5827 148.777 32.788C148.87 32.9933 148.987 33.1613 149.127 33.292C149.267 33.4227 149.421 33.5207 149.589 33.586C149.766 33.642 149.948 33.67 150.135 33.67C150.461 33.67 150.755 33.614 151.017 33.502C151.278 33.3807 151.549 33.124 151.829 32.732L153.187 33.558C152.795 34.146 152.347 34.5613 151.843 34.804C151.348 35.0373 150.76 35.154 150.079 35.154C149.631 35.154 149.206 35.084 148.805 34.944C148.403 34.804 148.049 34.5893 147.741 34.3C147.442 34.0013 147.204 33.6327 147.027 33.194C146.849 32.7553 146.761 32.2327 146.761 31.626C146.761 31.0567 146.845 30.5527 147.013 30.114C147.19 29.6753 147.428 29.3067 147.727 29.008C148.025 28.7093 148.371 28.4807 148.763 28.322C149.164 28.1633 149.589 28.084 150.037 28.084C150.979 28.084 151.735 28.4153 152.305 29.078C152.883 29.7313 153.182 30.7253 153.201 32.06H148.595ZM151.339 30.814C151.32 30.59 151.269 30.394 151.185 30.226C151.11 30.058 151.012 29.918 150.891 29.806C150.769 29.694 150.634 29.61 150.485 29.554C150.335 29.498 150.186 29.47 150.037 29.47C149.719 29.47 149.421 29.5913 149.141 29.834C148.861 30.0673 148.693 30.394 148.637 30.814H151.339Z" fill="black"/>
<path d="M73.5188 59V49.662H76.4308C77.5041 49.662 78.2974 49.9 78.8108 50.376C79.3334 50.852 79.5948 51.5567 79.5948 52.49C79.5948 53.3953 79.3194 54.0813 78.7688 54.548C78.2274 55.0147 77.4341 55.248 76.3888 55.248H74.6388V59H73.5188ZM74.6388 54.268H76.4728C77.0421 54.268 77.5041 54.128 77.8588 53.848C78.2134 53.568 78.3908 53.106 78.3908 52.462C78.3908 51.818 78.2228 51.3513 77.8868 51.062C77.5508 50.7727 77.0748 50.628 76.4588 50.628H74.6388V54.268ZM88.064 54.198C88.064 54.8513 87.9893 55.4393 87.84 55.962C87.6907 56.4753 87.4807 56.9233 87.21 57.306C86.9487 57.6887 86.636 58.006 86.272 58.258C85.908 58.51 85.516 58.6967 85.096 58.818C84.8813 58.8833 84.6247 58.93 84.326 58.958C84.0367 58.986 83.7753 59 83.542 59H81.134V49.662H83.542C83.906 49.662 84.284 49.6947 84.676 49.76C85.068 49.816 85.432 49.9233 85.768 50.082C86.104 50.2407 86.412 50.446 86.692 50.698C86.972 50.9407 87.21 51.2347 87.406 51.58C87.6113 51.9253 87.77 52.3173 87.882 52.756C88.0033 53.1853 88.064 53.666 88.064 54.198ZM86.874 54.254C86.874 53.442 86.748 52.7887 86.496 52.294C86.2533 51.7993 85.9173 51.412 85.488 51.132C85.2173 50.9547 84.8953 50.8287 84.522 50.754C84.158 50.67 83.8033 50.628 83.458 50.628H82.254V58.034H83.402C83.6073 58.034 83.8407 58.0247 84.102 58.006C84.3633 57.9873 84.6013 57.9313 84.816 57.838C85.096 57.726 85.362 57.572 85.614 57.376C85.866 57.18 86.0853 56.9373 86.272 56.648C86.4587 56.3587 86.6033 56.018 86.706 55.626C86.818 55.234 86.874 54.7767 86.874 54.254ZM89.884 59V49.662H95.176V50.628H91.004V53.778H94.084V54.744H90.99V59H89.884ZM99.2659 59V53.204H98.2859V52.322H99.2799V51.832C99.2799 51.4027 99.3265 51.0387 99.4199 50.74C99.5225 50.4413 99.6625 50.1987 99.8399 50.012C100.017 49.8253 100.227 49.69 100.47 49.606C100.713 49.522 100.983 49.48 101.282 49.48C101.637 49.48 101.935 49.5173 102.178 49.592C102.43 49.6573 102.649 49.7413 102.836 49.844L102.514 50.67C102.355 50.5953 102.178 50.53 101.982 50.474C101.795 50.4087 101.581 50.376 101.338 50.376C101.179 50.376 101.039 50.3947 100.918 50.432C100.797 50.4693 100.694 50.544 100.61 50.656C100.526 50.7587 100.461 50.908 100.414 51.104C100.367 51.2907 100.344 51.538 100.344 51.846V52.322H102.024L101.87 53.204H100.358V59H99.2659ZM108.694 55.654C108.694 56.0927 108.629 56.522 108.498 56.942C108.367 57.362 108.171 57.7353 107.91 58.062C107.658 58.3887 107.336 58.6547 106.944 58.86C106.552 59.056 106.099 59.154 105.586 59.154C105.073 59.154 104.62 59.056 104.228 58.86C103.845 58.6547 103.523 58.3887 103.262 58.062C103.001 57.726 102.805 57.348 102.674 56.928C102.543 56.4987 102.478 56.0647 102.478 55.626C102.478 55.1873 102.539 54.7627 102.66 54.352C102.791 53.932 102.987 53.5587 103.248 53.232C103.509 52.9053 103.831 52.644 104.214 52.448C104.606 52.252 105.063 52.154 105.586 52.154C106.099 52.154 106.552 52.2567 106.944 52.462C107.336 52.658 107.658 52.9193 107.91 53.246C108.171 53.5727 108.367 53.946 108.498 54.366C108.629 54.786 108.694 55.2153 108.694 55.654ZM107.644 55.64C107.644 55.3133 107.602 54.9913 107.518 54.674C107.434 54.3567 107.303 54.0767 107.126 53.834C106.958 53.582 106.743 53.3813 106.482 53.232C106.23 53.0827 105.931 53.008 105.586 53.008C105.241 53.008 104.937 53.0827 104.676 53.232C104.424 53.3813 104.214 53.582 104.046 53.834C103.878 54.0767 103.752 54.3567 103.668 54.674C103.584 54.982 103.542 55.2993 103.542 55.626C103.542 55.962 103.584 56.2887 103.668 56.606C103.752 56.9233 103.878 57.208 104.046 57.46C104.223 57.7027 104.438 57.9033 104.69 58.062C104.951 58.2113 105.25 58.286 105.586 58.286C105.931 58.286 106.23 58.2113 106.482 58.062C106.743 57.9033 106.958 57.7027 107.126 57.46C107.303 57.208 107.434 56.9233 107.518 56.606C107.602 56.2887 107.644 55.9667 107.644 55.64ZM110.306 59V52.406L111.272 52.238L111.37 52.91C111.547 52.7233 111.776 52.5507 112.056 52.392C112.336 52.2333 112.621 52.154 112.91 52.154C113.115 52.154 113.302 52.168 113.47 52.196C113.647 52.224 113.783 52.252 113.876 52.28L113.68 53.274C113.428 53.1713 113.134 53.12 112.798 53.12C112.527 53.12 112.266 53.1947 112.014 53.344C111.771 53.4933 111.561 53.6473 111.384 53.806V59H110.306ZM123.428 59V54.828C123.428 54.268 123.32 53.834 123.106 53.526C122.891 53.2087 122.499 53.05 121.93 53.05C121.743 53.05 121.556 53.078 121.37 53.134C121.183 53.1807 121.006 53.2413 120.838 53.316C120.679 53.3907 120.53 53.47 120.39 53.554C120.259 53.638 120.147 53.7173 120.054 53.792C120.1 53.9507 120.133 54.1187 120.152 54.296C120.18 54.464 120.194 54.688 120.194 54.968V59H119.116V54.828C119.116 54.5853 119.092 54.3567 119.046 54.142C119.008 53.9273 118.934 53.7407 118.822 53.582C118.719 53.414 118.579 53.2833 118.402 53.19C118.224 53.0967 117.996 53.05 117.716 53.05C117.389 53.05 117.062 53.134 116.736 53.302C116.418 53.4607 116.138 53.624 115.896 53.792V59H114.818V52.406L115.798 52.238L115.882 52.854C116.106 52.6953 116.395 52.5413 116.75 52.392C117.104 52.2333 117.492 52.154 117.912 52.154C118.266 52.154 118.607 52.2147 118.934 52.336C119.27 52.4573 119.55 52.6813 119.774 53.008C120.054 52.7747 120.394 52.574 120.796 52.406C121.197 52.238 121.636 52.154 122.112 52.154C122.578 52.154 122.966 52.2193 123.274 52.35C123.591 52.4713 123.838 52.6533 124.016 52.896C124.202 53.1293 124.333 53.4233 124.408 53.778C124.482 54.1233 124.52 54.52 124.52 54.968V59H123.428ZM130.121 59L130.065 58.426C129.832 58.6593 129.561 58.8413 129.253 58.972C128.955 59.0933 128.623 59.154 128.259 59.154C127.97 59.154 127.685 59.1073 127.405 59.014C127.135 58.93 126.892 58.804 126.677 58.636C126.472 58.4587 126.304 58.2393 126.173 57.978C126.043 57.7167 125.977 57.4133 125.977 57.068C125.977 56.592 126.103 56.2 126.355 55.892C126.617 55.5747 126.943 55.3273 127.335 55.15C127.727 54.9727 128.161 54.8467 128.637 54.772C129.113 54.6973 129.575 54.66 130.023 54.66V54.576C130.023 54.016 129.902 53.6147 129.659 53.372C129.426 53.1293 129.085 53.008 128.637 53.008C128.329 53.008 128.045 53.078 127.783 53.218C127.531 53.3487 127.317 53.526 127.139 53.75L126.383 53.218C126.654 52.854 126.971 52.588 127.335 52.42C127.709 52.2427 128.175 52.154 128.735 52.154C129.482 52.154 130.061 52.3453 130.471 52.728C130.891 53.1107 131.101 53.75 131.101 54.646V59H130.121ZM130.023 55.514C129.715 55.5233 129.389 55.5467 129.043 55.584C128.698 55.6213 128.376 55.696 128.077 55.808C127.788 55.9107 127.545 56.0647 127.349 56.27C127.163 56.4753 127.069 56.746 127.069 57.082C127.069 57.2967 127.111 57.4787 127.195 57.628C127.279 57.7773 127.382 57.9033 127.503 58.006C127.634 58.0993 127.774 58.1693 127.923 58.216C128.082 58.2533 128.236 58.272 128.385 58.272C128.712 58.272 129.011 58.2067 129.281 58.076C129.561 57.936 129.809 57.7727 130.023 57.586V55.514ZM134.499 53.204V57.474C134.499 57.8007 134.56 58.02 134.681 58.132C134.812 58.2347 134.975 58.286 135.171 58.286C135.349 58.286 135.517 58.2487 135.675 58.174C135.834 58.0993 135.979 58.0107 136.109 57.908L136.529 58.636C136.315 58.7947 136.1 58.9207 135.885 59.014C135.68 59.1073 135.386 59.154 135.003 59.154C134.499 59.154 134.112 59.028 133.841 58.776C133.571 58.5147 133.435 58.118 133.435 57.586V53.204H132.287V52.322H133.435V50.6L134.513 50.404V52.322H136.333L136.179 53.204H134.499Z" fill="#4B5563"/>
<circle cx="145" cy="54" r="2" fill="#98A2B3"/>
<path d="M154.166 59V49.662H155.482L158.198 56.872L160.998 49.662H162.3V59H161.222V51.874L158.324 59.154H158.1L155.258 51.888V59H154.166ZM168.113 59L168.057 58.426C167.823 58.6593 167.553 58.8413 167.245 58.972C166.946 59.0933 166.615 59.154 166.251 59.154C165.961 59.154 165.677 59.1073 165.397 59.014C165.126 58.93 164.883 58.804 164.669 58.636C164.463 58.4587 164.295 58.2393 164.165 57.978C164.034 57.7167 163.969 57.4133 163.969 57.068C163.969 56.592 164.095 56.2 164.347 55.892C164.608 55.5747 164.935 55.3273 165.327 55.15C165.719 54.9727 166.153 54.8467 166.629 54.772C167.105 54.6973 167.567 54.66 168.015 54.66V54.576C168.015 54.016 167.893 53.6147 167.651 53.372C167.417 53.1293 167.077 53.008 166.629 53.008C166.321 53.008 166.036 53.078 165.775 53.218C165.523 53.3487 165.308 53.526 165.131 53.75L164.375 53.218C164.645 52.854 164.963 52.588 165.327 52.42C165.7 52.2427 166.167 52.154 166.727 52.154C167.473 52.154 168.052 52.3453 168.463 52.728C168.883 53.1107 169.093 53.75 169.093 54.646V59H168.113ZM168.015 55.514C167.707 55.5233 167.38 55.5467 167.035 55.584C166.689 55.6213 166.367 55.696 166.069 55.808C165.779 55.9107 165.537 56.0647 165.341 56.27C165.154 56.4753 165.061 56.746 165.061 57.082C165.061 57.2967 165.103 57.4787 165.187 57.628C165.271 57.7773 165.373 57.9033 165.495 58.006C165.625 58.0993 165.765 58.1693 165.915 58.216C166.073 58.2533 166.227 58.272 166.377 58.272C166.703 58.272 167.002 58.2067 167.273 58.076C167.553 57.936 167.8 57.7727 168.015 57.586V55.514ZM170.013 59L172.253 55.598L170.111 52.322H171.329L172.841 54.716L174.367 52.322H175.515L173.387 55.57L175.599 59H174.437L172.799 56.508L171.175 59H170.013ZM177.045 59.154C176.831 59.154 176.649 59.0747 176.499 58.916C176.359 58.748 176.289 58.5473 176.289 58.314C176.289 58.0807 176.359 57.8847 176.499 57.726C176.649 57.558 176.831 57.474 177.045 57.474C177.26 57.474 177.437 57.558 177.577 57.726C177.727 57.8847 177.801 58.0807 177.801 58.314C177.801 58.5473 177.727 58.748 177.577 58.916C177.437 59.0747 177.26 59.154 177.045 59.154ZM182.651 56.942C182.894 57.3713 183.193 57.6793 183.547 57.866C183.911 58.0527 184.28 58.146 184.653 58.146C184.905 58.146 185.148 58.1133 185.381 58.048C185.624 57.9733 185.834 57.866 186.011 57.726C186.198 57.586 186.343 57.4087 186.445 57.194C186.557 56.9793 186.613 56.7227 186.613 56.424C186.613 56.1347 186.557 55.8827 186.445 55.668C186.333 55.444 186.184 55.262 185.997 55.122C185.82 54.9727 185.605 54.8607 185.353 54.786C185.111 54.7113 184.859 54.6647 184.597 54.646V53.806C184.831 53.7873 185.059 53.7407 185.283 53.666C185.507 53.5913 185.708 53.4887 185.885 53.358C186.063 53.218 186.203 53.05 186.305 52.854C186.417 52.658 186.473 52.4293 186.473 52.168C186.473 51.6827 186.324 51.314 186.025 51.062C185.736 50.8007 185.325 50.67 184.793 50.67C184.373 50.67 184 50.7773 183.673 50.992C183.356 51.2067 183.109 51.4913 182.931 51.846L182.049 51.3C182.32 50.768 182.712 50.362 183.225 50.082C183.739 49.802 184.289 49.662 184.877 49.662C185.269 49.662 185.633 49.718 185.969 49.83C186.315 49.942 186.609 50.1053 186.851 50.32C187.094 50.5253 187.285 50.7773 187.425 51.076C187.565 51.3747 187.635 51.7107 187.635 52.084C187.635 52.6253 187.505 53.064 187.243 53.4C186.991 53.7267 186.669 53.988 186.277 54.184C186.483 54.268 186.674 54.3707 186.851 54.492C187.038 54.6133 187.201 54.7627 187.341 54.94C187.481 55.108 187.589 55.3133 187.663 55.556C187.747 55.7987 187.789 56.0833 187.789 56.41C187.789 56.858 187.701 57.2547 187.523 57.6C187.346 57.936 187.113 58.2207 186.823 58.454C186.534 58.678 186.203 58.8507 185.829 58.972C185.456 59.0933 185.073 59.154 184.681 59.154C184.392 59.154 184.107 59.1213 183.827 59.056C183.547 58.9907 183.277 58.888 183.015 58.748C182.763 58.608 182.53 58.4353 182.315 58.23C182.101 58.0153 181.919 57.768 181.769 57.488L182.651 56.942ZM189.932 59V49.662H191.248L193.964 56.872L196.764 49.662H198.066V59H196.988V51.874L194.09 59.154H193.866L191.024 51.888V59H189.932ZM200.336 59V49.662H203.122C204.083 49.662 204.816 49.8767 205.32 50.306C205.824 50.7353 206.076 51.314 206.076 52.042C206.076 52.6393 205.899 53.1013 205.544 53.428C205.189 53.7453 204.732 53.9507 204.172 54.044C204.452 54.072 204.732 54.1327 205.012 54.226C205.292 54.31 205.544 54.4453 205.768 54.632C206.001 54.8187 206.188 55.0567 206.328 55.346C206.477 55.626 206.552 55.976 206.552 56.396C206.552 56.7973 206.477 57.1613 206.328 57.488C206.188 57.8053 205.992 58.076 205.74 58.3C205.488 58.524 205.189 58.6967 204.844 58.818C204.499 58.9393 204.121 59 203.71 59H200.336ZM201.456 53.624H203.024C203.612 53.624 204.069 53.4887 204.396 53.218C204.732 52.938 204.9 52.546 204.9 52.042C204.9 51.5847 204.751 51.2347 204.452 50.992C204.163 50.7493 203.733 50.628 203.164 50.628H201.456V53.624ZM201.456 58.034H203.612C204.144 58.034 204.569 57.9033 204.886 57.642C205.203 57.3713 205.362 56.956 205.362 56.396C205.362 55.7987 205.166 55.3507 204.774 55.052C204.391 54.744 203.822 54.59 203.066 54.59H201.456V58.034Z" fill="#4B5563"/>
<rect x="298.5" y="24.5" width="89" height="35" rx="7.5" stroke="#38AEE0"/>
<path d="M319.583 50.3307C318.306 50.3307 317.222 49.8863 316.333 48.9974C315.444 48.1085 315 47.0252 315 45.7474V36.9974C315 36.0807 315.326 35.296 315.979 34.6432C316.632 33.9905 317.417 33.6641 318.333 33.6641C319.25 33.6641 320.035 33.9905 320.688 34.6432C321.34 35.296 321.667 36.0807 321.667 36.9974V44.9141C321.667 45.4974 321.465 45.9905 321.063 46.3932C320.66 46.796 320.167 46.9974 319.583 46.9974C319 46.9974 318.507 46.796 318.104 46.3932C317.701 45.9905 317.5 45.4974 317.5 44.9141V36.9974H318.75V44.9141C318.75 45.1502 318.83 45.3481 318.99 45.5078C319.149 45.6675 319.347 45.7474 319.583 45.7474C319.819 45.7474 320.017 45.6675 320.177 45.5078C320.337 45.3481 320.417 45.1502 320.417 44.9141V36.9974C320.417 36.4141 320.215 35.921 319.813 35.5182C319.41 35.1155 318.917 34.9141 318.333 34.9141C317.75 34.9141 317.257 35.1155 316.854 35.5182C316.451 35.921 316.25 36.4141 316.25 36.9974V45.7474C316.25 46.6641 316.576 47.4488 317.229 48.1016C317.882 48.7543 318.667 49.0807 319.583 49.0807C320.5 49.0807 321.285 48.7543 321.938 48.1016C322.59 47.4488 322.917 46.6641 322.917 45.7474V36.9974H324.167V45.7474C324.167 47.0252 323.722 48.1085 322.833 48.9974C321.944 49.8863 320.861 50.3307 319.583 50.3307Z" fill="#38AEE0"/>
<path d="M338.017 47L341.615 37.662H342.301L345.969 47H344.751L343.645 44.116H340.257L339.193 47H338.017ZM340.621 43.122H343.281L341.923 39.552L340.621 43.122ZM348.247 41.204V45.474C348.247 45.8007 348.307 46.02 348.429 46.132C348.559 46.2347 348.723 46.286 348.919 46.286C349.096 46.286 349.264 46.2487 349.423 46.174C349.581 46.0993 349.726 46.0107 349.857 45.908L350.277 46.636C350.062 46.7947 349.847 46.9207 349.633 47.014C349.427 47.1073 349.133 47.154 348.751 47.154C348.247 47.154 347.859 47.028 347.589 46.776C347.318 46.5147 347.183 46.118 347.183 45.586V41.204H346.035V40.322H347.183V38.6L348.261 38.404V40.322H350.081L349.927 41.204H348.247ZM352.84 41.204V45.474C352.84 45.8007 352.901 46.02 353.022 46.132C353.153 46.2347 353.316 46.286 353.512 46.286C353.69 46.286 353.858 46.2487 354.016 46.174C354.175 46.0993 354.32 46.0107 354.45 45.908L354.87 46.636C354.656 46.7947 354.441 46.9207 354.226 47.014C354.021 47.1073 353.727 47.154 353.344 47.154C352.84 47.154 352.453 47.028 352.182 46.776C351.912 46.5147 351.776 46.118 351.776 45.586V41.204H350.628V40.322H351.776V38.6L352.854 38.404V40.322H354.674L354.52 41.204H352.84ZM359.905 47L359.849 46.426C359.616 46.6593 359.345 46.8413 359.037 46.972C358.739 47.0933 358.407 47.154 358.043 47.154C357.754 47.154 357.469 47.1073 357.189 47.014C356.919 46.93 356.676 46.804 356.461 46.636C356.256 46.4587 356.088 46.2393 355.957 45.978C355.827 45.7167 355.761 45.4133 355.761 45.068C355.761 44.592 355.887 44.2 356.139 43.892C356.401 43.5747 356.727 43.3273 357.119 43.15C357.511 42.9727 357.945 42.8467 358.421 42.772C358.897 42.6973 359.359 42.66 359.807 42.66V42.576C359.807 42.016 359.686 41.6147 359.443 41.372C359.21 41.1293 358.869 41.008 358.421 41.008C358.113 41.008 357.829 41.078 357.567 41.218C357.315 41.3487 357.101 41.526 356.923 41.75L356.167 41.218C356.438 40.854 356.755 40.588 357.119 40.42C357.493 40.2427 357.959 40.154 358.519 40.154C359.266 40.154 359.845 40.3453 360.255 40.728C360.675 41.1107 360.885 41.75 360.885 42.646V47H359.905ZM359.807 43.514C359.499 43.5233 359.173 43.5467 358.827 43.584C358.482 43.6213 358.16 43.696 357.861 43.808C357.572 43.9107 357.329 44.0647 357.133 44.27C356.947 44.4753 356.853 44.746 356.853 45.082C356.853 45.2967 356.895 45.4787 356.979 45.628C357.063 45.7773 357.166 45.9033 357.287 46.006C357.418 46.0993 357.558 46.1693 357.707 46.216C357.866 46.2533 358.02 46.272 358.169 46.272C358.496 46.272 358.795 46.2067 359.065 46.076C359.345 45.936 359.593 45.7727 359.807 45.586V43.514ZM368.078 45.572C367.816 46.1133 367.457 46.5147 367 46.776C366.552 47.028 366.076 47.154 365.572 47.154C365.18 47.154 364.792 47.084 364.41 46.944C364.036 46.804 363.705 46.5893 363.416 46.3C363.126 46.0107 362.893 45.6513 362.716 45.222C362.538 44.7833 362.45 44.27 362.45 43.682C362.45 43.0567 362.538 42.52 362.716 42.072C362.893 41.624 363.126 41.26 363.416 40.98C363.705 40.6907 364.032 40.4807 364.396 40.35C364.76 40.2193 365.124 40.154 365.488 40.154C365.861 40.154 366.188 40.21 366.468 40.322C366.757 40.434 367 40.574 367.196 40.742C367.401 40.91 367.564 41.0873 367.686 41.274C367.816 41.4607 367.91 41.6287 367.966 41.778L367.168 42.282C366.972 41.834 366.724 41.512 366.426 41.316C366.127 41.12 365.814 41.022 365.488 41.022C365.236 41.022 364.993 41.0827 364.76 41.204C364.526 41.316 364.316 41.484 364.13 41.708C363.943 41.932 363.794 42.2073 363.682 42.534C363.57 42.8607 363.514 43.234 363.514 43.654C363.514 44.074 363.57 44.4473 363.682 44.774C363.794 45.1007 363.943 45.376 364.13 45.6C364.326 45.824 364.55 45.9967 364.802 46.118C365.063 46.23 365.338 46.286 365.628 46.286C365.954 46.286 366.267 46.1927 366.566 46.006C366.874 45.8193 367.126 45.516 367.322 45.096L368.078 45.572ZM370.481 37.48V40.854C370.751 40.658 371.059 40.4947 371.405 40.364C371.75 40.224 372.137 40.154 372.567 40.154C373.472 40.154 374.111 40.3827 374.485 40.84C374.867 41.2973 375.059 41.9647 375.059 42.842V47H373.967V42.828C373.967 42.212 373.841 41.7593 373.589 41.47C373.337 41.1713 372.931 41.022 372.371 41.022C372.016 41.022 371.671 41.106 371.335 41.274C371.008 41.4327 370.723 41.6007 370.481 41.778V47H369.403V37.662L370.481 37.48Z" fill="#38AEE0"/>
</svg>
