<svg width="119" height="38" viewBox="0 0 119 38" fill="none" xmlns="http://www.w3.org/2000/svg">
<path d="M4 0.5H115C116.933 0.5 118.5 2.067 118.5 4V34C118.5 35.933 116.933 37.5 115 37.5H4C2.067 37.5 0.5 35.933 0.5 34V4L0.504883 3.82031C0.598422 1.97083 2.12727 0.5 4 0.5Z" fill="white" fill-opacity="0.8"/>
<path d="M4 0.5H115C116.933 0.5 118.5 2.067 118.5 4V34C118.5 35.933 116.933 37.5 115 37.5H4C2.067 37.5 0.5 35.933 0.5 34V4L0.504883 3.82031C0.598422 1.97083 2.12727 0.5 4 0.5Z" stroke="#38AEE0" stroke-linecap="round"/>
<path d="M38.676 22.138C38.256 22.8847 37.78 23.4167 37.248 23.734C36.716 24.042 36.0673 24.196 35.302 24.196C34.686 24.196 34.1213 24.0887 33.608 23.874C33.0947 23.6593 32.6513 23.3467 32.278 22.936C31.914 22.516 31.6293 22.0073 31.424 21.41C31.228 20.8127 31.13 20.1313 31.13 19.366C31.13 18.526 31.242 17.8027 31.466 17.196C31.6993 16.58 32.0027 16.0713 32.376 15.67C32.7587 15.2593 33.1973 14.956 33.692 14.76C34.196 14.564 34.714 14.466 35.246 14.466C36.114 14.466 36.814 14.6573 37.346 15.04C37.878 15.4133 38.3027 15.95 38.62 16.65L37.094 17.49C36.9353 17.0793 36.716 16.748 36.436 16.496C36.156 16.244 35.7733 16.118 35.288 16.118C34.9987 16.118 34.7187 16.1833 34.448 16.314C34.1773 16.4447 33.9393 16.6453 33.734 16.916C33.5287 17.1867 33.3607 17.5273 33.23 17.938C33.1087 18.3393 33.048 18.8153 33.048 19.366C33.048 19.8513 33.104 20.29 33.216 20.682C33.3373 21.074 33.5007 21.4053 33.706 21.676C33.9207 21.9467 34.168 22.1567 34.448 22.306C34.7373 22.4553 35.0453 22.53 35.372 22.53C35.792 22.53 36.1467 22.4367 36.436 22.25C36.7347 22.054 36.9913 21.718 37.206 21.242L38.676 22.138ZM43.6656 24L43.5816 23.496C43.3856 23.7013 43.1336 23.8647 42.8256 23.986C42.5269 24.098 42.1956 24.154 41.8316 24.154C41.5329 24.154 41.2389 24.1027 40.9496 24C40.6696 23.9067 40.4222 23.7713 40.2076 23.594C39.9929 23.4073 39.8202 23.1833 39.6896 22.922C39.5589 22.6513 39.4936 22.348 39.4936 22.012C39.4936 21.5173 39.6242 21.1207 39.8856 20.822C40.1562 20.514 40.4922 20.276 40.8936 20.108C41.2949 19.94 41.7289 19.8233 42.1956 19.758C42.6622 19.6927 43.0962 19.646 43.4976 19.618V19.394C43.4976 19.114 43.4136 18.8947 43.2456 18.736C43.0869 18.568 42.8442 18.484 42.5176 18.484C42.2562 18.484 42.0182 18.54 41.8036 18.652C41.5982 18.7547 41.4162 18.8993 41.2576 19.086L40.0116 18.218C40.1889 17.994 40.3896 17.8073 40.6136 17.658C40.8469 17.5087 41.0802 17.392 41.3136 17.308C41.5562 17.224 41.7942 17.168 42.0276 17.14C42.2609 17.1027 42.4756 17.084 42.6716 17.084C43.0636 17.084 43.4229 17.1353 43.7496 17.238C44.0762 17.3313 44.3562 17.4853 44.5896 17.7C44.8322 17.9053 45.0189 18.1713 45.1496 18.498C45.2802 18.8153 45.3456 19.2027 45.3456 19.66V24H43.6656ZM43.5116 20.85C43.2502 20.8687 42.9842 20.892 42.7136 20.92C42.4522 20.948 42.2142 20.9993 41.9996 21.074C41.7849 21.1487 41.6076 21.2607 41.4676 21.41C41.3369 21.55 41.2716 21.7367 41.2716 21.97C41.2716 22.194 41.3556 22.376 41.5236 22.516C41.6916 22.6467 41.9389 22.712 42.2656 22.712C42.4989 22.712 42.7229 22.6653 42.9376 22.572C43.1616 22.4787 43.3529 22.362 43.5116 22.222V20.85ZM47.119 24V14.746L48.953 14.466V24H47.119ZM56.5234 22.376C56.234 22.992 55.842 23.4447 55.3474 23.734C54.862 24.014 54.2927 24.154 53.6394 24.154C53.21 24.154 52.7947 24.0793 52.3934 23.93C52.0014 23.7807 51.6514 23.5613 51.3434 23.272C51.0447 22.9733 50.802 22.6093 50.6154 22.18C50.438 21.7413 50.3494 21.2327 50.3494 20.654C50.3494 20.0567 50.438 19.534 50.6154 19.086C50.7927 18.638 51.026 18.2647 51.3154 17.966C51.614 17.6673 51.9547 17.448 52.3374 17.308C52.72 17.1587 53.1167 17.084 53.5274 17.084C53.938 17.084 54.302 17.1447 54.6194 17.266C54.946 17.378 55.226 17.5273 55.4594 17.714C55.702 17.9007 55.898 18.1107 56.0474 18.344C56.206 18.5773 56.3274 18.8107 56.4114 19.044L54.9694 19.758C54.8107 19.31 54.61 18.9973 54.3674 18.82C54.134 18.6333 53.868 18.54 53.5694 18.54C53.3827 18.54 53.2054 18.582 53.0374 18.666C52.8694 18.75 52.7154 18.876 52.5754 19.044C52.4447 19.212 52.3374 19.4267 52.2534 19.688C52.1787 19.9493 52.1414 20.262 52.1414 20.626C52.1414 21.27 52.2814 21.7693 52.5614 22.124C52.8507 22.4787 53.224 22.656 53.6814 22.656C54.036 22.656 54.3254 22.5673 54.5494 22.39C54.7734 22.2127 54.974 21.9607 55.1514 21.634L56.5234 22.376ZM62.1976 24L62.1276 23.468C61.801 23.7293 61.465 23.9067 61.1196 24C60.7743 24.0933 60.4336 24.14 60.0976 24.14C59.659 24.14 59.2763 24.0747 58.9496 23.944C58.6323 23.804 58.3663 23.608 58.1516 23.356C57.9463 23.104 57.7923 22.8053 57.6896 22.46C57.5963 22.1053 57.5496 21.7087 57.5496 21.27V17.434L59.3836 17.154V21.088C59.3836 21.34 59.3976 21.564 59.4256 21.76C59.463 21.956 59.5236 22.124 59.6076 22.264C59.6916 22.404 59.8083 22.5113 59.9576 22.586C60.1163 22.6513 60.317 22.684 60.5596 22.684C60.9143 22.684 61.213 22.614 61.4556 22.474C61.6983 22.3247 61.8943 22.1893 62.0436 22.068V17.252H63.8776V24H62.1976ZM65.6991 24V14.746L67.5331 14.466V24H65.6991ZM73.0875 24L73.0035 23.496C72.8075 23.7013 72.5555 23.8647 72.2475 23.986C71.9488 24.098 71.6175 24.154 71.2535 24.154C70.9548 24.154 70.6608 24.1027 70.3715 24C70.0915 23.9067 69.8441 23.7713 69.6295 23.594C69.4148 23.4073 69.2421 23.1833 69.1115 22.922C68.9808 22.6513 68.9155 22.348 68.9155 22.012C68.9155 21.5173 69.0461 21.1207 69.3075 20.822C69.5781 20.514 69.9141 20.276 70.3155 20.108C70.7168 19.94 71.1508 19.8233 71.6175 19.758C72.0841 19.6927 72.5181 19.646 72.9195 19.618V19.394C72.9195 19.114 72.8355 18.8947 72.6675 18.736C72.5088 18.568 72.2661 18.484 71.9395 18.484C71.6781 18.484 71.4401 18.54 71.2255 18.652C71.0201 18.7547 70.8381 18.8993 70.6795 19.086L69.4335 18.218C69.6108 17.994 69.8115 17.8073 70.0355 17.658C70.2688 17.5087 70.5021 17.392 70.7355 17.308C70.9781 17.224 71.2161 17.168 71.4495 17.14C71.6828 17.1027 71.8975 17.084 72.0935 17.084C72.4855 17.084 72.8448 17.1353 73.1715 17.238C73.4981 17.3313 73.7781 17.4853 74.0115 17.7C74.2541 17.9053 74.4408 18.1713 74.5715 18.498C74.7021 18.8153 74.7675 19.2027 74.7675 19.66V24H73.0875ZM72.9335 20.85C72.6721 20.8687 72.4061 20.892 72.1355 20.92C71.8741 20.948 71.6361 20.9993 71.4215 21.074C71.2068 21.1487 71.0295 21.2607 70.8895 21.41C70.7588 21.55 70.6935 21.7367 70.6935 21.97C70.6935 22.194 70.7775 22.376 70.9455 22.516C71.1135 22.6467 71.3608 22.712 71.6875 22.712C71.9208 22.712 72.1448 22.6653 72.3595 22.572C72.5835 22.4787 72.7748 22.362 72.9335 22.222V20.85ZM78.6549 18.652V22.096C78.6549 22.3107 78.7015 22.46 78.7949 22.544C78.8975 22.6187 78.9955 22.656 79.0889 22.656C79.2755 22.656 79.4575 22.6093 79.6349 22.516C79.8122 22.4227 79.9662 22.3247 80.0969 22.222L80.7549 23.468C80.4469 23.6733 80.1249 23.8413 79.7889 23.972C79.4529 24.0933 79.0889 24.154 78.6969 24.154C78.4635 24.154 78.2349 24.1213 78.0109 24.056C77.7869 23.9907 77.5862 23.888 77.4089 23.748C77.2409 23.608 77.1009 23.426 76.9889 23.202C76.8862 22.9687 76.8349 22.6887 76.8349 22.362V18.652H75.8409V17.252H76.8349V15.684L78.6549 15.404V17.252H80.4049L80.1809 18.652H78.6549ZM83.1092 21.06C83.1372 21.34 83.1978 21.5827 83.2912 21.788C83.3845 21.9933 83.5012 22.1613 83.6412 22.292C83.7812 22.4227 83.9352 22.5207 84.1032 22.586C84.2805 22.642 84.4625 22.67 84.6492 22.67C84.9758 22.67 85.2698 22.614 85.5312 22.502C85.7925 22.3807 86.0632 22.124 86.3432 21.732L87.7012 22.558C87.3092 23.146 86.8612 23.5613 86.3572 23.804C85.8625 24.0373 85.2745 24.154 84.5932 24.154C84.1452 24.154 83.7205 24.084 83.3192 23.944C82.9178 23.804 82.5632 23.5893 82.2552 23.3C81.9565 23.0013 81.7185 22.6327 81.5412 22.194C81.3638 21.7553 81.2752 21.2327 81.2752 20.626C81.2752 20.0567 81.3592 19.5527 81.5272 19.114C81.7045 18.6753 81.9425 18.3067 82.2412 18.008C82.5398 17.7093 82.8852 17.4807 83.2772 17.322C83.6785 17.1633 84.1032 17.084 84.5512 17.084C85.4938 17.084 86.2498 17.4153 86.8192 18.078C87.3978 18.7313 87.6965 19.7253 87.7152 21.06H83.1092ZM85.8532 19.814C85.8345 19.59 85.7832 19.394 85.6992 19.226C85.6245 19.058 85.5265 18.918 85.4052 18.806C85.2838 18.694 85.1485 18.61 84.9992 18.554C84.8498 18.498 84.7005 18.47 84.5512 18.47C84.2338 18.47 83.9352 18.5913 83.6552 18.834C83.3752 19.0673 83.2072 19.394 83.1512 19.814H85.8532Z" fill="#38AEE0"/>
</svg>
