<svg width="16" height="18" viewBox="0 0 16 18" fill="none" xmlns="http://www.w3.org/2000/svg">
<path d="M5.5 12.75C4.91667 12.75 4.42361 12.5486 4.02083 12.1458C3.61806 11.7431 3.41667 11.25 3.41667 10.6667C3.41667 10.0833 3.61806 9.59028 4.02083 9.1875C4.42361 8.78472 4.91667 8.58333 5.5 8.58333C6.08333 8.58333 6.57639 8.78472 6.97917 9.1875C7.38194 9.59028 7.58333 10.0833 7.58333 10.6667C7.58333 11.25 7.38194 11.7431 6.97917 12.1458C6.57639 12.5486 6.08333 12.75 5.5 12.75ZM2.16667 17.3333C1.70833 17.3333 1.31597 17.1701 0.989583 16.8438C0.663194 16.5174 0.5 16.125 0.5 15.6667V4C0.5 3.54167 0.663194 3.14931 0.989583 2.82292C1.31597 2.49653 1.70833 2.33333 2.16667 2.33333H3V0.666668H4.66667V2.33333H11.3333V0.666668H13V2.33333H13.8333C14.2917 2.33333 14.684 2.49653 15.0104 2.82292C15.3368 3.14931 15.5 3.54167 15.5 4V15.6667C15.5 16.125 15.3368 16.5174 15.0104 16.8438C14.684 17.1701 14.2917 17.3333 13.8333 17.3333H2.16667ZM2.16667 15.6667H13.8333V7.33333H2.16667V15.6667Z" fill="#667185"/>
</svg>
