<svg width="90" height="38" viewBox="0 0 90 38" fill="none" xmlns="http://www.w3.org/2000/svg">
<path d="M4 0.5H86C87.933 0.5 89.5 2.067 89.5 4V34C89.5 35.933 87.933 37.5 86 37.5H4C2.067 37.5 0.5 35.933 0.5 34V4L0.504883 3.82031C0.598422 1.97083 2.12727 0.5 4 0.5Z" fill="white"/>
<path d="M4 0.5H86C87.933 0.5 89.5 2.067 89.5 4V34C89.5 35.933 87.933 37.5 86 37.5H4C2.067 37.5 0.5 35.933 0.5 34V4L0.504883 3.82031C0.598422 1.97083 2.12727 0.5 4 0.5Z" stroke="#38AEE0" stroke-linecap="round"/>
<path d="M33.074 22.306C32.9527 22.53 32.8033 22.754 32.626 22.978C32.4487 23.202 32.2387 23.4027 31.996 23.58C31.7533 23.7573 31.4733 23.902 31.156 24.014C30.8387 24.126 30.4793 24.182 30.078 24.182C29.5273 24.182 29.014 24.0933 28.538 23.916C28.0713 23.7293 27.6607 23.4447 27.306 23.062C26.9607 22.67 26.6853 22.1707 26.48 21.564C26.284 20.9573 26.186 20.2247 26.186 19.366C26.186 18.498 26.2933 17.756 26.508 17.14C26.7227 16.5147 27.0027 16.006 27.348 15.614C27.7027 15.222 28.0993 14.9373 28.538 14.76C28.986 14.5733 29.4387 14.48 29.896 14.48C30.6053 14.48 31.2353 14.6527 31.786 14.998C32.3367 15.3433 32.7473 15.81 33.018 16.398L32.108 16.944C32.024 16.776 31.912 16.608 31.772 16.44C31.6413 16.2627 31.4827 16.1087 31.296 15.978C31.1187 15.838 30.918 15.726 30.694 15.642C30.4793 15.5487 30.246 15.502 29.994 15.502C29.1727 15.502 28.5287 15.838 28.062 16.51C27.6047 17.1727 27.376 18.1293 27.376 19.38C27.376 19.9867 27.446 20.528 27.586 21.004C27.726 21.4707 27.9173 21.8673 28.16 22.194C28.4027 22.5113 28.6873 22.754 29.014 22.922C29.35 23.0807 29.7093 23.16 30.092 23.16C30.3627 23.16 30.6007 23.1227 30.806 23.048C31.0207 22.9733 31.212 22.8753 31.38 22.754C31.5573 22.6233 31.7113 22.474 31.842 22.306C31.982 22.1287 32.108 21.9467 32.22 21.76L33.074 22.306ZM38.1467 24L38.0907 23.426C37.8574 23.6593 37.5867 23.8413 37.2787 23.972C36.98 24.0933 36.6487 24.154 36.2847 24.154C35.9954 24.154 35.7107 24.1073 35.4307 24.014C35.16 23.93 34.9174 23.804 34.7027 23.636C34.4974 23.4587 34.3294 23.2393 34.1987 22.978C34.068 22.7167 34.0027 22.4133 34.0027 22.068C34.0027 21.592 34.1287 21.2 34.3807 20.892C34.642 20.5747 34.9687 20.3273 35.3607 20.15C35.7527 19.9727 36.1867 19.8467 36.6627 19.772C37.1387 19.6973 37.6007 19.66 38.0487 19.66V19.576C38.0487 19.016 37.9274 18.6147 37.6847 18.372C37.4514 18.1293 37.1107 18.008 36.6627 18.008C36.3547 18.008 36.07 18.078 35.8087 18.218C35.5567 18.3487 35.342 18.526 35.1647 18.75L34.4087 18.218C34.6794 17.854 34.9967 17.588 35.3607 17.42C35.734 17.2427 36.2007 17.154 36.7607 17.154C37.5074 17.154 38.086 17.3453 38.4967 17.728C38.9167 18.1107 39.1267 18.75 39.1267 19.646V24H38.1467ZM38.0487 20.514C37.7407 20.5233 37.414 20.5467 37.0687 20.584C36.7234 20.6213 36.4014 20.696 36.1027 20.808C35.8134 20.9107 35.5707 21.0647 35.3747 21.27C35.188 21.4753 35.0947 21.746 35.0947 22.082C35.0947 22.2967 35.1367 22.4787 35.2207 22.628C35.3047 22.7773 35.4074 22.9033 35.5287 23.006C35.6594 23.0993 35.7994 23.1693 35.9487 23.216C36.1074 23.2533 36.2614 23.272 36.4107 23.272C36.7374 23.272 37.036 23.2067 37.3067 23.076C37.5867 22.936 37.834 22.7727 38.0487 22.586V20.514ZM41.9929 17.238L42.0769 17.854C42.3475 17.6487 42.6649 17.4807 43.0289 17.35C43.4022 17.2193 43.7895 17.154 44.1909 17.154C45.1055 17.154 45.7495 17.3827 46.1229 17.84C46.5055 18.288 46.6969 18.9553 46.6969 19.842V24H45.6189V19.814C45.6189 19.254 45.4929 18.8153 45.2409 18.498C44.9889 18.1807 44.5782 18.022 44.0089 18.022C43.6542 18.022 43.3042 18.1013 42.9589 18.26C42.6229 18.4093 42.3335 18.5773 42.0909 18.764V24H41.0129V17.406L41.9929 17.238ZM53.8931 22.572C53.6318 23.1133 53.2724 23.5147 52.8151 23.776C52.3671 24.028 51.8911 24.154 51.3871 24.154C50.9951 24.154 50.6078 24.084 50.2251 23.944C49.8518 23.804 49.5204 23.5893 49.2311 23.3C48.9418 23.0107 48.7084 22.6513 48.5311 22.222C48.3538 21.7833 48.2651 21.27 48.2651 20.682C48.2651 20.0567 48.3538 19.52 48.5311 19.072C48.7084 18.624 48.9418 18.26 49.2311 17.98C49.5204 17.6907 49.8471 17.4807 50.2111 17.35C50.5751 17.2193 50.9391 17.154 51.3031 17.154C51.6764 17.154 52.0031 17.21 52.2831 17.322C52.5724 17.434 52.8151 17.574 53.0111 17.742C53.2164 17.91 53.3798 18.0873 53.5011 18.274C53.6318 18.4607 53.7251 18.6287 53.7811 18.778L52.9831 19.282C52.7871 18.834 52.5398 18.512 52.2411 18.316C51.9424 18.12 51.6298 18.022 51.3031 18.022C51.0511 18.022 50.8084 18.0827 50.5751 18.204C50.3418 18.316 50.1318 18.484 49.9451 18.708C49.7584 18.932 49.6091 19.2073 49.4971 19.534C49.3851 19.8607 49.3291 20.234 49.3291 20.654C49.3291 21.074 49.3851 21.4473 49.4971 21.774C49.6091 22.1007 49.7584 22.376 49.9451 22.6C50.1411 22.824 50.3651 22.9967 50.6171 23.118C50.8784 23.23 51.1538 23.286 51.4431 23.286C51.7698 23.286 52.0824 23.1927 52.3811 23.006C52.6891 22.8193 52.9411 22.516 53.1371 22.096L53.8931 22.572ZM55.8779 20.598C55.8779 21.4473 56.0693 22.11 56.4519 22.586C56.8346 23.0527 57.3899 23.286 58.1179 23.286C58.5379 23.286 58.8926 23.1833 59.1819 22.978C59.4713 22.7727 59.7046 22.5207 59.8819 22.222L60.5959 22.698C60.3533 23.118 60.0359 23.468 59.6439 23.748C59.2613 24.0187 58.7433 24.154 58.0899 24.154C57.5859 24.154 57.1333 24.0793 56.7319 23.93C56.3306 23.7713 55.9853 23.5473 55.6959 23.258C55.4159 22.9593 55.1966 22.5907 55.0379 22.152C54.8886 21.7133 54.8139 21.2047 54.8139 20.626C54.8139 20.094 54.8839 19.618 55.0239 19.198C55.1733 18.7687 55.3739 18.4047 55.6259 18.106C55.8873 17.798 56.1999 17.5647 56.5639 17.406C56.9373 17.238 57.3479 17.154 57.7959 17.154C58.2906 17.154 58.7199 17.238 59.0839 17.406C59.4573 17.574 59.7653 17.812 60.0079 18.12C60.2506 18.4187 60.4326 18.7827 60.5539 19.212C60.6753 19.632 60.7359 20.094 60.7359 20.598H55.8779ZM59.5179 19.744C59.5086 19.4547 59.4526 19.2027 59.3499 18.988C59.2473 18.764 59.1166 18.582 58.9579 18.442C58.7993 18.2927 58.6173 18.1853 58.4119 18.12C58.2066 18.0453 58.0013 18.008 57.7959 18.008C57.3479 18.008 56.9606 18.1433 56.6339 18.414C56.3166 18.6753 56.0973 19.1187 55.9759 19.744H59.5179ZM62.2453 24V14.662L63.3233 14.48V24H62.2453Z" fill="#202224"/>
</svg>
