<svg width="20" height="20" viewBox="0 0 20 20" fill="none" xmlns="http://www.w3.org/2000/svg">
  <path d="M10 15q2.075 0 3.537-1.463Q15 12.075 15 10t-1.463-3.537T10 5 6.463 6.463Q5 7.925 5 10t1.463 3.537T10 15m0 5a9.7 9.7 0 0 1-3.9-.788 10.1 10.1 0 0 1-3.175-2.137Q1.575 15.725.788 13.9A9.7 9.7 0 0 1 0 10q0-2.074.788-3.9a10.1 10.1 0 0 1 2.137-3.175Q4.275 1.575 6.1.788A9.7 9.7 0 0 1 10 0q2.075 0 3.9.788a10.1 10.1 0 0 1 3.175 2.137q1.35 1.35 2.137 3.175A9.7 9.7 0 0 1 20 10a9.7 9.7 0 0 1-.788 3.9 10.1 10.1 0 0 1-2.137 3.175q-1.35 1.35-3.175 2.137A9.7 9.7 0 0 1 10 20m0-2q3.35 0 5.675-2.325T18 10t-2.325-5.675T10 2 4.325 4.325 2 10t2.325 5.675T10 18" fill="#838383"/>
</svg>
