<svg width="24" height="25" viewBox="0 0 24 25" fill="none" xmlns="http://www.w3.org/2000/svg">
<mask id="mask0_1_5912" style="mask-type:luminance" maskUnits="userSpaceOnUse" x="0" y="0" width="24" height="25">
<path d="M0 0.48526H24V24.2584H0V0.48526Z" fill="white"/>
</mask>
<g mask="url(#mask0_1_5912)">
<mask id="mask1_1_5912" style="mask-type:luminance" maskUnits="userSpaceOnUse" x="0" y="0" width="24" height="25">
<path d="M0 0.48526H24V24.2584H0V0.48526Z" fill="white"/>
</mask>
<g mask="url(#mask1_1_5912)">
<path d="M21.8566 3.67013H17.3566V1.97206C17.3566 1.85531 17.2602 1.7598 17.1423 1.7598H15.6423C15.5245 1.7598 15.428 1.85531 15.428 1.97206V3.67013H8.57086V1.97206C8.57086 1.85531 8.47446 1.7598 8.35661 1.7598H6.85661C6.73871 1.7598 6.64231 1.85531 6.64231 1.97206V3.67013H2.1423C1.66819 3.67013 1.28516 4.04955 1.28516 4.51918V22.1368C1.28516 22.6064 1.66819 22.9858 2.1423 22.9858H21.8566C22.3307 22.9858 22.7137 22.6064 22.7137 22.1368V4.51918C22.7137 4.04955 22.3307 3.67013 21.8566 3.67013ZM20.7852 21.0754H3.21373V10.9931H20.7852V21.0754ZM3.21373 9.18889V5.58048H6.64231V6.85403C6.64231 6.97076 6.73871 7.0663 6.85661 7.0663H8.35661C8.47446 7.0663 8.57086 6.97076 8.57086 6.85403V5.58048H15.428V6.85403C15.428 6.97076 15.5245 7.0663 15.6423 7.0663H17.1423C17.2602 7.0663 17.3566 6.97076 17.3566 6.85403V5.58048H20.7852V9.18889H3.21373Z" fill="#52C41A"/>
</g>
</g>
</svg>
