<svg width="16" height="17" viewBox="0 0 16 17" fill="none" xmlns="http://www.w3.org/2000/svg">
<path d="M8.9 8.45377L10.95 10.5038C11.3015 10.8552 11.3015 11.4251 10.95 11.7766C10.5985 12.128 10.0287 12.128 9.67721 11.7766L7.4364 9.53575C7.42415 9.5235 7.41232 9.51098 7.40093 9.49822C7.21626 9.3334 7.1 9.09356 7.1 8.82656V4.12656C7.1 3.62951 7.50294 3.22656 8 3.22656C8.49706 3.22656 8.9 3.62951 8.9 4.12656V8.45377ZM8 16.7266C3.58172 16.7266 0 13.1448 0 8.72656C0 4.30828 3.58172 0.726562 8 0.726562C12.4183 0.726562 16 4.30828 16 8.72656C16 13.1448 12.4183 16.7266 8 16.7266ZM8 15.0766C11.507 15.0766 14.35 12.2336 14.35 8.72656C14.35 5.21955 11.507 2.37656 8 2.37656C4.49299 2.37656 1.65 5.21955 1.65 8.72656C1.65 12.2336 4.49299 15.0766 8 15.0766Z" fill="#1C2E45" fill-opacity="0.6"/>
</svg>
