<svg width="11" height="10" viewBox="0 0 11 10" fill="none" xmlns="http://www.w3.org/2000/svg">
<path d="M4.10377 5L0.70783 1.60406C0.340879 1.23711 0.340879 0.642164 0.70783 0.275213C1.07478 -0.0917377 1.66973 -0.0917377 2.03668 0.275213L5.43262 3.67115L8.82856 0.275213C9.19551 -0.0917377 9.79045 -0.0917377 10.1574 0.275213C10.5244 0.642164 10.5244 1.23711 10.1574 1.60406L6.76146 5L10.1574 8.39594C10.5244 8.76289 10.5244 9.35784 10.1574 9.72479C9.79045 10.0917 9.19551 10.0917 8.82856 9.72479L5.43262 6.32885L2.03668 9.72479C1.66973 10.0917 1.07478 10.0917 0.70783 9.72479C0.340879 9.35784 0.340879 8.76289 0.70783 8.39594L4.10377 5Z" fill="#1C2E45" fill-opacity="0.6"/>
</svg>
