<svg width="18" height="18" viewBox="0 0 18 18" fill="none" xmlns="http://www.w3.org/2000/svg">
<mask id="mask0_2830_36898" style="mask-type:luminance" maskUnits="userSpaceOnUse" x="0" y="0" width="18" height="18">
<path d="M0 0H18V18H0V0Z" fill="white"/>
</mask>
<g mask="url(#mask0_2830_36898)">
<path d="M5.94393 2.41518H5.7832C5.87159 2.41518 5.94393 2.34286 5.94393 2.25446V2.41518H12.0511V2.25446C12.0511 2.34286 12.1234 2.41518 12.2118 2.41518H12.0511V3.86161H13.4975V2.25446C13.4975 1.54531 12.9209 0.96875 12.2118 0.96875H5.7832C5.07404 0.96875 4.49749 1.54531 4.49749 2.25446V3.86161H5.94393V2.41518ZM16.0689 3.86161H1.92606C1.57048 3.86161 1.2832 4.14889 1.2832 4.50446V5.14734C1.2832 5.23573 1.35552 5.30802 1.44392 5.30802H2.65731L3.15352 15.8147C3.18566 16.4998 3.75218 17.0402 4.43722 17.0402H13.5577C14.2448 17.0402 14.8093 16.5018 14.8415 15.8147L15.3377 5.30802H16.5511C16.6395 5.30802 16.7118 5.23573 16.7118 5.14734V4.50446C16.7118 4.14889 16.4245 3.86161 16.0689 3.86161ZM13.4031 15.5938H4.59191L4.10575 5.30802H13.8892L13.4031 15.5938Z" fill="#FF4D4F"/>
</g>
</svg>
