<svg width="48" height="48" viewBox="0 0 48 48" fill="none" xmlns="http://www.w3.org/2000/svg">
<path d="M36 0L44 8V46C44 47.1046 43.1046 48 42 48H6C4.89543 48 4 47.1046 4 46V2C4 0.895431 4.89543 1.61064e-08 6 0H36Z" fill="#E4E7EC"/>
<path d="M44 8H36V0L44 8Z" fill="#98A2B3"/>
<rect x="2" y="20" width="44" height="20" rx="2" fill="#CC400C"/>
<path d="M9.32764 35.8182V24.1819H13.6913C14.5852 24.1819 15.3352 24.3486 15.9413 24.6819C16.5511 25.0152 17.0113 25.4736 17.322 26.0569C17.6363 26.6364 17.7935 27.2955 17.7935 28.0342C17.7935 28.7804 17.6363 29.4432 17.322 30.0228C17.0076 30.6023 16.5435 31.0588 15.9299 31.3921C15.3163 31.7217 14.5606 31.8864 13.6629 31.8864H10.7708V30.1535H13.3788C13.9015 30.1535 14.3295 30.0626 14.6629 29.8807C14.9962 29.6989 15.2424 29.4489 15.4015 29.1307C15.5644 28.8126 15.6458 28.447 15.6458 28.0342C15.6458 27.6213 15.5644 27.2576 15.4015 26.9432C15.2424 26.6289 14.9943 26.3845 14.6572 26.2103C14.3238 26.0323 13.8939 25.9432 13.3674 25.9432H11.4356V35.8182H9.32764Z" fill="white"/>
<path d="M23.5677 35.8182H19.6245V24.1819H23.6472C24.8025 24.1819 25.795 24.4148 26.6245 24.8807C27.4578 25.3429 28.098 26.0076 28.545 26.8751C28.9919 27.7425 29.2154 28.7804 29.2154 29.9887C29.2154 31.2008 28.99 32.2425 28.5393 33.1137C28.0923 33.9849 27.4465 34.6535 26.6018 35.1194C25.7609 35.5853 24.7495 35.8182 23.5677 35.8182ZM21.7325 33.9944H23.4654C24.276 33.9944 24.9522 33.8467 25.4938 33.5512C26.0355 33.252 26.4427 32.8069 26.7154 32.216C26.9881 31.6213 27.1245 30.8789 27.1245 29.9887C27.1245 29.0986 26.9881 28.3599 26.7154 27.7728C26.4427 27.1819 26.0393 26.7406 25.5052 26.4489C24.9749 26.1535 24.3158 26.0057 23.5279 26.0057H21.7325V33.9944Z" fill="white"/>
<path d="M31.2183 35.8182V24.1819H38.6728V25.9489H33.3262V29.108H38.1614V30.8751H33.3262V35.8182H31.2183Z" fill="white"/>
</svg>
