<svg width="24" height="25" viewBox="0 0 24 25" fill="none" xmlns="http://www.w3.org/2000/svg">
<path d="M17.4903 13.9942L12.8237 18.6609C12.368 19.1165 11.6294 19.1165 11.1737 18.6609L6.50707 13.9942C6.05146 13.5386 6.05146 12.7999 6.50707 12.3443C6.96268 11.8887 7.70138 11.8887 8.15699 12.3443L10.832 15.0194V1.5026C10.832 0.858271 11.3544 0.335938 11.9987 0.335938C12.643 0.335938 13.1654 0.858271 13.1654 1.5026V15.0194L15.8404 12.3443C16.296 11.8887 17.0347 11.8887 17.4903 12.3443C17.9459 12.7999 17.9459 13.5386 17.4903 13.9942Z" fill="#D42620"/>
<path d="M2.66536 18.4193C2.66536 17.7749 2.14303 17.2526 1.4987 17.2526C0.854366 17.2526 0.332031 17.7749 0.332031 18.4193V20.1693C0.332031 22.7466 2.42137 24.8359 4.9987 24.8359H18.9987C21.576 24.8359 23.6654 22.7466 23.6654 20.1693V18.4193C23.6654 17.7749 23.143 17.2526 22.4987 17.2526C21.8544 17.2526 21.332 17.7749 21.332 18.4193V20.1693C21.332 21.4579 20.2874 22.5026 18.9987 22.5026H4.9987C3.71003 22.5026 2.66536 21.4579 2.66536 20.1693V18.4193Z" fill="#D42620"/>
</svg>
