<svg width="14" height="14" viewBox="0 0 14 14" fill="none" xmlns="http://www.w3.org/2000/svg">
<path d="M7.75984 2.42002V9.08003C7.75984 9.50003 7.41984 9.84003 6.99984 9.84003C6.57984 9.84003 6.25984 9.50003 6.25984 9.08003V2.42002L3.73984 4.64002C3.43984 4.92002 2.95984 4.90002 2.69984 4.58002C2.41984 4.28002 2.43984 3.80002 2.75984 3.52002L6.49984 0.200017C6.77984 -0.0599837 7.19984 -0.0599837 7.49984 0.180017C7.49984 0.200017 7.49984 0.200017 7.49984 0.200017L11.2398 3.52002C11.5598 3.80002 11.5798 4.28002 11.3198 4.58002C11.0398 4.90002 10.5598 4.92002 10.2598 4.64002L7.75984 2.42002ZM12.1598 11.08C12.1598 10.66 12.4998 10.34 12.9198 10.34C13.3398 10.34 13.6598 10.66 13.6598 11.08V12.92C13.6598 13.32 13.3398 13.66 12.9198 13.66H1.07984C0.679844 13.66 0.339844 13.32 0.339844 12.92V11.08C0.339844 10.66 0.679844 10.34 1.07984 10.34C1.49984 10.34 1.83984 10.66 1.83984 11.08V12.16H12.1598V11.08Z" fill="#38AEE0"/>
</svg>
