<svg width="18" height="19" viewBox="0 0 18 19" fill="none" xmlns="http://www.w3.org/2000/svg">
<path d="M8.1 13.8299H9.9V8.48094H8.1V13.8299ZM9 6.69796C9.255 6.69796 9.46875 6.61253 9.64125 6.44166C9.81375 6.27079 9.9 6.05906 9.9 5.80647C9.9 5.55388 9.81375 5.34215 9.64125 5.17128C9.46875 5.00041 9.255 4.91498 9 4.91498C8.745 4.91498 8.53125 5.00041 8.35875 5.17128C8.18625 5.34215 8.1 5.55388 8.1 5.80647C8.1 6.05906 8.18625 6.27079 8.35875 6.44166C8.53125 6.61253 8.745 6.69796 9 6.69796ZM9 18.2873C7.755 18.2873 6.585 18.0533 5.49 17.5853C4.395 17.1173 3.4425 16.4821 2.6325 15.6797C1.8225 14.8774 1.18125 13.9339 0.70875 12.8493C0.23625 11.7646 0 10.6057 0 9.37243C0 8.1392 0.23625 6.98027 0.70875 5.89562C1.18125 4.81097 1.8225 3.86747 2.6325 3.06513C3.4425 2.26279 4.395 1.6276 5.49 1.15957C6.585 0.691536 7.755 0.45752 9 0.45752C10.245 0.45752 11.415 0.691536 12.51 1.15957C13.605 1.6276 14.5575 2.26279 15.3675 3.06513C16.1775 3.86747 16.8188 4.81097 17.2913 5.89562C17.7638 6.98027 18 8.1392 18 9.37243C18 10.6057 17.7638 11.7646 17.2913 12.8493C16.8188 13.9339 16.1775 14.8774 15.3675 15.6797C14.5575 16.4821 13.605 17.1173 12.51 17.5853C11.415 18.0533 10.245 18.2873 9 18.2873Z" fill="#9CA3AF"/>
</svg>