<svg width="14" height="15" viewBox="0 0 14 15" fill="none" xmlns="http://www.w3.org/2000/svg">
  <path d="M6.3 11h1.4V6.8H6.3zM7 5.4a.68.68 0 0 0 .499-.201A.68.68 0 0 0 7.7 4.7a.68.68 0 0 0-.201-.499A.68.68 0 0 0 7 4a.68.68 0 0 0-.499.201.68.68 0 0 0-.201.499q0 .298.201.499.2.201.499.201m0 9.1a6.8 6.8 0 0 1-2.73-.551 7.1 7.1 0 0 1-2.222-1.496A7.1 7.1 0 0 1 .55 10.23 6.8 6.8 0 0 1 0 7.5q0-1.452.551-2.73a7.1 7.1 0 0 1 1.496-2.222A7.1 7.1 0 0 1 4.27 1.05 6.8 6.8 0 0 1 7 .5q1.452 0 2.73.551a7.1 7.1 0 0 1 2.223 1.497 7.1 7.1 0 0 1 1.496 2.222q.55 1.278.551 2.73 0 1.452-.551 2.73a7.1 7.1 0 0 1-1.496 2.223 7.1 7.1 0 0 1-2.223 1.496A6.8 6.8 0 0 1 7 14.5" fill="#007AFF"/>
</svg>
