<svg width="425" height="94" viewBox="0 0 425 94" fill="none" xmlns="http://www.w3.org/2000/svg"><rect x=".75" y="10.75" width="423.5" height="62.5" rx="7.25" stroke="#C6C6C6" stroke-width="1.5" stroke-dasharray="4 4"/><rect x="6" y="13" width="411" height="56" rx="8" fill="#fff"/><path d="m52 17 8 8v38a2 2 0 0 1-2 2H22a2 2 0 0 1-2-2V19a2 2 0 0 1 2-2z" fill="#E4E7EC"/><path d="M60 25h-8v-8z" fill="#98A2B3"/><rect x="18" y="37" width="44" height="20" rx="2" fill="#CC400C"/><path d="M25.328 52.816V41.18h4.364q1.341 0 2.25.5.915.5 1.38 1.375.472.87.472 1.977 0 1.12-.472 1.989a3.37 3.37 0 0 1-1.392 1.369q-.92.495-2.267.494h-2.892v-1.733h2.608q.785 0 1.284-.272.5-.273.739-.75.244-.478.244-1.097 0-.62-.244-1.09a1.66 1.66 0 0 0-.744-.734q-.501-.267-1.29-.267h-1.932v9.875zm14.24 0h-3.943V41.18h4.023q1.732 0 2.977.699a4.67 4.67 0 0 1 1.92 1.994q.67 1.3.67 3.114 0 1.818-.675 3.124a4.67 4.67 0 0 1-1.938 2.006q-1.26.7-3.034.7m-1.835-1.824h1.733q1.216 0 2.028-.443.813-.45 1.222-1.335.41-.892.409-2.227 0-1.336-.41-2.216-.408-.887-1.21-1.324-.795-.444-1.977-.443h-1.795zm9.486 1.823V41.18h7.454v1.767h-5.346v3.159h4.835v1.767h-4.835v4.943z" fill="#fff"/></svg>