<svg width="14" height="14" viewBox="0 0 14 14" fill="none" xmlns="http://www.w3.org/2000/svg">
<path d="M6.11426 0.714966C8.9756 0.715177 11.2949 3.03521 11.2949 5.89661C11.2948 7.01589 10.9407 8.05095 10.3379 8.89758L10.0918 9.24231L10.3916 9.54114L13.375 12.5255C13.5398 12.6903 13.545 12.9756 13.3691 13.1515C13.1898 13.3308 12.9121 13.3263 12.7432 13.1573L9.75879 10.174L9.45996 9.87415L9.11523 10.1202C8.2686 10.723 7.23354 11.0772 6.11426 11.0773C3.25286 11.0773 0.932828 8.75795 0.932617 5.89661C0.932617 3.03508 3.25273 0.714966 6.11426 0.714966ZM6.11426 1.13489C3.48486 1.13489 1.35254 3.26721 1.35254 5.89661C1.35275 8.52582 3.48499 10.6573 6.11426 10.6573C8.74334 10.6571 10.8748 8.52569 10.875 5.89661C10.875 3.26734 8.74347 1.1351 6.11426 1.13489Z" fill="#1C2E45" fill-opacity="0.6" stroke="#111827"/>
</svg>
