<svg width="119" height="38" viewBox="0 0 119 38" fill="none" xmlns="http://www.w3.org/2000/svg">
<path d="M4 0.5H115C116.933 0.5 118.5 2.067 118.5 4V34C118.5 35.933 116.933 37.5 115 37.5H4C2.067 37.5 0.5 35.933 0.5 34V4L0.504883 3.82031C0.598422 1.97083 2.12727 0.5 4 0.5Z" fill="#38AEE0"/>
<path d="M4 0.5H115C116.933 0.5 118.5 2.067 118.5 4V34C118.5 35.933 116.933 37.5 115 37.5H4C2.067 37.5 0.5 35.933 0.5 34V4L0.504883 3.82031C0.598422 1.97083 2.12727 0.5 4 0.5Z" stroke="#38AEE0" stroke-linecap="round"/>
<path d="M24.806 21.522C25.0207 21.8767 25.31 22.1473 25.674 22.334C26.038 22.5113 26.4487 22.6 26.906 22.6C27.382 22.6 27.76 22.5067 28.04 22.32C28.3293 22.1333 28.474 21.886 28.474 21.578C28.474 21.382 28.4413 21.2093 28.376 21.06C28.3107 20.9107 28.1987 20.7707 28.04 20.64C27.8813 20.5093 27.662 20.3833 27.382 20.262C27.102 20.1313 26.7473 19.9913 26.318 19.842C25.9167 19.702 25.5527 19.5527 25.226 19.394C24.9087 19.2353 24.6333 19.0487 24.4 18.834C24.176 18.6193 24.0033 18.372 23.882 18.092C23.7607 17.8027 23.7 17.462 23.7 17.07C23.7 16.6873 23.7653 16.3373 23.896 16.02C24.036 15.7027 24.2413 15.4273 24.512 15.194C24.792 14.9607 25.1373 14.7833 25.548 14.662C25.9587 14.5313 26.4393 14.466 26.99 14.466C27.4473 14.466 27.8487 14.5127 28.194 14.606C28.5487 14.69 28.852 14.8067 29.104 14.956C29.3653 15.1053 29.5893 15.278 29.776 15.474C29.9627 15.67 30.126 15.8753 30.266 16.09L28.908 17.056C28.74 16.748 28.502 16.5007 28.194 16.314C27.886 16.118 27.48 16.02 26.976 16.02C26.5 16.02 26.136 16.104 25.884 16.272C25.6413 16.44 25.52 16.6593 25.52 16.93C25.52 17.2567 25.674 17.5273 25.982 17.742C26.2993 17.9473 26.78 18.1667 27.424 18.4C27.9 18.568 28.3153 18.7453 28.67 18.932C29.034 19.1187 29.3373 19.3333 29.58 19.576C29.8227 19.8093 30.0047 20.08 30.126 20.388C30.2567 20.696 30.322 21.06 30.322 21.48C30.322 21.9373 30.224 22.3387 30.028 22.684C29.8413 23.02 29.5893 23.3 29.272 23.524C28.964 23.748 28.6047 23.916 28.194 24.028C27.7833 24.14 27.3633 24.196 26.934 24.196C25.2353 24.196 24.0453 23.622 23.364 22.474L24.806 21.522ZM33.1033 21.06C33.1313 21.34 33.192 21.5827 33.2853 21.788C33.3786 21.9933 33.4953 22.1613 33.6353 22.292C33.7753 22.4227 33.9293 22.5207 34.0973 22.586C34.2746 22.642 34.4566 22.67 34.6433 22.67C34.97 22.67 35.264 22.614 35.5253 22.502C35.7866 22.3807 36.0573 22.124 36.3373 21.732L37.6953 22.558C37.3033 23.146 36.8553 23.5613 36.3513 23.804C35.8566 24.0373 35.2686 24.154 34.5873 24.154C34.1393 24.154 33.7146 24.084 33.3133 23.944C32.912 23.804 32.5573 23.5893 32.2493 23.3C31.9506 23.0013 31.7126 22.6327 31.5353 22.194C31.358 21.7553 31.2693 21.2327 31.2693 20.626C31.2693 20.0567 31.3533 19.5527 31.5213 19.114C31.6986 18.6753 31.9366 18.3067 32.2353 18.008C32.534 17.7093 32.8793 17.4807 33.2713 17.322C33.6726 17.1633 34.0973 17.084 34.5453 17.084C35.488 17.084 36.244 17.4153 36.8133 18.078C37.392 18.7313 37.6906 19.7253 37.7093 21.06H33.1033ZM35.8473 19.814C35.8286 19.59 35.7773 19.394 35.6933 19.226C35.6186 19.058 35.5206 18.918 35.3993 18.806C35.278 18.694 35.1426 18.61 34.9933 18.554C34.844 18.498 34.6946 18.47 34.5453 18.47C34.228 18.47 33.9293 18.5913 33.6493 18.834C33.3693 19.0673 33.2013 19.394 33.1453 19.814H35.8473ZM39.0448 24V17.42L40.6968 17.168L40.7948 17.784C41.0748 17.56 41.3968 17.3873 41.7608 17.266C42.1248 17.1447 42.4888 17.084 42.8528 17.084C43.7488 17.084 44.3974 17.35 44.7988 17.882C45.2001 18.4047 45.4008 19.114 45.4008 20.01V24H43.5668V20.15C43.5668 19.8887 43.5528 19.66 43.5248 19.464C43.4968 19.2587 43.4408 19.0907 43.3568 18.96C43.2728 18.82 43.1514 18.7173 42.9928 18.652C42.8341 18.5773 42.6241 18.54 42.3628 18.54C42.0921 18.54 41.8214 18.6053 41.5508 18.736C41.2894 18.8667 41.0654 19.0253 40.8788 19.212V24H39.0448ZM51.4915 24L51.4075 23.482C51.2395 23.6593 51.0202 23.818 50.7495 23.958C50.4789 24.0887 50.1569 24.154 49.7835 24.154C49.2889 24.154 48.8549 24.0607 48.4815 23.874C48.1082 23.6873 47.7909 23.4353 47.5295 23.118C47.2775 22.7913 47.0862 22.4133 46.9555 21.984C46.8249 21.5547 46.7595 21.0927 46.7595 20.598C46.7595 20.1593 46.8295 19.73 46.9695 19.31C47.1095 18.89 47.3195 18.5167 47.5995 18.19C47.8795 17.854 48.2295 17.588 48.6495 17.392C49.0695 17.1867 49.5642 17.084 50.1335 17.084C50.4975 17.084 50.8989 17.1493 51.3375 17.28V14.746L53.1575 14.466V24H51.4915ZM51.3375 18.75C50.9735 18.6193 50.6469 18.554 50.3575 18.554C50.0495 18.554 49.7789 18.61 49.5455 18.722C49.3215 18.834 49.1349 18.988 48.9855 19.184C48.8362 19.3707 48.7242 19.5853 48.6495 19.828C48.5749 20.0613 48.5375 20.304 48.5375 20.556C48.5375 20.8453 48.5655 21.1207 48.6215 21.382C48.6869 21.634 48.7849 21.858 48.9155 22.054C49.0462 22.2407 49.2095 22.39 49.4055 22.502C49.6109 22.614 49.8582 22.67 50.1475 22.67C50.3715 22.67 50.6002 22.614 50.8335 22.502C51.0669 22.3807 51.2349 22.2407 51.3375 22.082V18.75ZM64.6212 26.016C63.4639 25.9787 62.5819 25.792 61.9752 25.456C61.3686 25.1293 60.9532 24.6627 60.7292 24.056C60.1879 23.9253 59.7119 23.706 59.3012 23.398C58.8999 23.0807 58.5639 22.7073 58.2932 22.278C58.0319 21.8487 57.8312 21.382 57.6912 20.878C57.5606 20.3647 57.4952 19.8467 57.4952 19.324C57.4952 18.7267 57.5839 18.1387 57.7612 17.56C57.9386 16.972 58.2046 16.4493 58.5592 15.992C58.9139 15.5347 59.3619 15.166 59.9032 14.886C60.4446 14.606 61.0746 14.466 61.7932 14.466C62.5212 14.466 63.1559 14.606 63.6972 14.886C64.2386 15.166 64.6912 15.5347 65.0552 15.992C65.4192 16.4493 65.6899 16.972 65.8672 17.56C66.0446 18.1387 66.1332 18.7267 66.1332 19.324C66.1332 19.8187 66.0679 20.3133 65.9372 20.808C65.8066 21.3027 65.6106 21.7647 65.3492 22.194C65.0972 22.614 64.7799 22.9873 64.3972 23.314C64.0146 23.6313 63.5712 23.8647 63.0672 24.014C63.1699 24.21 63.3706 24.3407 63.6692 24.406C63.9679 24.4807 64.3599 24.518 64.8452 24.518L64.6212 26.016ZM59.3992 19.324C59.3992 19.6693 59.4412 20.0333 59.5252 20.416C59.6186 20.7893 59.7586 21.1347 59.9452 21.452C60.1319 21.76 60.3746 22.0167 60.6732 22.222C60.9812 22.4273 61.3546 22.53 61.7932 22.53C62.1852 22.53 62.5306 22.4413 62.8292 22.264C63.1372 22.0867 63.3939 21.8487 63.5992 21.55C63.8046 21.2513 63.9586 20.9107 64.0612 20.528C64.1639 20.136 64.2152 19.7347 64.2152 19.324C64.2152 18.9133 64.1639 18.5167 64.0612 18.134C63.9586 17.742 63.8046 17.3967 63.5992 17.098C63.3939 16.7993 63.1372 16.5613 62.8292 16.384C62.5306 16.2067 62.1852 16.118 61.7932 16.118C61.4012 16.118 61.0559 16.2067 60.7572 16.384C60.4679 16.5613 60.2206 16.7993 60.0152 17.098C59.8099 17.3967 59.6559 17.742 59.5532 18.134C59.4506 18.5167 59.3992 18.9133 59.3992 19.324ZM72.2797 24L72.2097 23.468C71.883 23.7293 71.547 23.9067 71.2017 24C70.8563 24.0933 70.5157 24.14 70.1797 24.14C69.741 24.14 69.3583 24.0747 69.0317 23.944C68.7143 23.804 68.4483 23.608 68.2337 23.356C68.0283 23.104 67.8743 22.8053 67.7717 22.46C67.6783 22.1053 67.6317 21.7087 67.6317 21.27V17.434L69.4657 17.154V21.088C69.4657 21.34 69.4797 21.564 69.5077 21.76C69.545 21.956 69.6057 22.124 69.6897 22.264C69.7737 22.404 69.8903 22.5113 70.0397 22.586C70.1983 22.6513 70.399 22.684 70.6417 22.684C70.9963 22.684 71.295 22.614 71.5377 22.474C71.7803 22.3247 71.9763 22.1893 72.1257 22.068V17.252H73.9597V24H72.2797ZM78.7631 24.154C78.1938 24.154 77.6944 24.0513 77.2651 23.846C76.8451 23.6407 76.4904 23.37 76.2011 23.034C75.9211 22.698 75.7111 22.32 75.5711 21.9C75.4311 21.4707 75.3611 21.0367 75.3611 20.598C75.3611 20.1593 75.4311 19.73 75.5711 19.31C75.7111 18.89 75.9211 18.5167 76.2011 18.19C76.4904 17.854 76.8451 17.588 77.2651 17.392C77.6944 17.1867 78.1938 17.084 78.7631 17.084C79.3324 17.084 79.8271 17.1867 80.2471 17.392C80.6764 17.588 81.0311 17.854 81.3111 18.19C81.6004 18.5167 81.8151 18.89 81.9551 19.31C82.0951 19.73 82.1651 20.1593 82.1651 20.598C82.1651 21.0367 82.0951 21.4707 81.9551 21.9C81.8151 22.32 81.6004 22.698 81.3111 23.034C81.0311 23.37 80.6764 23.6407 80.2471 23.846C79.8271 24.0513 79.3324 24.154 78.7631 24.154ZM77.1531 20.598C77.1531 20.8873 77.1858 21.158 77.2511 21.41C77.3258 21.6527 77.4284 21.8673 77.5591 22.054C77.6991 22.2407 77.8671 22.39 78.0631 22.502C78.2684 22.6047 78.5018 22.656 78.7631 22.656C79.0244 22.656 79.2531 22.6047 79.4491 22.502C79.6544 22.39 79.8224 22.2407 79.9531 22.054C80.0931 21.8673 80.1958 21.6527 80.2611 21.41C80.3358 21.158 80.3731 20.8873 80.3731 20.598C80.3731 20.318 80.3358 20.052 80.2611 19.8C80.1958 19.548 80.0931 19.3333 79.9531 19.156C79.8224 18.9693 79.6544 18.8247 79.4491 18.722C79.2531 18.61 79.0244 18.554 78.7631 18.554C78.5018 18.554 78.2684 18.61 78.0631 18.722C77.8671 18.8247 77.6991 18.9693 77.5591 19.156C77.4284 19.3333 77.3258 19.548 77.2511 19.8C77.1858 20.052 77.1531 20.318 77.1531 20.598ZM85.6744 18.652V22.096C85.6744 22.3107 85.7211 22.46 85.8144 22.544C85.9171 22.6187 86.0151 22.656 86.1084 22.656C86.2951 22.656 86.4771 22.6093 86.6544 22.516C86.8317 22.4227 86.9857 22.3247 87.1164 22.222L87.7744 23.468C87.4664 23.6733 87.1444 23.8413 86.8084 23.972C86.4724 24.0933 86.1084 24.154 85.7164 24.154C85.4831 24.154 85.2544 24.1213 85.0304 24.056C84.8064 23.9907 84.6057 23.888 84.4284 23.748C84.2604 23.608 84.1204 23.426 84.0084 23.202C83.9057 22.9687 83.8544 22.6887 83.8544 22.362V18.652H82.8604V17.252H83.8544V15.684L85.6744 15.404V17.252H87.4244L87.2004 18.652H85.6744ZM90.1287 21.06C90.1567 21.34 90.2174 21.5827 90.3107 21.788C90.404 21.9933 90.5207 22.1613 90.6607 22.292C90.8007 22.4227 90.9547 22.5207 91.1227 22.586C91.3 22.642 91.482 22.67 91.6687 22.67C91.9954 22.67 92.2894 22.614 92.5507 22.502C92.812 22.3807 93.0827 22.124 93.3627 21.732L94.7207 22.558C94.3287 23.146 93.8807 23.5613 93.3767 23.804C92.882 24.0373 92.294 24.154 91.6127 24.154C91.1647 24.154 90.74 24.084 90.3387 23.944C89.9374 23.804 89.5827 23.5893 89.2747 23.3C88.976 23.0013 88.738 22.6327 88.5607 22.194C88.3834 21.7553 88.2947 21.2327 88.2947 20.626C88.2947 20.0567 88.3787 19.5527 88.5467 19.114C88.724 18.6753 88.962 18.3067 89.2607 18.008C89.5594 17.7093 89.9047 17.4807 90.2967 17.322C90.698 17.1633 91.1227 17.084 91.5707 17.084C92.5134 17.084 93.2694 17.4153 93.8387 18.078C94.4174 18.7313 94.716 19.7253 94.7347 21.06H90.1287ZM92.8727 19.814C92.854 19.59 92.8027 19.394 92.7187 19.226C92.644 19.058 92.546 18.918 92.4247 18.806C92.3034 18.694 92.168 18.61 92.0187 18.554C91.8694 18.498 91.72 18.47 91.5707 18.47C91.2534 18.47 90.9547 18.5913 90.6747 18.834C90.3947 19.0673 90.2267 19.394 90.1707 19.814H92.8727Z" fill="white"/>
</svg>
