<svg width="22" height="15" viewBox="0 0 22 15" fill="none" xmlns="http://www.w3.org/2000/svg">
<path d="M11 10.4189C12.215 10.4189 13.2 11.3832 13.2 12.5727C13.2 13.7622 12.215 14.7266 11 14.7266C10.5856 14.7266 10.198 14.6144 9.86706 14.4194L6.6 12.5727L9.86711 10.726C10.198 10.531 10.5856 10.4189 11 10.4189ZM11 0.726562C17.0751 0.726562 22 5.54811 22 11.4958V13.1112H16.5V11.4958C16.5 8.52198 14.0375 6.11118 11 6.11118C7.96241 6.11118 5.5 8.52198 5.5 11.4958V13.1112H0V11.4958C0 5.54811 4.92487 0.726562 11 0.726562ZM20.35 11.4958C20.35 9.16485 19.46 7.03739 17.9947 5.4213L16.4355 6.94784C17.5044 8.17122 18.15 9.75969 18.15 11.4958H20.35ZM4.79375 4.6492L6.35294 6.17569C7.46928 5.24022 8.88355 4.63563 10.4371 4.51717V2.35826C8.27668 2.48389 6.31367 3.32766 4.79375 4.6492ZM15.6586 6.18543L17.2176 4.65911C15.6901 3.32663 13.7132 2.47748 11.5371 2.35681V4.51529C13.1062 4.62939 14.5344 5.23925 15.6586 6.18543ZM1.65 11.4958H3.85C3.85 9.7543 4.49955 8.16137 5.57441 6.93653L4.01538 5.41015C2.54402 7.02759 1.65 9.15952 1.65 11.4958Z" fill="#6E7A89"/>
</svg>
