<svg width="24" height="24" viewBox="0 0 24 24" fill="none" xmlns="http://www.w3.org/2000/svg">
  <mask id="a" style="mask-type:luminance" maskUnits="userSpaceOnUse" x="0" y="0" width="24" height="24">
    <path d="M0 0h24v24H0z" fill="#fff"/>
  </mask>
  <g mask="url(#a)" fill="#5856D6">
    <path d="M2.234 9.035c0-1.114 1.238-3.218 2.847-3.837s4.084-.619 7.426-.619c3.589 0 7.178.62 7.178.62l-2.846-2.847L18.075 0l6.683 6.807-6.807 6.807-1.237-2.352 2.846-2.846s-3.589-.619-7.302-.619c-3.218 0-5.693 0-7.302.619s-2.723 4.58-2.723 4.58z"/>
    <path d="M22.533 15.962c0 1.114-1.238 3.218-2.847 3.837s-4.084.619-7.426.619c-3.589 0-7.178-.62-7.178-.62l2.847 2.847-1.238 2.352L.008 18.19l6.807-6.807 1.237 2.351-2.846 2.847s3.589.619 7.302.619c3.218 0 5.693 0 7.302-.62 1.609-.618 2.723-4.578 2.723-4.578z"/>
  </g>
</svg>
