<svg width="119" height="40" viewBox="0 0 119 40" fill="none" xmlns="http://www.w3.org/2000/svg"><path d="M4 .5h111a3.5 3.5 0 0 1 3.5 3.5v32a3.5 3.5 0 0 1-3.5 3.5H4A3.5 3.5 0 0 1 .5 36V4A3.5 3.5 0 0 1 4 .5" fill="#fff" fill-opacity=".8"/><path d="M4 .5h111a3.5 3.5 0 0 1 3.5 3.5v32a3.5 3.5 0 0 1-3.5 3.5H4A3.5 3.5 0 0 1 .5 36V4A3.5 3.5 0 0 1 4 .5Z" stroke="#38AEE0" stroke-linecap="round"/><path d="M37.856 25v-7.644H35.07v-1.694h7.462v1.694H39.76V25zm4.958 0v-6.58l1.652-.252.098.672q.378-.405.756-.56.392-.168.812-.168.239 0 .504.056a4 4 0 0 1 .546.154l-.322 1.582a3.5 3.5 0 0 0-.532-.168 1.7 1.7 0 0 0-.476-.07q-.392 0-.714.182a1.7 1.7 0 0 0-.49.42V25zm8.797 0-.084-.504a2.1 2.1 0 0 1-.756.49q-.448.168-.994.168-.449 0-.882-.154a2.3 2.3 0 0 1-.742-.406 2.2 2.2 0 0 1-.518-.672 2.1 2.1 0 0 1-.196-.91q0-.742.392-1.19.406-.462 1.008-.714a5.2 5.2 0 0 1 1.302-.35q.7-.098 1.302-.14v-.224q0-.42-.252-.658-.238-.252-.728-.252-.392 0-.714.168a1.7 1.7 0 0 0-.546.434l-1.246-.868a2.6 2.6 0 0 1 .602-.56q.35-.224.7-.35.364-.126.714-.168.35-.056.644-.056.588 0 1.078.154.49.14.84.462.365.307.56.798.196.476.196 1.162V25zm-.154-3.15q-.392.028-.798.07-.392.042-.714.154a1.3 1.3 0 0 0-.532.336q-.196.21-.196.56 0 .336.252.546.252.195.742.196.35 0 .672-.14a2 2 0 0 0 .574-.35zM55.064 25v-6.58l1.652-.252.098.616a3.1 3.1 0 0 1 .966-.518 3.4 3.4 0 0 1 1.092-.182q1.344 0 1.946.798.602.784.602 2.128V25h-1.834v-3.85q0-.392-.042-.686a1.2 1.2 0 0 0-.168-.504.74.74 0 0 0-.364-.308q-.237-.112-.63-.112-.405 0-.812.196a2.6 2.6 0 0 0-.672.476V25zm8.99-2.268q.237.448.671.756.434.294 1.148.294 1.106 0 1.106-.658a.54.54 0 0 0-.07-.266.6.6 0 0 0-.238-.238 2.3 2.3 0 0 0-.49-.21 8 8 0 0 0-.784-.196 8 8 0 0 1-.98-.266 3 3 0 0 1-.742-.406 1.8 1.8 0 0 1-.476-.588 1.9 1.9 0 0 1-.168-.84q0-.449.196-.812.196-.378.546-.644.364-.28.882-.42a4 4 0 0 1 1.148-.154q1.148 0 1.82.378.672.364 1.036.896l-1.288.882a2.1 2.1 0 0 0-.644-.56 1.83 1.83 0 0 0-.924-.224q-.574 0-.812.182a.53.53 0 0 0-.224.448q0 .322.28.462t1.036.294q.616.126 1.092.308.49.168.826.42a1.6 1.6 0 0 1 .504.616q.182.35.182.854 0 .546-.224.952-.225.391-.616.658-.392.252-.924.378a5 5 0 0 1-1.134.126q-1.204 0-1.96-.448a3.25 3.25 0 0 1-1.134-1.148zM70.382 25v-5.348h-.938v-1.4h.938v-.238q0-.671.182-1.148.181-.476.49-.784.322-.323.742-.462.434-.154.938-.154.672 0 1.162.112.504.098.91.294l-.532 1.4a2.9 2.9 0 0 0-1.246-.28.83.83 0 0 0-.588.224q-.238.224-.238.812v.224h1.638l-.224 1.4h-1.4V25zm5.646-2.94q.042.42.182.728t.35.504.462.294q.266.084.546.084.49 0 .882-.168.392-.182.812-.77l1.358.826q-.588.882-1.344 1.246-.743.35-1.764.35a3.8 3.8 0 0 1-1.274-.21 3 3 0 0 1-1.064-.644 3.3 3.3 0 0 1-.714-1.106q-.266-.658-.266-1.568 0-.854.252-1.512.266-.658.714-1.106a3.1 3.1 0 0 1 1.036-.686 3.4 3.4 0 0 1 1.274-.238q1.415 0 2.268.994.868.98.896 2.982zm2.744-1.246a1.6 1.6 0 0 0-.154-.588 1.23 1.23 0 0 0-.7-.672 1.3 1.3 0 0 0-.448-.084q-.476 0-.896.364-.42.35-.504.98zM81.971 25v-6.58l1.651-.252.099.672q.378-.405.755-.56.392-.168.813-.168.237 0 .504.056.266.056.545.154l-.322 1.582a3.5 3.5 0 0 0-.532-.168 1.7 1.7 0 0 0-.475-.07q-.393 0-.715.182a1.7 1.7 0 0 0-.49.42V25zm9.216 0-2.128-9.338h1.89l1.148 5.544 1.82-5.544h1.162l1.82 5.544 1.176-5.544h1.876L97.809 25h-1.19l-2.128-6.258L92.377 25zm9.846 0v-9.338h6.356v1.694h-4.466v2.212h3.556v1.666h-3.556V25zM25.805 12.663a.49.49 0 0 1-.01.694.49.49 0 0 1-.694-.01 9.44 9.44 0 0 0-6.692-2.865 9.45 9.45 0 0 0-6.627 2.588l.902.01a.49.49 0 0 1 .486.495.494.494 0 0 1-.491.486h-.005l-2.092-.025a.49.49 0 0 1-.486-.495l.02-2.087a.494.494 0 0 1 .49-.486h.006a.49.49 0 0 1 .485.496l-.01.912A10.44 10.44 0 0 1 18.42 9.5c2.806.04 5.428 1.16 7.386 3.162M11.503 26.651a9.45 9.45 0 0 0 6.692 2.866 9.45 9.45 0 0 0 6.627-2.588l-.902-.01a.492.492 0 0 1 .005-.982h.005l2.092.025a.49.49 0 0 1 .486.496l-.025 2.092a.494.494 0 0 1-.49.486h-.006a.49.49 0 0 1-.485-.496l.01-.912a10.42 10.42 0 0 1-7.208 2.875h-.124a10.45 10.45 0 0 1-7.386-3.158.49.49 0 0 1 .01-.694.49.49 0 0 1 .698 0m14.903-6.887c0-.164.084-.318.218-.407a.31.31 0 0 0 .139-.262v-1.79c0-.62-.501-1.12-1.12-1.12h-.387c-.62 0-1.12.5-1.12 1.12v1.79c0 .104.054.203.138.262a.48.48 0 0 1 .218.407v1.725a.56.56 0 0 1-.322.51 13.8 13.8 0 0 0-2.449 1.572.38.38 0 0 0-.134.292v1.225c0 .272-.218.49-.49.49a.49.49 0 0 1-.491-.49v-1.225c0-.406.178-.788.496-1.05a14.4 14.4 0 0 1 2.409-1.577v-1.244a1.3 1.3 0 0 1-.362-.898v-1.789c0-1.16.942-2.102 2.102-2.102h.386c1.16 0 2.102.942 2.102 2.102v1.79c0 .337-.129.659-.362.897v1.244c.471.243 1.473.808 2.41 1.576.312.258.495.64.495 1.051v1.225c0 .272-.218.49-.49.49a.49.49 0 0 1-.491-.49v-1.225a.4.4 0 0 0-.134-.292 13.5 13.5 0 0 0-2.449-1.572.58.58 0 0 1-.322-.51v-1.725zM6.491 22.82a14.4 14.4 0 0 1 2.41-1.576V20a1.3 1.3 0 0 1-.362-.898v-1.79c0-1.16.941-2.101 2.101-2.101h.387c1.16 0 2.102.942 2.102 2.102v1.79c0 .336-.129.659-.362.896v1.24c.47.243 1.472.808 2.41 1.576.312.258.495.64.495 1.051v1.224a.49.49 0 0 1-.49.491.49.49 0 0 1-.492-.49v-1.225a.4.4 0 0 0-.133-.292 13.5 13.5 0 0 0-2.45-1.572.57.57 0 0 1-.317-.51v-1.725c0-.164.085-.318.219-.407a.31.31 0 0 0 .138-.263v-1.79c0-.619-.5-1.12-1.12-1.12h-.387c-.62 0-1.12.501-1.12 1.12v1.79c0 .104.055.204.139.263a.48.48 0 0 1 .218.407v1.725a.57.57 0 0 1-.317.51c-.223.11-1.383.694-2.45 1.572a.38.38 0 0 0-.133.292v1.224a.49.49 0 0 1-.49.491.49.49 0 0 1-.491-.49v-1.225a1.37 1.37 0 0 1 .495-1.046" fill="#38AEE0"/></svg>