<svg width="768" height="67" viewBox="0 0 768 67" fill="none" xmlns="http://www.w3.org/2000/svg">
<rect x="0.75" y="0.75" width="766.5" height="65.5" rx="10.25" stroke="#D0D5DD" stroke-width="0.5" stroke-dasharray="4 4"/>
<line x1="407.5" y1="11" x2="407.5" y2="57" stroke="#ECEAEA"/>
<rect x="6" y="6" width="394" height="56" rx="8" fill="white"/>
<rect x="415" y="4" width="348" height="56" rx="10" fill="white"/>
<path d="M452 14L458 20V48C458 49.1046 457.105 50 456 50H430C428.895 50 428 49.1046 428 48V16C428 14.8954 428.895 14 430 14H452Z" fill="#E4E7EC"/>
<path d="M458 20H452V14L458 20Z" fill="#98A2B3"/>
<rect x="426.5" y="29" width="33" height="15" rx="2" fill="#CC400C"/>
<path d="M434 40V33H436.677C437.225 33 437.685 33.1003 438.057 33.3008C438.431 33.5013 438.713 33.777 438.904 34.1279C439.096 34.4766 439.193 34.873 439.193 35.3174C439.193 35.7663 439.096 36.165 438.904 36.5137C438.711 36.8623 438.426 37.1369 438.05 37.3374C437.673 37.5356 437.21 37.6348 436.659 37.6348H434.885V36.5923H436.485C436.806 36.5923 437.068 36.5376 437.273 36.4282C437.477 36.3188 437.628 36.1685 437.726 35.9771C437.826 35.7856 437.876 35.5658 437.876 35.3174C437.876 35.069 437.826 34.8503 437.726 34.6611C437.628 34.472 437.476 34.325 437.269 34.2202C437.065 34.1131 436.801 34.0596 436.478 34.0596H435.293V40H434Z" fill="white"/>
<path d="M442.735 40H440.316V33H442.783C443.492 33 444.101 33.1401 444.61 33.4204C445.121 33.6984 445.514 34.0983 445.788 34.6201C446.062 35.1419 446.199 35.7663 446.199 36.4932C446.199 37.2223 446.061 37.849 445.784 38.373C445.51 38.8971 445.114 39.2993 444.596 39.5796C444.08 39.8599 443.46 40 442.735 40ZM441.609 38.9028H442.672C443.169 38.9028 443.584 38.814 443.916 38.6362C444.248 38.4562 444.498 38.1885 444.665 37.833C444.833 37.4753 444.916 37.0286 444.916 36.4932C444.916 35.9577 444.833 35.5133 444.665 35.1602C444.498 34.8047 444.251 34.5392 443.923 34.3638C443.598 34.186 443.194 34.0972 442.71 34.0972H441.609V38.9028Z" fill="white"/>
<path d="M447.427 40V33H452V34.063H448.72V35.9634H451.686V37.0264H448.72V40H447.427Z" fill="white"/>
</svg>
