<svg width="806" height="94" viewBox="0 0 806 94" fill="none" xmlns="http://www.w3.org/2000/svg">
<rect x="0.75" y="10.75" width="804.5" height="62.5" rx="7.25" stroke="#C6C6C6" stroke-width="1.5" stroke-dasharray="4 4"/>
<rect x="392" y="13" width="411" height="56" rx="8" fill="white"/>
<line x1="402.5" y1="18" x2="402.5" y2="64" stroke="#ECEAEA"/>
<path d="M420.25 36.016C419.093 35.9787 418.211 35.792 417.604 35.456C416.997 35.1293 416.582 34.6627 416.358 34.056C415.817 33.9253 415.341 33.706 414.93 33.398C414.529 33.0807 414.193 32.7073 413.922 32.278C413.661 31.8487 413.46 31.382 413.32 30.878C413.189 30.3647 413.124 29.8467 413.124 29.324C413.124 28.7267 413.213 28.1387 413.39 27.56C413.567 26.972 413.833 26.4493 414.188 25.992C414.543 25.5347 414.991 25.166 415.532 24.886C416.073 24.606 416.703 24.466 417.422 24.466C418.15 24.466 418.785 24.606 419.326 24.886C419.867 25.166 420.32 25.5347 420.684 25.992C421.048 26.4493 421.319 26.972 421.496 27.56C421.673 28.1387 421.762 28.7267 421.762 29.324C421.762 29.8187 421.697 30.3133 421.566 30.808C421.435 31.3027 421.239 31.7647 420.978 32.194C420.726 32.614 420.409 32.9873 420.026 33.314C419.643 33.6313 419.2 33.8647 418.696 34.014C418.799 34.21 418.999 34.3407 419.298 34.406C419.597 34.4807 419.989 34.518 420.474 34.518L420.25 36.016ZM415.028 29.324C415.028 29.6693 415.07 30.0333 415.154 30.416C415.247 30.7893 415.387 31.1347 415.574 31.452C415.761 31.76 416.003 32.0167 416.302 32.222C416.61 32.4273 416.983 32.53 417.422 32.53C417.814 32.53 418.159 32.4413 418.458 32.264C418.766 32.0867 419.023 31.8487 419.228 31.55C419.433 31.2513 419.587 30.9107 419.69 30.528C419.793 30.136 419.844 29.7347 419.844 29.324C419.844 28.9133 419.793 28.5167 419.69 28.134C419.587 27.742 419.433 27.3967 419.228 27.098C419.023 26.7993 418.766 26.5613 418.458 26.384C418.159 26.2067 417.814 26.118 417.422 26.118C417.03 26.118 416.685 26.2067 416.386 26.384C416.097 26.5613 415.849 26.7993 415.644 27.098C415.439 27.3967 415.285 27.742 415.182 28.134C415.079 28.5167 415.028 28.9133 415.028 29.324ZM427.909 34L427.839 33.468C427.512 33.7293 427.176 33.9067 426.831 34C426.485 34.0933 426.145 34.14 425.809 34.14C425.37 34.14 424.987 34.0747 424.661 33.944C424.343 33.804 424.077 33.608 423.863 33.356C423.657 33.104 423.503 32.8053 423.401 32.46C423.307 32.1053 423.261 31.7087 423.261 31.27V27.434L425.095 27.154V31.088C425.095 31.34 425.109 31.564 425.137 31.76C425.174 31.956 425.235 32.124 425.319 32.264C425.403 32.404 425.519 32.5113 425.669 32.586C425.827 32.6513 426.028 32.684 426.271 32.684C426.625 32.684 426.924 32.614 427.167 32.474C427.409 32.3247 427.605 32.1893 427.755 32.068V27.252H429.589V34H427.909ZM434.392 34.154C433.823 34.154 433.323 34.0513 432.894 33.846C432.474 33.6407 432.119 33.37 431.83 33.034C431.55 32.698 431.34 32.32 431.2 31.9C431.06 31.4707 430.99 31.0367 430.99 30.598C430.99 30.1593 431.06 29.73 431.2 29.31C431.34 28.89 431.55 28.5167 431.83 28.19C432.119 27.854 432.474 27.588 432.894 27.392C433.323 27.1867 433.823 27.084 434.392 27.084C434.961 27.084 435.456 27.1867 435.876 27.392C436.305 27.588 436.66 27.854 436.94 28.19C437.229 28.5167 437.444 28.89 437.584 29.31C437.724 29.73 437.794 30.1593 437.794 30.598C437.794 31.0367 437.724 31.4707 437.584 31.9C437.444 32.32 437.229 32.698 436.94 33.034C436.66 33.37 436.305 33.6407 435.876 33.846C435.456 34.0513 434.961 34.154 434.392 34.154ZM432.782 30.598C432.782 30.8873 432.815 31.158 432.88 31.41C432.955 31.6527 433.057 31.8673 433.188 32.054C433.328 32.2407 433.496 32.39 433.692 32.502C433.897 32.6047 434.131 32.656 434.392 32.656C434.653 32.656 434.882 32.6047 435.078 32.502C435.283 32.39 435.451 32.2407 435.582 32.054C435.722 31.8673 435.825 31.6527 435.89 31.41C435.965 31.158 436.002 30.8873 436.002 30.598C436.002 30.318 435.965 30.052 435.89 29.8C435.825 29.548 435.722 29.3333 435.582 29.156C435.451 28.9693 435.283 28.8247 435.078 28.722C434.882 28.61 434.653 28.554 434.392 28.554C434.131 28.554 433.897 28.61 433.692 28.722C433.496 28.8247 433.328 28.9693 433.188 29.156C433.057 29.3333 432.955 29.548 432.88 29.8C432.815 30.052 432.782 30.318 432.782 30.598ZM441.303 28.652V32.096C441.303 32.3107 441.35 32.46 441.443 32.544C441.546 32.6187 441.644 32.656 441.737 32.656C441.924 32.656 442.106 32.6093 442.283 32.516C442.461 32.4227 442.615 32.3247 442.745 32.222L443.403 33.468C443.095 33.6733 442.773 33.8413 442.437 33.972C442.101 34.0933 441.737 34.154 441.345 34.154C441.112 34.154 440.883 34.1213 440.659 34.056C440.435 33.9907 440.235 33.888 440.057 33.748C439.889 33.608 439.749 33.426 439.637 33.202C439.535 32.9687 439.483 32.6887 439.483 32.362V28.652H438.489V27.252H439.483V25.684L441.303 25.404V27.252H443.053L442.829 28.652H441.303ZM445.758 31.06C445.786 31.34 445.846 31.5827 445.94 31.788C446.033 31.9933 446.15 32.1613 446.29 32.292C446.43 32.4227 446.584 32.5207 446.752 32.586C446.929 32.642 447.111 32.67 447.298 32.67C447.624 32.67 447.918 32.614 448.18 32.502C448.441 32.3807 448.712 32.124 448.992 31.732L450.35 32.558C449.958 33.146 449.51 33.5613 449.006 33.804C448.511 34.0373 447.923 34.154 447.242 34.154C446.794 34.154 446.369 34.084 445.968 33.944C445.566 33.804 445.212 33.5893 444.904 33.3C444.605 33.0013 444.367 32.6327 444.19 32.194C444.012 31.7553 443.924 31.2327 443.924 30.626C443.924 30.0567 444.008 29.5527 444.176 29.114C444.353 28.6753 444.591 28.3067 444.89 28.008C445.188 27.7093 445.534 27.4807 445.926 27.322C446.327 27.1633 446.752 27.084 447.2 27.084C448.142 27.084 448.898 27.4153 449.468 28.078C450.046 28.7313 450.345 29.7253 450.364 31.06H445.758ZM448.502 29.814C448.483 29.59 448.432 29.394 448.348 29.226C448.273 29.058 448.175 28.918 448.054 28.806C447.932 28.694 447.797 28.61 447.648 28.554C447.498 28.498 447.349 28.47 447.2 28.47C446.882 28.47 446.584 28.5913 446.304 28.834C446.024 29.0673 445.856 29.394 445.8 29.814H448.502ZM458.814 34L458.73 33.482C458.562 33.6593 458.342 33.818 458.072 33.958C457.801 34.0887 457.479 34.154 457.106 34.154C456.611 34.154 456.177 34.0607 455.804 33.874C455.43 33.6873 455.113 33.4353 454.852 33.118C454.6 32.7913 454.408 32.4133 454.278 31.984C454.147 31.5547 454.082 31.0927 454.082 30.598C454.082 30.1593 454.152 29.73 454.292 29.31C454.432 28.89 454.642 28.5167 454.922 28.19C455.202 27.854 455.552 27.588 455.972 27.392C456.392 27.1867 456.886 27.084 457.456 27.084C457.82 27.084 458.221 27.1493 458.66 27.28V24.746L460.48 24.466V34H458.814ZM458.66 28.75C458.296 28.6193 457.969 28.554 457.68 28.554C457.372 28.554 457.101 28.61 456.868 28.722C456.644 28.834 456.457 28.988 456.308 29.184C456.158 29.3707 456.046 29.5853 455.972 29.828C455.897 30.0613 455.86 30.304 455.86 30.556C455.86 30.8453 455.888 31.1207 455.944 31.382C456.009 31.634 456.107 31.858 456.238 32.054C456.368 32.2407 456.532 32.39 456.728 32.502C456.933 32.614 457.18 32.67 457.47 32.67C457.694 32.67 457.922 32.614 458.156 32.502C458.389 32.3807 458.557 32.2407 458.66 32.082V28.75ZM463.709 31.06C463.737 31.34 463.797 31.5827 463.891 31.788C463.984 31.9933 464.101 32.1613 464.241 32.292C464.381 32.4227 464.535 32.5207 464.703 32.586C464.88 32.642 465.062 32.67 465.249 32.67C465.575 32.67 465.869 32.614 466.131 32.502C466.392 32.3807 466.663 32.124 466.943 31.732L468.301 32.558C467.909 33.146 467.461 33.5613 466.957 33.804C466.462 34.0373 465.874 34.154 465.193 34.154C464.745 34.154 464.32 34.084 463.919 33.944C463.517 33.804 463.163 33.5893 462.855 33.3C462.556 33.0013 462.318 32.6327 462.141 32.194C461.963 31.7553 461.875 31.2327 461.875 30.626C461.875 30.0567 461.959 29.5527 462.127 29.114C462.304 28.6753 462.542 28.3067 462.841 28.008C463.139 27.7093 463.485 27.4807 463.877 27.322C464.278 27.1633 464.703 27.084 465.151 27.084C466.093 27.084 466.849 27.4153 467.419 28.078C467.997 28.7313 468.296 29.7253 468.315 31.06H463.709ZM466.453 29.814C466.434 29.59 466.383 29.394 466.299 29.226C466.224 29.058 466.126 28.918 466.005 28.806C465.883 28.694 465.748 28.61 465.599 28.554C465.449 28.498 465.3 28.47 465.151 28.47C464.833 28.47 464.535 28.5913 464.255 28.834C463.975 29.0673 463.807 29.394 463.751 29.814H466.453ZM471.764 28.652V32.096C471.764 32.3107 471.811 32.46 471.904 32.544C472.007 32.6187 472.105 32.656 472.198 32.656C472.385 32.656 472.567 32.6093 472.744 32.516C472.922 32.4227 473.076 32.3247 473.206 32.222L473.864 33.468C473.556 33.6733 473.234 33.8413 472.898 33.972C472.562 34.0933 472.198 34.154 471.806 34.154C471.573 34.154 471.344 34.1213 471.12 34.056C470.896 33.9907 470.696 33.888 470.518 33.748C470.35 33.608 470.21 33.426 470.098 33.202C469.996 32.9687 469.944 32.6887 469.944 32.362V28.652H468.95V27.252H469.944V25.684L471.764 25.404V27.252H473.514L473.29 28.652H471.764ZM478.543 34L478.459 33.496C478.263 33.7013 478.011 33.8647 477.703 33.986C477.404 34.098 477.073 34.154 476.709 34.154C476.41 34.154 476.116 34.1027 475.827 34C475.547 33.9067 475.299 33.7713 475.085 33.594C474.87 33.4073 474.697 33.1833 474.567 32.922C474.436 32.6513 474.371 32.348 474.371 32.012C474.371 31.5173 474.501 31.1207 474.763 30.822C475.033 30.514 475.369 30.276 475.771 30.108C476.172 29.94 476.606 29.8233 477.073 29.758C477.539 29.6927 477.973 29.646 478.375 29.618V29.394C478.375 29.114 478.291 28.8947 478.123 28.736C477.964 28.568 477.721 28.484 477.395 28.484C477.133 28.484 476.895 28.54 476.681 28.652C476.475 28.7547 476.293 28.8993 476.135 29.086L474.889 28.218C475.066 27.994 475.267 27.8073 475.491 27.658C475.724 27.5087 475.957 27.392 476.191 27.308C476.433 27.224 476.671 27.168 476.905 27.14C477.138 27.1027 477.353 27.084 477.549 27.084C477.941 27.084 478.3 27.1353 478.627 27.238C478.953 27.3313 479.233 27.4853 479.467 27.7C479.709 27.9053 479.896 28.1713 480.027 28.498C480.157 28.8153 480.223 29.2027 480.223 29.66V34H478.543ZM478.389 30.85C478.127 30.8687 477.861 30.892 477.591 30.92C477.329 30.948 477.091 30.9993 476.877 31.074C476.662 31.1487 476.485 31.2607 476.345 31.41C476.214 31.55 476.149 31.7367 476.149 31.97C476.149 32.194 476.233 32.376 476.401 32.516C476.569 32.6467 476.816 32.712 477.143 32.712C477.376 32.712 477.6 32.6653 477.815 32.572C478.039 32.4787 478.23 32.362 478.389 32.222V30.85ZM482.906 26.482C482.542 26.482 482.267 26.3793 482.08 26.174C481.903 25.9687 481.814 25.74 481.814 25.488C481.814 25.2453 481.903 25.0213 482.08 24.816C482.267 24.6107 482.542 24.508 482.906 24.508C483.27 24.508 483.541 24.6107 483.718 24.816C483.905 25.0213 483.998 25.2453 483.998 25.488C483.998 25.74 483.905 25.9687 483.718 26.174C483.541 26.3793 483.27 26.482 482.906 26.482ZM481.996 34V27.434L483.816 27.154V34H481.996ZM485.633 34V24.746L487.467 24.466V34H485.633ZM490.137 31.732C490.296 32.0307 490.52 32.2827 490.809 32.488C491.098 32.684 491.481 32.782 491.957 32.782C492.694 32.782 493.063 32.5627 493.063 32.124C493.063 32.0307 493.04 31.942 492.993 31.858C492.956 31.774 492.876 31.6947 492.755 31.62C492.634 31.5453 492.47 31.4753 492.265 31.41C492.06 31.3447 491.798 31.2793 491.481 31.214C491.126 31.1393 490.8 31.0507 490.501 30.948C490.212 30.836 489.964 30.7007 489.759 30.542C489.554 30.374 489.395 30.178 489.283 29.954C489.171 29.7207 489.115 29.4407 489.115 29.114C489.115 28.8153 489.18 28.5447 489.311 28.302C489.442 28.05 489.624 27.8353 489.857 27.658C490.1 27.4713 490.394 27.3313 490.739 27.238C491.084 27.1353 491.467 27.084 491.887 27.084C492.652 27.084 493.259 27.21 493.707 27.462C494.155 27.7047 494.5 28.0033 494.743 28.358L493.455 29.24C493.287 29.016 493.072 28.8293 492.811 28.68C492.55 28.5307 492.242 28.456 491.887 28.456C491.504 28.456 491.234 28.5167 491.075 28.638C490.926 28.75 490.851 28.8993 490.851 29.086C490.851 29.3007 490.944 29.4547 491.131 29.548C491.318 29.6413 491.663 29.7393 492.167 29.842C492.578 29.926 492.942 30.0287 493.259 30.15C493.586 30.262 493.861 30.402 494.085 30.57C494.309 30.738 494.477 30.9433 494.589 31.186C494.71 31.4193 494.771 31.704 494.771 32.04C494.771 32.404 494.696 32.7213 494.547 32.992C494.398 33.2533 494.192 33.4727 493.931 33.65C493.67 33.818 493.362 33.944 493.007 34.028C492.652 34.112 492.274 34.154 491.873 34.154C491.07 34.154 490.417 34.0047 489.913 33.706C489.418 33.398 489.04 33.0153 488.779 32.558L490.137 31.732ZM496.736 34.154C496.381 34.154 496.12 34.0513 495.952 33.846C495.784 33.6313 495.7 33.398 495.7 33.146C495.7 32.8847 495.784 32.6513 495.952 32.446C496.12 32.2313 496.381 32.124 496.736 32.124C497.072 32.124 497.324 32.2313 497.492 32.446C497.66 32.6513 497.744 32.8847 497.744 33.146C497.744 33.398 497.66 33.6313 497.492 33.846C497.333 34.0513 497.081 34.154 496.736 34.154ZM499.181 36.646V27.42L500.833 27.168L500.931 27.756C501.099 27.5973 501.319 27.448 501.589 27.308C501.869 27.1587 502.205 27.084 502.597 27.084C503.092 27.084 503.521 27.1727 503.885 27.35C504.259 27.5273 504.567 27.77 504.809 28.078C505.052 28.386 505.234 28.7547 505.355 29.184C505.477 29.604 505.537 30.066 505.537 30.57C505.537 31.0087 505.467 31.4427 505.327 31.872C505.187 32.3013 504.968 32.684 504.669 33.02C504.38 33.356 504.011 33.6313 503.563 33.846C503.115 34.0513 502.579 34.154 501.953 34.154C501.795 34.154 501.631 34.1353 501.463 34.098C501.295 34.0607 501.146 34.014 501.015 33.958V36.646H499.181ZM501.001 32.446C501.309 32.5767 501.594 32.642 501.855 32.642C502.191 32.642 502.476 32.586 502.709 32.474C502.952 32.362 503.148 32.2127 503.297 32.026C503.456 31.83 503.573 31.6107 503.647 31.368C503.722 31.1253 503.759 30.878 503.759 30.626C503.759 30.346 503.731 30.08 503.675 29.828C503.619 29.5667 503.531 29.3427 503.409 29.156C503.288 28.9693 503.129 28.82 502.933 28.708C502.737 28.596 502.499 28.54 502.219 28.54C501.967 28.54 501.729 28.61 501.505 28.75C501.281 28.8807 501.113 29.0253 501.001 29.184V32.446ZM511.245 34L511.161 33.482C510.993 33.6593 510.774 33.818 510.503 33.958C510.233 34.0887 509.911 34.154 509.537 34.154C509.043 34.154 508.609 34.0607 508.235 33.874C507.862 33.6873 507.545 33.4353 507.283 33.118C507.031 32.7913 506.84 32.4133 506.709 31.984C506.579 31.5547 506.513 31.0927 506.513 30.598C506.513 30.1593 506.583 29.73 506.723 29.31C506.863 28.89 507.073 28.5167 507.353 28.19C507.633 27.854 507.983 27.588 508.403 27.392C508.823 27.1867 509.318 27.084 509.887 27.084C510.251 27.084 510.653 27.1493 511.091 27.28V24.746L512.911 24.466V34H511.245ZM511.091 28.75C510.727 28.6193 510.401 28.554 510.111 28.554C509.803 28.554 509.533 28.61 509.299 28.722C509.075 28.834 508.889 28.988 508.739 29.184C508.59 29.3707 508.478 29.5853 508.403 29.828C508.329 30.0613 508.291 30.304 508.291 30.556C508.291 30.8453 508.319 31.1207 508.375 31.382C508.441 31.634 508.539 31.858 508.669 32.054C508.8 32.2407 508.963 32.39 509.159 32.502C509.365 32.614 509.612 32.67 509.901 32.67C510.125 32.67 510.354 32.614 510.587 32.502C510.821 32.3807 510.989 32.2407 511.091 32.082V28.75ZM514.978 34V28.652H514.04V27.252H514.978V27.014C514.978 26.566 515.039 26.1833 515.16 25.866C515.282 25.5487 515.445 25.2873 515.65 25.082C515.865 24.8673 516.112 24.7133 516.392 24.62C516.682 24.5173 516.994 24.466 517.33 24.466C517.778 24.466 518.166 24.5033 518.492 24.578C518.828 24.6433 519.132 24.7413 519.402 24.872L518.87 26.272C518.478 26.0853 518.063 25.992 517.624 25.992C517.391 25.992 517.195 26.0667 517.036 26.216C516.878 26.3653 516.798 26.636 516.798 27.028V27.252H518.436L518.212 28.652H516.812V34H514.978Z" fill="black"/>
<path d="M415.878 58V50.09L413.778 51.434L413.232 50.664L416.032 48.816H417.012V58H415.878ZM423.439 58V50.09L421.339 51.434L420.793 50.664L423.593 48.816H424.573V58H423.439ZM431.352 55.998C431.622 56.39 431.977 56.684 432.416 56.88C432.854 57.076 433.302 57.174 433.76 57.174C434.002 57.174 434.231 57.146 434.446 57.09C434.67 57.0247 434.861 56.9313 435.02 56.81C435.188 56.6793 435.318 56.5113 435.412 56.306C435.514 56.1007 435.566 55.858 435.566 55.578C435.566 55.3167 435.505 55.088 435.384 54.892C435.262 54.6867 435.099 54.5047 434.894 54.346C434.688 54.1873 434.455 54.0473 434.194 53.926C433.932 53.7953 433.662 53.6693 433.382 53.548C433.064 53.408 432.747 53.268 432.43 53.128C432.122 52.9787 431.846 52.8013 431.604 52.596C431.361 52.3907 431.16 52.1527 431.002 51.882C430.852 51.6113 430.778 51.28 430.778 50.888C430.778 50.4867 430.857 50.1367 431.016 49.838C431.184 49.53 431.403 49.278 431.674 49.082C431.954 48.8767 432.266 48.7273 432.612 48.634C432.966 48.5313 433.335 48.48 433.718 48.48C434.306 48.48 434.87 48.5967 435.412 48.83C435.953 49.0633 436.392 49.432 436.728 49.936L435.874 50.608C435.631 50.272 435.318 50.0013 434.936 49.796C434.562 49.5813 434.152 49.474 433.704 49.474C433.144 49.474 432.714 49.5953 432.416 49.838C432.117 50.0807 431.968 50.412 431.968 50.832C431.968 51.0653 432.019 51.266 432.122 51.434C432.234 51.5927 432.383 51.7373 432.57 51.868C432.766 51.9987 432.999 52.1293 433.27 52.26C433.54 52.3813 433.844 52.5167 434.18 52.666C434.497 52.8153 434.81 52.9693 435.118 53.128C435.426 53.2867 435.701 53.4733 435.944 53.688C436.186 53.8933 436.382 54.1407 436.532 54.43C436.681 54.7193 436.756 55.0647 436.756 55.466C436.756 55.942 436.672 56.3527 436.504 56.698C436.345 57.0433 436.126 57.328 435.846 57.552C435.566 57.776 435.239 57.9393 434.866 58.042C434.502 58.1447 434.11 58.196 433.69 58.196C433.372 58.196 433.055 58.1587 432.738 58.084C432.43 58.0187 432.131 57.9207 431.842 57.79C431.562 57.6593 431.3 57.5007 431.058 57.314C430.824 57.118 430.628 56.8987 430.47 56.656L431.352 55.998ZM438.977 54.598C438.977 55.4473 439.168 56.11 439.551 56.586C439.933 57.0527 440.489 57.286 441.217 57.286C441.637 57.286 441.991 57.1833 442.281 56.978C442.57 56.7727 442.803 56.5207 442.981 56.222L443.695 56.698C443.452 57.118 443.135 57.468 442.743 57.748C442.36 58.0187 441.842 58.154 441.189 58.154C440.685 58.154 440.232 58.0793 439.831 57.93C439.429 57.7713 439.084 57.5473 438.795 57.258C438.515 56.9593 438.295 56.5907 438.137 56.152C437.987 55.7133 437.913 55.2047 437.913 54.626C437.913 54.094 437.983 53.618 438.123 53.198C438.272 52.7687 438.473 52.4047 438.725 52.106C438.986 51.798 439.299 51.5647 439.663 51.406C440.036 51.238 440.447 51.154 440.895 51.154C441.389 51.154 441.819 51.238 442.183 51.406C442.556 51.574 442.864 51.812 443.107 52.12C443.349 52.4187 443.531 52.7827 443.653 53.212C443.774 53.632 443.835 54.094 443.835 54.598H438.977ZM442.617 53.744C442.607 53.4547 442.551 53.2027 442.449 52.988C442.346 52.764 442.215 52.582 442.057 52.442C441.898 52.2927 441.716 52.1853 441.511 52.12C441.305 52.0453 441.1 52.008 440.895 52.008C440.447 52.008 440.059 52.1433 439.733 52.414C439.415 52.6753 439.196 53.1187 439.075 53.744H442.617ZM446.31 51.238L446.408 51.812C446.697 51.5787 447.001 51.4107 447.318 51.308C447.645 51.2053 447.985 51.154 448.34 51.154C448.835 51.154 449.255 51.2473 449.6 51.434C449.945 51.6207 450.225 51.8727 450.44 52.19C450.664 52.5073 450.823 52.876 450.916 53.296C451.019 53.7067 451.07 54.136 451.07 54.584C451.07 55.1253 450.986 55.6153 450.818 56.054C450.65 56.4927 450.417 56.8707 450.118 57.188C449.829 57.496 449.479 57.734 449.068 57.902C448.657 58.07 448.214 58.154 447.738 58.154C447.197 58.154 446.758 58.0793 446.422 57.93V60.646H445.344V51.406L446.31 51.238ZM446.422 56.992C446.525 57.0667 446.674 57.1367 446.87 57.202C447.066 57.258 447.285 57.286 447.528 57.286C447.883 57.286 448.209 57.2253 448.508 57.104C448.816 56.9827 449.077 56.81 449.292 56.586C449.516 56.362 449.689 56.0867 449.81 55.76C449.931 55.424 449.992 55.046 449.992 54.626C449.992 54.318 449.959 54.01 449.894 53.702C449.829 53.3847 449.721 53.1047 449.572 52.862C449.423 52.61 449.222 52.4093 448.97 52.26C448.727 52.1013 448.424 52.022 448.06 52.022C447.761 52.022 447.472 52.0873 447.192 52.218C446.912 52.3487 446.655 52.5213 446.422 52.736V56.992ZM451.628 58.924C451.796 58.8773 451.983 58.7793 452.188 58.63C452.403 58.49 452.548 58.336 452.622 58.168C452.51 58.1213 452.403 58.028 452.3 57.888C452.207 57.7387 452.16 57.538 452.16 57.286C452.16 57.0527 452.23 56.8473 452.37 56.67C452.51 56.4927 452.688 56.404 452.902 56.404C453.126 56.404 453.308 56.4973 453.448 56.684C453.598 56.8613 453.672 57.0993 453.672 57.398C453.672 57.6313 453.612 57.8507 453.49 58.056C453.378 58.2707 453.229 58.4667 453.042 58.644C452.856 58.8213 452.65 58.9707 452.426 59.092C452.202 59.2227 451.978 59.3207 451.754 59.386L451.628 58.924ZM458.156 58V57.342C458.67 56.754 459.16 56.1987 459.626 55.676C460.093 55.144 460.522 54.626 460.914 54.122C461.148 53.8327 461.348 53.5667 461.516 53.324C461.694 53.0813 461.843 52.848 461.964 52.624C462.086 52.4 462.174 52.1807 462.23 51.966C462.296 51.7513 462.328 51.5227 462.328 51.28C462.328 50.748 462.188 50.3467 461.908 50.076C461.638 49.8053 461.278 49.67 460.83 49.67C459.981 49.67 459.286 50.132 458.744 51.056L457.862 50.538C458.189 49.9407 458.6 49.4787 459.094 49.152C459.589 48.8253 460.191 48.662 460.9 48.662C461.302 48.662 461.661 48.7227 461.978 48.844C462.305 48.9653 462.58 49.138 462.804 49.362C463.038 49.5767 463.215 49.838 463.336 50.146C463.467 50.4447 463.532 50.776 463.532 51.14C463.532 51.7467 463.383 52.316 463.084 52.848C462.795 53.3707 462.44 53.8887 462.02 54.402C461.647 54.8687 461.264 55.3213 460.872 55.76C460.49 56.1893 460.102 56.6187 459.71 57.048H463.77V58H458.156ZM471.779 53.408C471.779 54.0053 471.709 54.5887 471.569 55.158C471.438 55.7273 471.238 56.236 470.967 56.684C470.696 57.1227 470.351 57.4773 469.931 57.748C469.511 58.0187 469.016 58.154 468.447 58.154C467.868 58.154 467.369 58.0187 466.949 57.748C466.538 57.4773 466.193 57.1227 465.913 56.684C465.642 56.236 465.442 55.7273 465.311 55.158C465.18 54.5887 465.115 54.0053 465.115 53.408C465.115 52.8107 465.18 52.2273 465.311 51.658C465.442 51.0887 465.642 50.5847 465.913 50.146C466.193 49.698 466.538 49.3387 466.949 49.068C467.369 48.7973 467.868 48.662 468.447 48.662C469.016 48.662 469.511 48.7973 469.931 49.068C470.351 49.3387 470.696 49.698 470.967 50.146C471.247 50.5847 471.452 51.0887 471.583 51.658C471.714 52.2273 471.779 52.8107 471.779 53.408ZM470.589 53.394C470.589 52.9273 470.547 52.4747 470.463 52.036C470.388 51.588 470.262 51.1913 470.085 50.846C469.908 50.4913 469.684 50.2067 469.413 49.992C469.142 49.7773 468.82 49.67 468.447 49.67C468.064 49.67 467.738 49.7773 467.467 49.992C467.196 50.2067 466.972 50.4913 466.795 50.846C466.618 51.1913 466.487 51.588 466.403 52.036C466.328 52.4747 466.291 52.9273 466.291 53.394C466.291 53.8607 466.333 54.318 466.417 54.766C466.501 55.214 466.627 55.6153 466.795 55.97C466.972 56.3247 467.196 56.6093 467.467 56.824C467.738 57.0387 468.064 57.146 468.447 57.146C468.82 57.146 469.142 57.0387 469.413 56.824C469.684 56.6093 469.903 56.3247 470.071 55.97C470.248 55.6153 470.379 55.214 470.463 54.766C470.547 54.318 470.589 53.8607 470.589 53.394ZM473.278 58V57.342C473.791 56.754 474.281 56.1987 474.748 55.676C475.214 55.144 475.644 54.626 476.036 54.122C476.269 53.8327 476.47 53.5667 476.638 53.324C476.815 53.0813 476.964 52.848 477.086 52.624C477.207 52.4 477.296 52.1807 477.352 51.966C477.417 51.7513 477.45 51.5227 477.45 51.28C477.45 50.748 477.31 50.3467 477.03 50.076C476.759 49.8053 476.4 49.67 475.952 49.67C475.102 49.67 474.407 50.132 473.866 51.056L472.984 50.538C473.31 49.9407 473.721 49.4787 474.216 49.152C474.71 48.8253 475.312 48.662 476.022 48.662C476.423 48.662 476.782 48.7227 477.1 48.844C477.426 48.9653 477.702 49.138 477.926 49.362C478.159 49.5767 478.336 49.838 478.458 50.146C478.588 50.4447 478.654 50.776 478.654 51.14C478.654 51.7467 478.504 52.316 478.206 52.848C477.916 53.3707 477.562 53.8887 477.142 54.402C476.768 54.8687 476.386 55.3213 475.994 55.76C475.611 56.1893 475.224 56.6187 474.832 57.048H478.892V58H473.278ZM481.202 55.942C481.445 56.3713 481.743 56.6793 482.098 56.866C482.462 57.0527 482.831 57.146 483.204 57.146C483.456 57.146 483.699 57.1133 483.932 57.048C484.175 56.9733 484.385 56.866 484.562 56.726C484.749 56.586 484.893 56.4087 484.996 56.194C485.108 55.9793 485.164 55.7227 485.164 55.424C485.164 55.1347 485.108 54.8827 484.996 54.668C484.884 54.444 484.735 54.262 484.548 54.122C484.371 53.9727 484.156 53.8607 483.904 53.786C483.661 53.7113 483.409 53.6647 483.148 53.646V52.806C483.381 52.7873 483.61 52.7407 483.834 52.666C484.058 52.5913 484.259 52.4887 484.436 52.358C484.613 52.218 484.753 52.05 484.856 51.854C484.968 51.658 485.024 51.4293 485.024 51.168C485.024 50.6827 484.875 50.314 484.576 50.062C484.287 49.8007 483.876 49.67 483.344 49.67C482.924 49.67 482.551 49.7773 482.224 49.992C481.907 50.2067 481.659 50.4913 481.482 50.846L480.6 50.3C480.871 49.768 481.263 49.362 481.776 49.082C482.289 48.802 482.84 48.662 483.428 48.662C483.82 48.662 484.184 48.718 484.52 48.83C484.865 48.942 485.159 49.1053 485.402 49.32C485.645 49.5253 485.836 49.7773 485.976 50.076C486.116 50.3747 486.186 50.7107 486.186 51.084C486.186 51.6253 486.055 52.064 485.794 52.4C485.542 52.7267 485.22 52.988 484.828 53.184C485.033 53.268 485.225 53.3707 485.402 53.492C485.589 53.6133 485.752 53.7627 485.892 53.94C486.032 54.108 486.139 54.3133 486.214 54.556C486.298 54.7987 486.34 55.0833 486.34 55.41C486.34 55.858 486.251 56.2547 486.074 56.6C485.897 56.936 485.663 57.2207 485.374 57.454C485.085 57.678 484.753 57.8507 484.38 57.972C484.007 58.0933 483.624 58.154 483.232 58.154C482.943 58.154 482.658 58.1213 482.378 58.056C482.098 57.9907 481.827 57.888 481.566 57.748C481.314 57.608 481.081 57.4353 480.866 57.23C480.651 57.0153 480.469 56.768 480.32 56.488L481.202 55.942ZM499.673 58V50.09L497.573 51.434L497.027 50.664L499.827 48.816H500.807V58H499.673ZM504.531 58V57.342C505.045 56.754 505.535 56.1987 506.001 55.676C506.468 55.144 506.897 54.626 507.289 54.122C507.523 53.8327 507.723 53.5667 507.891 53.324C508.069 53.0813 508.218 52.848 508.339 52.624C508.461 52.4 508.549 52.1807 508.605 51.966C508.671 51.7513 508.703 51.5227 508.703 51.28C508.703 50.748 508.563 50.3467 508.283 50.076C508.013 49.8053 507.653 49.67 507.205 49.67C506.356 49.67 505.661 50.132 505.119 51.056L504.237 50.538C504.564 49.9407 504.975 49.4787 505.469 49.152C505.964 48.8253 506.566 48.662 507.275 48.662C507.677 48.662 508.036 48.7227 508.353 48.844C508.68 48.9653 508.955 49.138 509.179 49.362C509.413 49.5767 509.59 49.838 509.711 50.146C509.842 50.4447 509.907 50.776 509.907 51.14C509.907 51.7467 509.758 52.316 509.459 52.848C509.17 53.3707 508.815 53.8887 508.395 54.402C508.022 54.8687 507.639 55.3213 507.247 55.76C506.865 56.1893 506.477 56.6187 506.085 57.048H510.145V58H504.531ZM512.428 58.154C512.213 58.154 512.031 58.0747 511.882 57.916C511.742 57.748 511.672 57.5473 511.672 57.314C511.672 57.0807 511.742 56.8847 511.882 56.726C512.031 56.558 512.213 56.474 512.428 56.474C512.643 56.474 512.82 56.558 512.96 56.726C513.109 56.8847 513.184 57.0807 513.184 57.314C513.184 57.5473 513.109 57.748 512.96 57.916C512.82 58.0747 512.643 58.154 512.428 58.154ZM512.428 53.016C512.213 53.016 512.031 52.9367 511.882 52.778C511.742 52.61 511.672 52.4093 511.672 52.176C511.672 51.9427 511.742 51.7467 511.882 51.588C512.031 51.42 512.213 51.336 512.428 51.336C512.643 51.336 512.82 51.42 512.96 51.588C513.109 51.7467 513.184 51.9427 513.184 52.176C513.184 52.4093 513.109 52.61 512.96 52.778C512.82 52.9367 512.643 53.016 512.428 53.016ZM514.867 58V57.342C515.381 56.754 515.871 56.1987 516.337 55.676C516.804 55.144 517.233 54.626 517.625 54.122C517.859 53.8327 518.059 53.5667 518.227 53.324C518.405 53.0813 518.554 52.848 518.675 52.624C518.797 52.4 518.885 52.1807 518.941 51.966C519.007 51.7513 519.039 51.5227 519.039 51.28C519.039 50.748 518.899 50.3467 518.619 50.076C518.349 49.8053 517.989 49.67 517.541 49.67C516.692 49.67 515.997 50.132 515.455 51.056L514.573 50.538C514.9 49.9407 515.311 49.4787 515.805 49.152C516.3 48.8253 516.902 48.662 517.611 48.662C518.013 48.662 518.372 48.7227 518.689 48.844C519.016 48.9653 519.291 49.138 519.515 49.362C519.749 49.5767 519.926 49.838 520.047 50.146C520.178 50.4447 520.243 50.776 520.243 51.14C520.243 51.7467 520.094 52.316 519.795 52.848C519.506 53.3707 519.151 53.8887 518.731 54.402C518.358 54.8687 517.975 55.3213 517.583 55.76C517.201 56.1893 516.813 56.6187 516.421 57.048H520.481V58H514.867ZM521.924 55.13V54.136L526.516 48.816H527.23V54.192H528.238V55.13H527.23V58H526.18V55.13H521.924ZM523.114 54.192H526.18V50.692L523.114 54.192ZM530.87 51.238L530.968 51.812C531.258 51.5787 531.561 51.4107 531.878 51.308C532.205 51.2053 532.546 51.154 532.9 51.154C533.395 51.154 533.815 51.2473 534.16 51.434C534.506 51.6207 534.786 51.8727 535 52.19C535.224 52.5073 535.383 52.876 535.476 53.296C535.579 53.7067 535.63 54.136 535.63 54.584C535.63 55.1253 535.546 55.6153 535.378 56.054C535.21 56.4927 534.977 56.8707 534.678 57.188C534.389 57.496 534.039 57.734 533.628 57.902C533.218 58.07 532.774 58.154 532.298 58.154C531.757 58.154 531.318 58.0793 530.982 57.93V60.646H529.904V51.406L530.87 51.238ZM530.982 56.992C531.085 57.0667 531.234 57.1367 531.43 57.202C531.626 57.258 531.846 57.286 532.088 57.286C532.443 57.286 532.77 57.2253 533.068 57.104C533.376 56.9827 533.638 56.81 533.852 56.586C534.076 56.362 534.249 56.0867 534.37 55.76C534.492 55.424 534.552 55.046 534.552 54.626C534.552 54.318 534.52 54.01 534.454 53.702C534.389 53.3847 534.282 53.1047 534.132 52.862C533.983 52.61 533.782 52.4093 533.53 52.26C533.288 52.1013 532.984 52.022 532.62 52.022C532.322 52.022 532.032 52.0873 531.752 52.218C531.472 52.3487 531.216 52.5213 530.982 52.736V56.992ZM545.856 58V53.828C545.856 53.268 545.749 52.834 545.534 52.526C545.32 52.2087 544.928 52.05 544.358 52.05C544.172 52.05 543.985 52.078 543.798 52.134C543.612 52.1807 543.434 52.2413 543.266 52.316C543.108 52.3907 542.958 52.47 542.818 52.554C542.688 52.638 542.576 52.7173 542.482 52.792C542.529 52.9507 542.562 53.1187 542.58 53.296C542.608 53.464 542.622 53.688 542.622 53.968V58H541.544V53.828C541.544 53.5853 541.521 53.3567 541.474 53.142C541.437 52.9273 541.362 52.7407 541.25 52.582C541.148 52.414 541.008 52.2833 540.83 52.19C540.653 52.0967 540.424 52.05 540.144 52.05C539.818 52.05 539.491 52.134 539.164 52.302C538.847 52.4607 538.567 52.624 538.324 52.792V58H537.246V51.406L538.226 51.238L538.31 51.854C538.534 51.6953 538.824 51.5413 539.178 51.392C539.533 51.2333 539.92 51.154 540.34 51.154C540.695 51.154 541.036 51.2147 541.362 51.336C541.698 51.4573 541.978 51.6813 542.202 52.008C542.482 51.7747 542.823 51.574 543.224 51.406C543.626 51.238 544.064 51.154 544.54 51.154C545.007 51.154 545.394 51.2193 545.702 51.35C546.02 51.4713 546.267 51.6533 546.444 51.896C546.631 52.1293 546.762 52.4233 546.836 52.778C546.911 53.1233 546.948 53.52 546.948 53.968V58H545.856Z" fill="#98A2B3"/>
<path d="M491.131 59.036V47.668H492.139V59.036H491.131Z" fill="#F0F2F5"/>
<circle cx="556" cy="53" r="2" fill="#98A2B3"/>
<path d="M568.106 58V50.09L566.006 51.434L565.46 50.664L568.26 48.816H569.24V58H568.106ZM573.329 55.942C573.572 56.3713 573.87 56.6793 574.225 56.866C574.589 57.0527 574.958 57.146 575.331 57.146C575.583 57.146 575.826 57.1133 576.059 57.048C576.302 56.9733 576.512 56.866 576.689 56.726C576.876 56.586 577.02 56.4087 577.123 56.194C577.235 55.9793 577.291 55.7227 577.291 55.424C577.291 55.1347 577.235 54.8827 577.123 54.668C577.011 54.444 576.862 54.262 576.675 54.122C576.498 53.9727 576.283 53.8607 576.031 53.786C575.788 53.7113 575.536 53.6647 575.275 53.646V52.806C575.508 52.7873 575.737 52.7407 575.961 52.666C576.185 52.5913 576.386 52.4887 576.563 52.358C576.74 52.218 576.88 52.05 576.983 51.854C577.095 51.658 577.151 51.4293 577.151 51.168C577.151 50.6827 577.002 50.314 576.703 50.062C576.414 49.8007 576.003 49.67 575.471 49.67C575.051 49.67 574.678 49.7773 574.351 49.992C574.034 50.2067 573.786 50.4913 573.609 50.846L572.727 50.3C572.998 49.768 573.39 49.362 573.903 49.082C574.416 48.802 574.967 48.662 575.555 48.662C575.947 48.662 576.311 48.718 576.647 48.83C576.992 48.942 577.286 49.1053 577.529 49.32C577.772 49.5253 577.963 49.7773 578.103 50.076C578.243 50.3747 578.313 50.7107 578.313 51.084C578.313 51.6253 578.182 52.064 577.921 52.4C577.669 52.7267 577.347 52.988 576.955 53.184C577.16 53.268 577.352 53.3707 577.529 53.492C577.716 53.6133 577.879 53.7627 578.019 53.94C578.159 54.108 578.266 54.3133 578.341 54.556C578.425 54.7987 578.467 55.0833 578.467 55.41C578.467 55.858 578.378 56.2547 578.201 56.6C578.024 56.936 577.79 57.2207 577.501 57.454C577.212 57.678 576.88 57.8507 576.507 57.972C576.134 58.0933 575.751 58.154 575.359 58.154C575.07 58.154 574.785 58.1213 574.505 58.056C574.225 57.9907 573.954 57.888 573.693 57.748C573.441 57.608 573.208 57.4353 572.993 57.23C572.778 57.0153 572.596 56.768 572.447 56.488L573.329 55.942ZM580.61 58V48.662H581.926L584.642 55.872L587.442 48.662H588.744V58H587.666V50.874L584.768 58.154H584.544L581.702 50.888V58H580.61ZM591.014 58V48.662H593.8C594.761 48.662 595.494 48.8767 595.998 49.306C596.502 49.7353 596.754 50.314 596.754 51.042C596.754 51.6393 596.577 52.1013 596.222 52.428C595.867 52.7453 595.41 52.9507 594.85 53.044C595.13 53.072 595.41 53.1327 595.69 53.226C595.97 53.31 596.222 53.4453 596.446 53.632C596.679 53.8187 596.866 54.0567 597.006 54.346C597.155 54.626 597.23 54.976 597.23 55.396C597.23 55.7973 597.155 56.1613 597.006 56.488C596.866 56.8053 596.67 57.076 596.418 57.3C596.166 57.524 595.867 57.6967 595.522 57.818C595.177 57.9393 594.799 58 594.388 58H591.014ZM592.134 52.624H593.702C594.29 52.624 594.747 52.4887 595.074 52.218C595.41 51.938 595.578 51.546 595.578 51.042C595.578 50.5847 595.429 50.2347 595.13 49.992C594.841 49.7493 594.411 49.628 593.842 49.628H592.134V52.624ZM592.134 57.034H594.29C594.822 57.034 595.247 56.9033 595.564 56.642C595.881 56.3713 596.04 55.956 596.04 55.396C596.04 54.7987 595.844 54.3507 595.452 54.052C595.069 53.744 594.5 53.59 593.744 53.59H592.134V57.034Z" fill="#98A2B3"/>
<rect x="4" y="14" width="394" height="56" rx="8" fill="white"/>
<path d="M122.55 33.138C122.13 33.8847 121.654 34.4167 121.122 34.734C120.59 35.042 119.941 35.196 119.176 35.196C118.56 35.196 117.995 35.0887 117.482 34.874C116.969 34.6593 116.525 34.3467 116.152 33.936C115.788 33.516 115.503 33.0073 115.298 32.41C115.102 31.8127 115.004 31.1313 115.004 30.366C115.004 29.526 115.116 28.8027 115.34 28.196C115.573 27.58 115.877 27.0713 116.25 26.67C116.633 26.2593 117.071 25.956 117.566 25.76C118.07 25.564 118.588 25.466 119.12 25.466C119.988 25.466 120.688 25.6573 121.22 26.04C121.752 26.4133 122.177 26.95 122.494 27.65L120.968 28.49C120.809 28.0793 120.59 27.748 120.31 27.496C120.03 27.244 119.647 27.118 119.162 27.118C118.873 27.118 118.593 27.1833 118.322 27.314C118.051 27.4447 117.813 27.6453 117.608 27.916C117.403 28.1867 117.235 28.5273 117.104 28.938C116.983 29.3393 116.922 29.8153 116.922 30.366C116.922 30.8513 116.978 31.29 117.09 31.682C117.211 32.074 117.375 32.4053 117.58 32.676C117.795 32.9467 118.042 33.1567 118.322 33.306C118.611 33.4553 118.919 33.53 119.246 33.53C119.666 33.53 120.021 33.4367 120.31 33.25C120.609 33.054 120.865 32.718 121.08 32.242L122.55 33.138ZM123.802 35V25.746L125.636 25.466V28.7C125.86 28.532 126.126 28.3873 126.434 28.266C126.742 28.1447 127.12 28.084 127.568 28.084C128.016 28.084 128.398 28.154 128.716 28.294C129.042 28.4247 129.304 28.616 129.5 28.868C129.705 29.12 129.854 29.428 129.948 29.792C130.05 30.1467 130.102 30.548 130.102 30.996V35H128.268V31.122C128.268 30.8793 128.254 30.66 128.226 30.464C128.198 30.268 128.142 30.1047 128.058 29.974C127.983 29.834 127.871 29.7267 127.722 29.652C127.572 29.5773 127.376 29.54 127.134 29.54C126.863 29.54 126.592 29.6053 126.322 29.736C126.06 29.8667 125.832 30.0207 125.636 30.198V35H123.802ZM134.864 35.154C134.294 35.154 133.795 35.0513 133.366 34.846C132.946 34.6407 132.591 34.37 132.302 34.034C132.022 33.698 131.812 33.32 131.672 32.9C131.532 32.4707 131.462 32.0367 131.462 31.598C131.462 31.1593 131.532 30.73 131.672 30.31C131.812 29.89 132.022 29.5167 132.302 29.19C132.591 28.854 132.946 28.588 133.366 28.392C133.795 28.1867 134.294 28.084 134.864 28.084C135.433 28.084 135.928 28.1867 136.348 28.392C136.777 28.588 137.132 28.854 137.412 29.19C137.701 29.5167 137.916 29.89 138.056 30.31C138.196 30.73 138.266 31.1593 138.266 31.598C138.266 32.0367 138.196 32.4707 138.056 32.9C137.916 33.32 137.701 33.698 137.412 34.034C137.132 34.37 136.777 34.6407 136.348 34.846C135.928 35.0513 135.433 35.154 134.864 35.154ZM133.254 31.598C133.254 31.8873 133.286 32.158 133.352 32.41C133.426 32.6527 133.529 32.8673 133.66 33.054C133.8 33.2407 133.968 33.39 134.164 33.502C134.369 33.6047 134.602 33.656 134.864 33.656C135.125 33.656 135.354 33.6047 135.55 33.502C135.755 33.39 135.923 33.2407 136.054 33.054C136.194 32.8673 136.296 32.6527 136.362 32.41C136.436 32.158 136.474 31.8873 136.474 31.598C136.474 31.318 136.436 31.052 136.362 30.8C136.296 30.548 136.194 30.3333 136.054 30.156C135.923 29.9693 135.755 29.8247 135.55 29.722C135.354 29.61 135.125 29.554 134.864 29.554C134.602 29.554 134.369 29.61 134.164 29.722C133.968 29.8247 133.8 29.9693 133.66 30.156C133.529 30.3333 133.426 30.548 133.352 30.8C133.286 31.052 133.254 31.318 133.254 31.598ZM142.643 35.154C142.074 35.154 141.574 35.0513 141.145 34.846C140.725 34.6407 140.37 34.37 140.081 34.034C139.801 33.698 139.591 33.32 139.451 32.9C139.311 32.4707 139.241 32.0367 139.241 31.598C139.241 31.1593 139.311 30.73 139.451 30.31C139.591 29.89 139.801 29.5167 140.081 29.19C140.37 28.854 140.725 28.588 141.145 28.392C141.574 28.1867 142.074 28.084 142.643 28.084C143.212 28.084 143.707 28.1867 144.127 28.392C144.556 28.588 144.911 28.854 145.191 29.19C145.48 29.5167 145.695 29.89 145.835 30.31C145.975 30.73 146.045 31.1593 146.045 31.598C146.045 32.0367 145.975 32.4707 145.835 32.9C145.695 33.32 145.48 33.698 145.191 34.034C144.911 34.37 144.556 34.6407 144.127 34.846C143.707 35.0513 143.212 35.154 142.643 35.154ZM141.033 31.598C141.033 31.8873 141.066 32.158 141.131 32.41C141.206 32.6527 141.308 32.8673 141.439 33.054C141.579 33.2407 141.747 33.39 141.943 33.502C142.148 33.6047 142.382 33.656 142.643 33.656C142.904 33.656 143.133 33.6047 143.329 33.502C143.534 33.39 143.702 33.2407 143.833 33.054C143.973 32.8673 144.076 32.6527 144.141 32.41C144.216 32.158 144.253 31.8873 144.253 31.598C144.253 31.318 144.216 31.052 144.141 30.8C144.076 30.548 143.973 30.3333 143.833 30.156C143.702 29.9693 143.534 29.8247 143.329 29.722C143.133 29.61 142.904 29.554 142.643 29.554C142.382 29.554 142.148 29.61 141.943 29.722C141.747 29.8247 141.579 29.9693 141.439 30.156C141.308 30.3333 141.206 30.548 141.131 30.8C141.066 31.052 141.033 31.318 141.033 31.598ZM148.294 32.732C148.453 33.0307 148.677 33.2827 148.966 33.488C149.256 33.684 149.638 33.782 150.114 33.782C150.852 33.782 151.22 33.5627 151.22 33.124C151.22 33.0307 151.197 32.942 151.15 32.858C151.113 32.774 151.034 32.6947 150.912 32.62C150.791 32.5453 150.628 32.4753 150.422 32.41C150.217 32.3447 149.956 32.2793 149.638 32.214C149.284 32.1393 148.957 32.0507 148.658 31.948C148.369 31.836 148.122 31.7007 147.916 31.542C147.711 31.374 147.552 31.178 147.44 30.954C147.328 30.7207 147.272 30.4407 147.272 30.114C147.272 29.8153 147.338 29.5447 147.468 29.302C147.599 29.05 147.781 28.8353 148.014 28.658C148.257 28.4713 148.551 28.3313 148.896 28.238C149.242 28.1353 149.624 28.084 150.044 28.084C150.81 28.084 151.416 28.21 151.864 28.462C152.312 28.7047 152.658 29.0033 152.9 29.358L151.612 30.24C151.444 30.016 151.23 29.8293 150.968 29.68C150.707 29.5307 150.399 29.456 150.044 29.456C149.662 29.456 149.391 29.5167 149.232 29.638C149.083 29.75 149.008 29.8993 149.008 30.086C149.008 30.3007 149.102 30.4547 149.288 30.548C149.475 30.6413 149.82 30.7393 150.324 30.842C150.735 30.926 151.099 31.0287 151.416 31.15C151.743 31.262 152.018 31.402 152.242 31.57C152.466 31.738 152.634 31.9433 152.746 32.186C152.868 32.4193 152.928 32.704 152.928 33.04C152.928 33.404 152.854 33.7213 152.704 33.992C152.555 34.2533 152.35 34.4727 152.088 34.65C151.827 34.818 151.519 34.944 151.164 35.028C150.81 35.112 150.432 35.154 150.03 35.154C149.228 35.154 148.574 35.0047 148.07 34.706C147.576 34.398 147.198 34.0153 146.936 33.558L148.294 32.732ZM155.649 32.06C155.677 32.34 155.738 32.5827 155.831 32.788C155.925 32.9933 156.041 33.1613 156.181 33.292C156.321 33.4227 156.475 33.5207 156.643 33.586C156.821 33.642 157.003 33.67 157.189 33.67C157.516 33.67 157.81 33.614 158.071 33.502C158.333 33.3807 158.603 33.124 158.883 32.732L160.241 33.558C159.849 34.146 159.401 34.5613 158.897 34.804C158.403 35.0373 157.815 35.154 157.133 35.154C156.685 35.154 156.261 35.084 155.859 34.944C155.458 34.804 155.103 34.5893 154.795 34.3C154.497 34.0013 154.259 33.6327 154.081 33.194C153.904 32.7553 153.815 32.2327 153.815 31.626C153.815 31.0567 153.899 30.5527 154.067 30.114C154.245 29.6753 154.483 29.3067 154.781 29.008C155.08 28.7093 155.425 28.4807 155.817 28.322C156.219 28.1633 156.643 28.084 157.091 28.084C158.034 28.084 158.79 28.4153 159.359 29.078C159.938 29.7313 160.237 30.7253 160.255 32.06H155.649ZM158.393 30.814C158.375 30.59 158.323 30.394 158.239 30.226C158.165 30.058 158.067 29.918 157.945 29.806C157.824 29.694 157.689 29.61 157.539 29.554C157.39 29.498 157.241 29.47 157.091 29.47C156.774 29.47 156.475 29.5913 156.195 29.834C155.915 30.0673 155.747 30.394 155.691 30.814H158.393ZM168.131 35L168.047 34.496C167.851 34.7013 167.599 34.8647 167.291 34.986C166.993 35.098 166.661 35.154 166.297 35.154C165.999 35.154 165.705 35.1027 165.415 35C165.135 34.9067 164.888 34.7713 164.673 34.594C164.459 34.4073 164.286 34.1833 164.155 33.922C164.025 33.6513 163.959 33.348 163.959 33.012C163.959 32.5173 164.09 32.1207 164.351 31.822C164.622 31.514 164.958 31.276 165.359 31.108C165.761 30.94 166.195 30.8233 166.661 30.758C167.128 30.6927 167.562 30.646 167.963 30.618V30.394C167.963 30.114 167.879 29.8947 167.711 29.736C167.553 29.568 167.31 29.484 166.983 29.484C166.722 29.484 166.484 29.54 166.269 29.652C166.064 29.7547 165.882 29.8993 165.723 30.086L164.477 29.218C164.655 28.994 164.855 28.8073 165.079 28.658C165.313 28.5087 165.546 28.392 165.779 28.308C166.022 28.224 166.26 28.168 166.493 28.14C166.727 28.1027 166.941 28.084 167.137 28.084C167.529 28.084 167.889 28.1353 168.215 28.238C168.542 28.3313 168.822 28.4853 169.055 28.7C169.298 28.9053 169.485 29.1713 169.615 29.498C169.746 29.8153 169.811 30.2027 169.811 30.66V35H168.131ZM167.977 31.85C167.716 31.8687 167.45 31.892 167.179 31.92C166.918 31.948 166.68 31.9993 166.465 32.074C166.251 32.1487 166.073 32.2607 165.933 32.41C165.803 32.55 165.737 32.7367 165.737 32.97C165.737 33.194 165.821 33.376 165.989 33.516C166.157 33.6467 166.405 33.712 166.731 33.712C166.965 33.712 167.189 33.6653 167.403 33.572C167.627 33.4787 167.819 33.362 167.977 33.222V31.85ZM174.556 35V25.662H180.912V27.356H176.446V29.568H180.002V31.234H176.446V35H174.556ZM182.803 27.482C182.439 27.482 182.164 27.3793 181.977 27.174C181.8 26.9687 181.711 26.74 181.711 26.488C181.711 26.2453 181.8 26.0213 181.977 25.816C182.164 25.6107 182.439 25.508 182.803 25.508C183.167 25.508 183.438 25.6107 183.615 25.816C183.802 26.0213 183.895 26.2453 183.895 26.488C183.895 26.74 183.802 26.9687 183.615 27.174C183.438 27.3793 183.167 27.482 182.803 27.482ZM181.893 35V28.434L183.713 28.154V35H181.893ZM185.53 35V25.746L187.364 25.466V35H185.53ZM190.595 32.06C190.623 32.34 190.683 32.5827 190.777 32.788C190.87 32.9933 190.987 33.1613 191.127 33.292C191.267 33.4227 191.421 33.5207 191.589 33.586C191.766 33.642 191.948 33.67 192.135 33.67C192.461 33.67 192.755 33.614 193.017 33.502C193.278 33.3807 193.549 33.124 193.829 32.732L195.187 33.558C194.795 34.146 194.347 34.5613 193.843 34.804C193.348 35.0373 192.76 35.154 192.079 35.154C191.631 35.154 191.206 35.084 190.805 34.944C190.403 34.804 190.049 34.5893 189.741 34.3C189.442 34.0013 189.204 33.6327 189.027 33.194C188.849 32.7553 188.761 32.2327 188.761 31.626C188.761 31.0567 188.845 30.5527 189.013 30.114C189.19 29.6753 189.428 29.3067 189.727 29.008C190.025 28.7093 190.371 28.4807 190.763 28.322C191.164 28.1633 191.589 28.084 192.037 28.084C192.979 28.084 193.735 28.4153 194.305 29.078C194.883 29.7313 195.182 30.7253 195.201 32.06H190.595ZM193.339 30.814C193.32 30.59 193.269 30.394 193.185 30.226C193.11 30.058 193.012 29.918 192.891 29.806C192.769 29.694 192.634 29.61 192.485 29.554C192.335 29.498 192.186 29.47 192.037 29.47C191.719 29.47 191.421 29.5913 191.141 29.834C190.861 30.0673 190.693 30.394 190.637 30.814H193.339Z" fill="black"/>
<path d="M115.519 59V49.662H118.431C119.504 49.662 120.297 49.9 120.811 50.376C121.333 50.852 121.595 51.5567 121.595 52.49C121.595 53.3953 121.319 54.0813 120.769 54.548C120.227 55.0147 119.434 55.248 118.389 55.248H116.639V59H115.519ZM116.639 54.268H118.473C119.042 54.268 119.504 54.128 119.859 53.848C120.213 53.568 120.391 53.106 120.391 52.462C120.391 51.818 120.223 51.3513 119.887 51.062C119.551 50.7727 119.075 50.628 118.459 50.628H116.639V54.268ZM130.064 54.198C130.064 54.8513 129.989 55.4393 129.84 55.962C129.691 56.4753 129.481 56.9233 129.21 57.306C128.949 57.6887 128.636 58.006 128.272 58.258C127.908 58.51 127.516 58.6967 127.096 58.818C126.881 58.8833 126.625 58.93 126.326 58.958C126.037 58.986 125.775 59 125.542 59H123.134V49.662H125.542C125.906 49.662 126.284 49.6947 126.676 49.76C127.068 49.816 127.432 49.9233 127.768 50.082C128.104 50.2407 128.412 50.446 128.692 50.698C128.972 50.9407 129.21 51.2347 129.406 51.58C129.611 51.9253 129.77 52.3173 129.882 52.756C130.003 53.1853 130.064 53.666 130.064 54.198ZM128.874 54.254C128.874 53.442 128.748 52.7887 128.496 52.294C128.253 51.7993 127.917 51.412 127.488 51.132C127.217 50.9547 126.895 50.8287 126.522 50.754C126.158 50.67 125.803 50.628 125.458 50.628H124.254V58.034H125.402C125.607 58.034 125.841 58.0247 126.102 58.006C126.363 57.9873 126.601 57.9313 126.816 57.838C127.096 57.726 127.362 57.572 127.614 57.376C127.866 57.18 128.085 56.9373 128.272 56.648C128.459 56.3587 128.603 56.018 128.706 55.626C128.818 55.234 128.874 54.7767 128.874 54.254ZM131.884 59V49.662H137.176V50.628H133.004V53.778H136.084V54.744H132.99V59H131.884ZM141.266 59V53.204H140.286V52.322H141.28V51.832C141.28 51.4027 141.327 51.0387 141.42 50.74C141.523 50.4413 141.663 50.1987 141.84 50.012C142.017 49.8253 142.227 49.69 142.47 49.606C142.713 49.522 142.983 49.48 143.282 49.48C143.637 49.48 143.935 49.5173 144.178 49.592C144.43 49.6573 144.649 49.7413 144.836 49.844L144.514 50.67C144.355 50.5953 144.178 50.53 143.982 50.474C143.795 50.4087 143.581 50.376 143.338 50.376C143.179 50.376 143.039 50.3947 142.918 50.432C142.797 50.4693 142.694 50.544 142.61 50.656C142.526 50.7587 142.461 50.908 142.414 51.104C142.367 51.2907 142.344 51.538 142.344 51.846V52.322H144.024L143.87 53.204H142.358V59H141.266ZM150.694 55.654C150.694 56.0927 150.629 56.522 150.498 56.942C150.367 57.362 150.171 57.7353 149.91 58.062C149.658 58.3887 149.336 58.6547 148.944 58.86C148.552 59.056 148.099 59.154 147.586 59.154C147.073 59.154 146.62 59.056 146.228 58.86C145.845 58.6547 145.523 58.3887 145.262 58.062C145.001 57.726 144.805 57.348 144.674 56.928C144.543 56.4987 144.478 56.0647 144.478 55.626C144.478 55.1873 144.539 54.7627 144.66 54.352C144.791 53.932 144.987 53.5587 145.248 53.232C145.509 52.9053 145.831 52.644 146.214 52.448C146.606 52.252 147.063 52.154 147.586 52.154C148.099 52.154 148.552 52.2567 148.944 52.462C149.336 52.658 149.658 52.9193 149.91 53.246C150.171 53.5727 150.367 53.946 150.498 54.366C150.629 54.786 150.694 55.2153 150.694 55.654ZM149.644 55.64C149.644 55.3133 149.602 54.9913 149.518 54.674C149.434 54.3567 149.303 54.0767 149.126 53.834C148.958 53.582 148.743 53.3813 148.482 53.232C148.23 53.0827 147.931 53.008 147.586 53.008C147.241 53.008 146.937 53.0827 146.676 53.232C146.424 53.3813 146.214 53.582 146.046 53.834C145.878 54.0767 145.752 54.3567 145.668 54.674C145.584 54.982 145.542 55.2993 145.542 55.626C145.542 55.962 145.584 56.2887 145.668 56.606C145.752 56.9233 145.878 57.208 146.046 57.46C146.223 57.7027 146.438 57.9033 146.69 58.062C146.951 58.2113 147.25 58.286 147.586 58.286C147.931 58.286 148.23 58.2113 148.482 58.062C148.743 57.9033 148.958 57.7027 149.126 57.46C149.303 57.208 149.434 56.9233 149.518 56.606C149.602 56.2887 149.644 55.9667 149.644 55.64ZM152.306 59V52.406L153.272 52.238L153.37 52.91C153.547 52.7233 153.776 52.5507 154.056 52.392C154.336 52.2333 154.621 52.154 154.91 52.154C155.115 52.154 155.302 52.168 155.47 52.196C155.647 52.224 155.783 52.252 155.876 52.28L155.68 53.274C155.428 53.1713 155.134 53.12 154.798 53.12C154.527 53.12 154.266 53.1947 154.014 53.344C153.771 53.4933 153.561 53.6473 153.384 53.806V59H152.306ZM165.428 59V54.828C165.428 54.268 165.32 53.834 165.106 53.526C164.891 53.2087 164.499 53.05 163.93 53.05C163.743 53.05 163.556 53.078 163.37 53.134C163.183 53.1807 163.006 53.2413 162.838 53.316C162.679 53.3907 162.53 53.47 162.39 53.554C162.259 53.638 162.147 53.7173 162.054 53.792C162.1 53.9507 162.133 54.1187 162.152 54.296C162.18 54.464 162.194 54.688 162.194 54.968V59H161.116V54.828C161.116 54.5853 161.092 54.3567 161.046 54.142C161.008 53.9273 160.934 53.7407 160.822 53.582C160.719 53.414 160.579 53.2833 160.402 53.19C160.224 53.0967 159.996 53.05 159.716 53.05C159.389 53.05 159.062 53.134 158.736 53.302C158.418 53.4607 158.138 53.624 157.896 53.792V59H156.818V52.406L157.798 52.238L157.882 52.854C158.106 52.6953 158.395 52.5413 158.75 52.392C159.104 52.2333 159.492 52.154 159.912 52.154C160.266 52.154 160.607 52.2147 160.934 52.336C161.27 52.4573 161.55 52.6813 161.774 53.008C162.054 52.7747 162.394 52.574 162.796 52.406C163.197 52.238 163.636 52.154 164.112 52.154C164.578 52.154 164.966 52.2193 165.274 52.35C165.591 52.4713 165.838 52.6533 166.016 52.896C166.202 53.1293 166.333 53.4233 166.408 53.778C166.482 54.1233 166.52 54.52 166.52 54.968V59H165.428ZM172.121 59L172.065 58.426C171.832 58.6593 171.561 58.8413 171.253 58.972C170.955 59.0933 170.623 59.154 170.259 59.154C169.97 59.154 169.685 59.1073 169.405 59.014C169.135 58.93 168.892 58.804 168.677 58.636C168.472 58.4587 168.304 58.2393 168.173 57.978C168.043 57.7167 167.977 57.4133 167.977 57.068C167.977 56.592 168.103 56.2 168.355 55.892C168.617 55.5747 168.943 55.3273 169.335 55.15C169.727 54.9727 170.161 54.8467 170.637 54.772C171.113 54.6973 171.575 54.66 172.023 54.66V54.576C172.023 54.016 171.902 53.6147 171.659 53.372C171.426 53.1293 171.085 53.008 170.637 53.008C170.329 53.008 170.045 53.078 169.783 53.218C169.531 53.3487 169.317 53.526 169.139 53.75L168.383 53.218C168.654 52.854 168.971 52.588 169.335 52.42C169.709 52.2427 170.175 52.154 170.735 52.154C171.482 52.154 172.061 52.3453 172.471 52.728C172.891 53.1107 173.101 53.75 173.101 54.646V59H172.121ZM172.023 55.514C171.715 55.5233 171.389 55.5467 171.043 55.584C170.698 55.6213 170.376 55.696 170.077 55.808C169.788 55.9107 169.545 56.0647 169.349 56.27C169.163 56.4753 169.069 56.746 169.069 57.082C169.069 57.2967 169.111 57.4787 169.195 57.628C169.279 57.7773 169.382 57.9033 169.503 58.006C169.634 58.0993 169.774 58.1693 169.923 58.216C170.082 58.2533 170.236 58.272 170.385 58.272C170.712 58.272 171.011 58.2067 171.281 58.076C171.561 57.936 171.809 57.7727 172.023 57.586V55.514ZM176.499 53.204V57.474C176.499 57.8007 176.56 58.02 176.681 58.132C176.812 58.2347 176.975 58.286 177.171 58.286C177.349 58.286 177.517 58.2487 177.675 58.174C177.834 58.0993 177.979 58.0107 178.109 57.908L178.529 58.636C178.315 58.7947 178.1 58.9207 177.885 59.014C177.68 59.1073 177.386 59.154 177.003 59.154C176.499 59.154 176.112 59.028 175.841 58.776C175.571 58.5147 175.435 58.118 175.435 57.586V53.204H174.287V52.322H175.435V50.6L176.513 50.404V52.322H178.333L178.179 53.204H176.499Z" fill="#4B5563"/>
<circle cx="187" cy="54" r="2" fill="#98A2B3"/>
<path d="M196.166 59V49.662H197.482L200.198 56.872L202.998 49.662H204.3V59H203.222V51.874L200.324 59.154H200.1L197.258 51.888V59H196.166ZM210.113 59L210.057 58.426C209.823 58.6593 209.553 58.8413 209.245 58.972C208.946 59.0933 208.615 59.154 208.251 59.154C207.961 59.154 207.677 59.1073 207.397 59.014C207.126 58.93 206.883 58.804 206.669 58.636C206.463 58.4587 206.295 58.2393 206.165 57.978C206.034 57.7167 205.969 57.4133 205.969 57.068C205.969 56.592 206.095 56.2 206.347 55.892C206.608 55.5747 206.935 55.3273 207.327 55.15C207.719 54.9727 208.153 54.8467 208.629 54.772C209.105 54.6973 209.567 54.66 210.015 54.66V54.576C210.015 54.016 209.893 53.6147 209.651 53.372C209.417 53.1293 209.077 53.008 208.629 53.008C208.321 53.008 208.036 53.078 207.775 53.218C207.523 53.3487 207.308 53.526 207.131 53.75L206.375 53.218C206.645 52.854 206.963 52.588 207.327 52.42C207.7 52.2427 208.167 52.154 208.727 52.154C209.473 52.154 210.052 52.3453 210.463 52.728C210.883 53.1107 211.093 53.75 211.093 54.646V59H210.113ZM210.015 55.514C209.707 55.5233 209.38 55.5467 209.035 55.584C208.689 55.6213 208.367 55.696 208.069 55.808C207.779 55.9107 207.537 56.0647 207.341 56.27C207.154 56.4753 207.061 56.746 207.061 57.082C207.061 57.2967 207.103 57.4787 207.187 57.628C207.271 57.7773 207.373 57.9033 207.495 58.006C207.625 58.0993 207.765 58.1693 207.915 58.216C208.073 58.2533 208.227 58.272 208.377 58.272C208.703 58.272 209.002 58.2067 209.273 58.076C209.553 57.936 209.8 57.7727 210.015 57.586V55.514ZM212.013 59L214.253 55.598L212.111 52.322H213.329L214.841 54.716L216.367 52.322H217.515L215.387 55.57L217.599 59H216.437L214.799 56.508L213.175 59H212.013ZM219.045 59.154C218.831 59.154 218.649 59.0747 218.499 58.916C218.359 58.748 218.289 58.5473 218.289 58.314C218.289 58.0807 218.359 57.8847 218.499 57.726C218.649 57.558 218.831 57.474 219.045 57.474C219.26 57.474 219.437 57.558 219.577 57.726C219.727 57.8847 219.801 58.0807 219.801 58.314C219.801 58.5473 219.727 58.748 219.577 58.916C219.437 59.0747 219.26 59.154 219.045 59.154ZM224.651 56.942C224.894 57.3713 225.193 57.6793 225.547 57.866C225.911 58.0527 226.28 58.146 226.653 58.146C226.905 58.146 227.148 58.1133 227.381 58.048C227.624 57.9733 227.834 57.866 228.011 57.726C228.198 57.586 228.343 57.4087 228.445 57.194C228.557 56.9793 228.613 56.7227 228.613 56.424C228.613 56.1347 228.557 55.8827 228.445 55.668C228.333 55.444 228.184 55.262 227.997 55.122C227.82 54.9727 227.605 54.8607 227.353 54.786C227.111 54.7113 226.859 54.6647 226.597 54.646V53.806C226.831 53.7873 227.059 53.7407 227.283 53.666C227.507 53.5913 227.708 53.4887 227.885 53.358C228.063 53.218 228.203 53.05 228.305 52.854C228.417 52.658 228.473 52.4293 228.473 52.168C228.473 51.6827 228.324 51.314 228.025 51.062C227.736 50.8007 227.325 50.67 226.793 50.67C226.373 50.67 226 50.7773 225.673 50.992C225.356 51.2067 225.109 51.4913 224.931 51.846L224.049 51.3C224.32 50.768 224.712 50.362 225.225 50.082C225.739 49.802 226.289 49.662 226.877 49.662C227.269 49.662 227.633 49.718 227.969 49.83C228.315 49.942 228.609 50.1053 228.851 50.32C229.094 50.5253 229.285 50.7773 229.425 51.076C229.565 51.3747 229.635 51.7107 229.635 52.084C229.635 52.6253 229.505 53.064 229.243 53.4C228.991 53.7267 228.669 53.988 228.277 54.184C228.483 54.268 228.674 54.3707 228.851 54.492C229.038 54.6133 229.201 54.7627 229.341 54.94C229.481 55.108 229.589 55.3133 229.663 55.556C229.747 55.7987 229.789 56.0833 229.789 56.41C229.789 56.858 229.701 57.2547 229.523 57.6C229.346 57.936 229.113 58.2207 228.823 58.454C228.534 58.678 228.203 58.8507 227.829 58.972C227.456 59.0933 227.073 59.154 226.681 59.154C226.392 59.154 226.107 59.1213 225.827 59.056C225.547 58.9907 225.277 58.888 225.015 58.748C224.763 58.608 224.53 58.4353 224.315 58.23C224.101 58.0153 223.919 57.768 223.769 57.488L224.651 56.942ZM231.932 59V49.662H233.248L235.964 56.872L238.764 49.662H240.066V59H238.988V51.874L236.09 59.154H235.866L233.024 51.888V59H231.932ZM242.336 59V49.662H245.122C246.083 49.662 246.816 49.8767 247.32 50.306C247.824 50.7353 248.076 51.314 248.076 52.042C248.076 52.6393 247.899 53.1013 247.544 53.428C247.189 53.7453 246.732 53.9507 246.172 54.044C246.452 54.072 246.732 54.1327 247.012 54.226C247.292 54.31 247.544 54.4453 247.768 54.632C248.001 54.8187 248.188 55.0567 248.328 55.346C248.477 55.626 248.552 55.976 248.552 56.396C248.552 56.7973 248.477 57.1613 248.328 57.488C248.188 57.8053 247.992 58.076 247.74 58.3C247.488 58.524 247.189 58.6967 246.844 58.818C246.499 58.9393 246.121 59 245.71 59H242.336ZM243.456 53.624H245.024C245.612 53.624 246.069 53.4887 246.396 53.218C246.732 52.938 246.9 52.546 246.9 52.042C246.9 51.5847 246.751 51.2347 246.452 50.992C246.163 50.7493 245.733 50.628 245.164 50.628H243.456V53.624ZM243.456 58.034H245.612C246.144 58.034 246.569 57.9033 246.886 57.642C247.203 57.3713 247.362 56.956 247.362 56.396C247.362 55.7987 247.166 55.3507 246.774 55.052C246.391 54.744 245.822 54.59 245.066 54.59H243.456V58.034Z" fill="#4B5563"/>
</svg>
